G75*
%MOIN*%
%OFA0B0*%
%FSLAX25Y25*%
%IPPOS*%
%LPD*%
%AMOC8*
5,1,8,0,0,1.08239X$1,22.5*
%
%ADD10R,0.05150X0.05150*%
%ADD11C,0.05150*%
%ADD12C,0.06000*%
%ADD13C,0.07480*%
%ADD14C,0.10335*%
%ADD15C,0.01000*%
%ADD16C,0.03962*%
%ADD17C,0.05906*%
D10*
X0046500Y0136500D03*
D11*
X0056500Y0136500D03*
X0066500Y0136500D03*
X0076500Y0136500D03*
X0086500Y0136500D03*
X0096500Y0136500D03*
X0106500Y0136500D03*
X0116500Y0136500D03*
X0126500Y0136500D03*
X0136500Y0136500D03*
X0146500Y0136500D03*
X0156500Y0136500D03*
X0166500Y0136500D03*
X0176500Y0136500D03*
X0186500Y0136500D03*
X0186500Y0196500D03*
X0176500Y0196500D03*
X0166500Y0196500D03*
X0156500Y0196500D03*
X0146500Y0196500D03*
X0136500Y0196500D03*
X0126500Y0196500D03*
X0116500Y0196500D03*
X0106500Y0196500D03*
X0096500Y0196500D03*
X0086500Y0196500D03*
X0076500Y0196500D03*
X0066500Y0196500D03*
X0056500Y0196500D03*
X0046500Y0196500D03*
D12*
X0046500Y0210000D02*
X0046500Y0216000D01*
X0056500Y0216000D02*
X0056500Y0210000D01*
X0066500Y0210000D02*
X0066500Y0216000D01*
X0076500Y0216000D02*
X0076500Y0210000D01*
X0086500Y0210000D02*
X0086500Y0216000D01*
X0096500Y0216000D02*
X0096500Y0210000D01*
X0106500Y0210000D02*
X0106500Y0216000D01*
X0116500Y0216000D02*
X0116500Y0210000D01*
X0219500Y0165500D02*
X0225500Y0165500D01*
X0225500Y0155500D02*
X0219500Y0155500D01*
X0219500Y0145500D02*
X0225500Y0145500D01*
D13*
X0214500Y0076366D03*
X0204500Y0076366D03*
X0194500Y0076366D03*
X0184500Y0076366D03*
X0092000Y0076366D03*
X0082000Y0076366D03*
X0072000Y0076366D03*
X0062000Y0076366D03*
D14*
X0062236Y0048098D03*
X0091764Y0048098D03*
X0184736Y0048098D03*
X0214264Y0048098D03*
D15*
X0041642Y0041369D02*
X0039773Y0039500D01*
X0229727Y0039500D01*
X0227858Y0041369D01*
X0226436Y0043831D01*
X0225700Y0046578D01*
X0225700Y0049422D01*
X0226436Y0052169D01*
X0227858Y0054631D01*
X0229869Y0056642D01*
X0232331Y0058064D01*
X0235078Y0058800D01*
X0237922Y0058800D01*
X0240669Y0058064D01*
X0243131Y0056642D01*
X0244201Y0055573D01*
X0244201Y0223461D01*
X0244195Y0223539D01*
X0244146Y0223688D01*
X0244054Y0223814D01*
X0243928Y0223906D01*
X0243779Y0223954D01*
X0243701Y0223961D01*
X0191006Y0223961D01*
X0203457Y0207821D01*
X0203704Y0207573D01*
X0203770Y0207415D01*
X0203875Y0207279D01*
X0203966Y0206941D01*
X0204100Y0206618D01*
X0204100Y0206446D01*
X0204145Y0206281D01*
X0204100Y0205934D01*
X0204100Y0136483D01*
X0203704Y0135527D01*
X0192473Y0124296D01*
X0191517Y0123900D01*
X0185172Y0123900D01*
X0184312Y0123040D01*
X0182812Y0122419D01*
X0181188Y0122419D01*
X0179688Y0123040D01*
X0178540Y0124188D01*
X0177919Y0125688D01*
X0177919Y0127312D01*
X0178540Y0128812D01*
X0179688Y0129960D01*
X0181188Y0130581D01*
X0182812Y0130581D01*
X0184312Y0129960D01*
X0185172Y0129100D01*
X0189923Y0129100D01*
X0198900Y0138077D01*
X0198900Y0205214D01*
X0186719Y0221004D01*
X0039350Y0221328D01*
X0037333Y0220656D01*
X0034100Y0217423D01*
X0034100Y0211672D01*
X0034960Y0210812D01*
X0035581Y0209312D01*
X0035581Y0207688D01*
X0034960Y0206188D01*
X0033812Y0205040D01*
X0032312Y0204419D01*
X0030688Y0204419D01*
X0029188Y0205040D01*
X0028040Y0206188D01*
X0027419Y0207688D01*
X0027419Y0209312D01*
X0028040Y0210812D01*
X0028900Y0211672D01*
X0028900Y0219017D01*
X0029296Y0219973D01*
X0033284Y0223961D01*
X0025000Y0223961D01*
X0024922Y0223954D01*
X0024773Y0223906D01*
X0024646Y0223814D01*
X0024554Y0223688D01*
X0024506Y0223539D01*
X0024500Y0223461D01*
X0024500Y0054773D01*
X0026369Y0056642D01*
X0028831Y0058064D01*
X0031578Y0058800D01*
X0034422Y0058800D01*
X0037169Y0058064D01*
X0039631Y0056642D01*
X0041642Y0054631D01*
X0043064Y0052169D01*
X0043800Y0049422D01*
X0043800Y0046578D01*
X0043064Y0043831D01*
X0041642Y0041369D01*
X0041602Y0041329D02*
X0059589Y0041329D01*
X0060791Y0040831D02*
X0063682Y0040831D01*
X0066353Y0041937D01*
X0068397Y0043982D01*
X0069504Y0046653D01*
X0069504Y0049544D01*
X0068397Y0052215D01*
X0066353Y0054259D01*
X0063682Y0055366D01*
X0060791Y0055366D01*
X0058120Y0054259D01*
X0056075Y0052215D01*
X0054969Y0049544D01*
X0054969Y0046653D01*
X0056075Y0043982D01*
X0058120Y0041937D01*
X0060791Y0040831D01*
X0057730Y0042327D02*
X0042196Y0042327D01*
X0042772Y0043326D02*
X0056731Y0043326D01*
X0055933Y0044324D02*
X0043196Y0044324D01*
X0043464Y0045323D02*
X0055520Y0045323D01*
X0055106Y0046321D02*
X0043731Y0046321D01*
X0043800Y0047320D02*
X0054969Y0047320D01*
X0054969Y0048318D02*
X0043800Y0048318D01*
X0043800Y0049317D02*
X0054969Y0049317D01*
X0055288Y0050315D02*
X0043561Y0050315D01*
X0043293Y0051314D02*
X0055702Y0051314D01*
X0056173Y0052312D02*
X0042981Y0052312D01*
X0042404Y0053311D02*
X0057171Y0053311D01*
X0058241Y0054309D02*
X0041828Y0054309D01*
X0040966Y0055308D02*
X0060651Y0055308D01*
X0063821Y0055308D02*
X0090179Y0055308D01*
X0090318Y0055366D02*
X0087647Y0054259D01*
X0085603Y0052215D01*
X0084496Y0049544D01*
X0084496Y0046653D01*
X0085603Y0043982D01*
X0087647Y0041937D01*
X0090318Y0040831D01*
X0093209Y0040831D01*
X0095880Y0041937D01*
X0097925Y0043982D01*
X0099031Y0046653D01*
X0099031Y0049544D01*
X0097925Y0052215D01*
X0095880Y0054259D01*
X0093209Y0055366D01*
X0090318Y0055366D01*
X0087768Y0054309D02*
X0066232Y0054309D01*
X0067301Y0053311D02*
X0086699Y0053311D01*
X0085700Y0052312D02*
X0068300Y0052312D01*
X0068770Y0051314D02*
X0085230Y0051314D01*
X0084816Y0050315D02*
X0069184Y0050315D01*
X0069504Y0049317D02*
X0084496Y0049317D01*
X0084496Y0048318D02*
X0069504Y0048318D01*
X0069504Y0047320D02*
X0084496Y0047320D01*
X0084634Y0046321D02*
X0069366Y0046321D01*
X0068953Y0045323D02*
X0085047Y0045323D01*
X0085461Y0044324D02*
X0068539Y0044324D01*
X0067741Y0043326D02*
X0086259Y0043326D01*
X0087257Y0042327D02*
X0066743Y0042327D01*
X0064883Y0041329D02*
X0089117Y0041329D01*
X0094411Y0041329D02*
X0182089Y0041329D01*
X0183291Y0040831D02*
X0186182Y0040831D01*
X0188853Y0041937D01*
X0190897Y0043982D01*
X0192004Y0046653D01*
X0192004Y0049544D01*
X0190897Y0052215D01*
X0188853Y0054259D01*
X0186182Y0055366D01*
X0183291Y0055366D01*
X0180620Y0054259D01*
X0178575Y0052215D01*
X0177469Y0049544D01*
X0177469Y0046653D01*
X0178575Y0043982D01*
X0180620Y0041937D01*
X0183291Y0040831D01*
X0180230Y0042327D02*
X0096270Y0042327D01*
X0097269Y0043326D02*
X0179231Y0043326D01*
X0178433Y0044324D02*
X0098067Y0044324D01*
X0098480Y0045323D02*
X0178020Y0045323D01*
X0177606Y0046321D02*
X0098894Y0046321D01*
X0099031Y0047320D02*
X0177469Y0047320D01*
X0177469Y0048318D02*
X0099031Y0048318D01*
X0099031Y0049317D02*
X0177469Y0049317D01*
X0177788Y0050315D02*
X0098712Y0050315D01*
X0098298Y0051314D02*
X0178202Y0051314D01*
X0178673Y0052312D02*
X0171762Y0052312D01*
X0172312Y0052540D02*
X0173460Y0053688D01*
X0174081Y0055188D01*
X0174081Y0056812D01*
X0173761Y0057584D01*
X0175577Y0059400D01*
X0223517Y0059400D01*
X0224473Y0059796D01*
X0238973Y0074296D01*
X0239704Y0075027D01*
X0240100Y0075983D01*
X0240100Y0160517D01*
X0239704Y0161473D01*
X0238973Y0162204D01*
X0234204Y0166973D01*
X0233473Y0167704D01*
X0232517Y0168100D01*
X0229943Y0168100D01*
X0229824Y0168389D01*
X0228389Y0169824D01*
X0226514Y0170600D01*
X0218486Y0170600D01*
X0216611Y0169824D01*
X0215176Y0168389D01*
X0214400Y0166514D01*
X0214400Y0164486D01*
X0215176Y0162611D01*
X0216611Y0161176D01*
X0218244Y0160500D01*
X0216611Y0159824D01*
X0215176Y0158389D01*
X0214400Y0156514D01*
X0214400Y0154486D01*
X0215176Y0152611D01*
X0216611Y0151176D01*
X0218244Y0150500D01*
X0216611Y0149824D01*
X0215176Y0148389D01*
X0214400Y0146514D01*
X0214400Y0144486D01*
X0215176Y0142611D01*
X0216611Y0141176D01*
X0218486Y0140400D01*
X0226514Y0140400D01*
X0228389Y0141176D01*
X0229824Y0142611D01*
X0230600Y0144486D01*
X0230600Y0146514D01*
X0229824Y0148389D01*
X0228389Y0149824D01*
X0226756Y0150500D01*
X0228389Y0151176D01*
X0229824Y0152611D01*
X0230600Y0154486D01*
X0230600Y0156514D01*
X0229824Y0158389D01*
X0228389Y0159824D01*
X0226756Y0160500D01*
X0228389Y0161176D01*
X0229824Y0162611D01*
X0229943Y0162900D01*
X0230923Y0162900D01*
X0234900Y0158923D01*
X0234900Y0097277D01*
X0232473Y0099704D01*
X0231517Y0100100D01*
X0217077Y0100100D01*
X0198973Y0118204D01*
X0198017Y0118600D01*
X0138077Y0118600D01*
X0124344Y0132333D01*
X0125570Y0131825D01*
X0127430Y0131825D01*
X0129148Y0132537D01*
X0130463Y0133852D01*
X0131175Y0135570D01*
X0131175Y0137430D01*
X0130463Y0139148D01*
X0129148Y0140463D01*
X0127430Y0141175D01*
X0125570Y0141175D01*
X0123852Y0140463D01*
X0122537Y0139148D01*
X0121825Y0137430D01*
X0121825Y0135570D01*
X0122333Y0134344D01*
X0121155Y0135522D01*
X0121175Y0135570D01*
X0121175Y0137430D01*
X0120463Y0139148D01*
X0119148Y0140463D01*
X0117430Y0141175D01*
X0115570Y0141175D01*
X0113852Y0140463D01*
X0112537Y0139148D01*
X0111825Y0137430D01*
X0111825Y0135570D01*
X0112537Y0133852D01*
X0113852Y0132537D01*
X0115570Y0131825D01*
X0117430Y0131825D01*
X0117478Y0131845D01*
X0134796Y0114527D01*
X0135223Y0114100D01*
X0099577Y0114100D01*
X0089100Y0124577D01*
X0089100Y0132517D01*
X0089148Y0132537D01*
X0090463Y0133852D01*
X0091175Y0135570D01*
X0091175Y0137430D01*
X0090463Y0139148D01*
X0089148Y0140463D01*
X0087430Y0141175D01*
X0085570Y0141175D01*
X0083852Y0140463D01*
X0082537Y0139148D01*
X0081825Y0137430D01*
X0081825Y0135570D01*
X0082537Y0133852D01*
X0083852Y0132537D01*
X0083900Y0132517D01*
X0083900Y0122983D01*
X0084296Y0122027D01*
X0097027Y0109296D01*
X0097983Y0108900D01*
X0180423Y0108900D01*
X0201900Y0087423D01*
X0201900Y0081611D01*
X0201192Y0081317D01*
X0199549Y0079674D01*
X0199166Y0078750D01*
X0198982Y0079113D01*
X0198497Y0079780D01*
X0197914Y0080363D01*
X0197246Y0080848D01*
X0196512Y0081222D01*
X0195727Y0081477D01*
X0195000Y0081592D01*
X0195000Y0076866D01*
X0194000Y0076866D01*
X0194000Y0081592D01*
X0193273Y0081477D01*
X0192488Y0081222D01*
X0191754Y0080848D01*
X0191086Y0080363D01*
X0190503Y0079780D01*
X0190018Y0079113D01*
X0189834Y0078750D01*
X0189451Y0079674D01*
X0187808Y0081317D01*
X0185662Y0082206D01*
X0183338Y0082206D01*
X0181192Y0081317D01*
X0179549Y0079674D01*
X0178660Y0077528D01*
X0178660Y0075204D01*
X0178792Y0074885D01*
X0171704Y0081973D01*
X0170973Y0082704D01*
X0170017Y0083100D01*
X0156172Y0083100D01*
X0155312Y0083960D01*
X0153812Y0084581D01*
X0152188Y0084581D01*
X0150688Y0083960D01*
X0149540Y0082812D01*
X0148919Y0081312D01*
X0148919Y0079688D01*
X0149540Y0078188D01*
X0150688Y0077040D01*
X0152188Y0076419D01*
X0153812Y0076419D01*
X0155312Y0077040D01*
X0156172Y0077900D01*
X0168423Y0077900D01*
X0170166Y0076157D01*
X0169688Y0075960D01*
X0168540Y0074812D01*
X0167919Y0073312D01*
X0167919Y0071688D01*
X0168540Y0070188D01*
X0169688Y0069040D01*
X0171188Y0068419D01*
X0172404Y0068419D01*
X0176223Y0064600D01*
X0173983Y0064600D01*
X0173027Y0064204D01*
X0168703Y0059880D01*
X0167688Y0059460D01*
X0166540Y0058312D01*
X0165919Y0056812D01*
X0165919Y0055188D01*
X0166540Y0053688D01*
X0167688Y0052540D01*
X0169188Y0051919D01*
X0170812Y0051919D01*
X0172312Y0052540D01*
X0173082Y0053311D02*
X0179671Y0053311D01*
X0180741Y0054309D02*
X0173717Y0054309D01*
X0174081Y0055308D02*
X0183151Y0055308D01*
X0186321Y0055308D02*
X0212679Y0055308D01*
X0212818Y0055366D02*
X0210147Y0054259D01*
X0208103Y0052215D01*
X0206996Y0049544D01*
X0206996Y0046653D01*
X0208103Y0043982D01*
X0210147Y0041937D01*
X0212818Y0040831D01*
X0215709Y0040831D01*
X0218380Y0041937D01*
X0220425Y0043982D01*
X0221531Y0046653D01*
X0221531Y0049544D01*
X0220425Y0052215D01*
X0218380Y0054259D01*
X0215709Y0055366D01*
X0212818Y0055366D01*
X0210268Y0054309D02*
X0188732Y0054309D01*
X0189801Y0053311D02*
X0209199Y0053311D01*
X0208200Y0052312D02*
X0190800Y0052312D01*
X0191270Y0051314D02*
X0207730Y0051314D01*
X0207316Y0050315D02*
X0191684Y0050315D01*
X0192004Y0049317D02*
X0206996Y0049317D01*
X0206996Y0048318D02*
X0192004Y0048318D01*
X0192004Y0047320D02*
X0206996Y0047320D01*
X0207134Y0046321D02*
X0191866Y0046321D01*
X0191453Y0045323D02*
X0207547Y0045323D01*
X0207961Y0044324D02*
X0191039Y0044324D01*
X0190241Y0043326D02*
X0208759Y0043326D01*
X0209757Y0042327D02*
X0189243Y0042327D01*
X0187383Y0041329D02*
X0211617Y0041329D01*
X0216911Y0041329D02*
X0227898Y0041329D01*
X0227304Y0042327D02*
X0218770Y0042327D01*
X0219769Y0043326D02*
X0226728Y0043326D01*
X0226304Y0044324D02*
X0220567Y0044324D01*
X0220980Y0045323D02*
X0226036Y0045323D01*
X0225769Y0046321D02*
X0221394Y0046321D01*
X0221531Y0047320D02*
X0225700Y0047320D01*
X0225700Y0048318D02*
X0221531Y0048318D01*
X0221531Y0049317D02*
X0225700Y0049317D01*
X0225939Y0050315D02*
X0221212Y0050315D01*
X0220798Y0051314D02*
X0226207Y0051314D01*
X0226519Y0052312D02*
X0220327Y0052312D01*
X0219329Y0053311D02*
X0227096Y0053311D01*
X0227672Y0054309D02*
X0218259Y0054309D01*
X0215849Y0055308D02*
X0228534Y0055308D01*
X0229533Y0056306D02*
X0174081Y0056306D01*
X0173877Y0057305D02*
X0231017Y0057305D01*
X0233225Y0058303D02*
X0174480Y0058303D01*
X0175479Y0059302D02*
X0244201Y0059302D01*
X0244201Y0058303D02*
X0239775Y0058303D01*
X0241983Y0057305D02*
X0244201Y0057305D01*
X0244201Y0056306D02*
X0243467Y0056306D01*
X0244201Y0060301D02*
X0224977Y0060301D01*
X0225976Y0061299D02*
X0244201Y0061299D01*
X0244201Y0062298D02*
X0226974Y0062298D01*
X0227973Y0063296D02*
X0244201Y0063296D01*
X0244201Y0064295D02*
X0228971Y0064295D01*
X0229970Y0065293D02*
X0244201Y0065293D01*
X0244201Y0066292D02*
X0230969Y0066292D01*
X0231967Y0067290D02*
X0244201Y0067290D01*
X0244201Y0068289D02*
X0232966Y0068289D01*
X0233964Y0069287D02*
X0244201Y0069287D01*
X0244201Y0070286D02*
X0234963Y0070286D01*
X0235961Y0071284D02*
X0244201Y0071284D01*
X0244201Y0072283D02*
X0236960Y0072283D01*
X0237958Y0073281D02*
X0244201Y0073281D01*
X0244201Y0074280D02*
X0238957Y0074280D01*
X0238973Y0074296D02*
X0238973Y0074296D01*
X0239808Y0075278D02*
X0244201Y0075278D01*
X0244201Y0076277D02*
X0240100Y0076277D01*
X0240100Y0077275D02*
X0244201Y0077275D01*
X0244201Y0078274D02*
X0240100Y0078274D01*
X0240100Y0079272D02*
X0244201Y0079272D01*
X0244201Y0080271D02*
X0240100Y0080271D01*
X0240100Y0081269D02*
X0244201Y0081269D01*
X0244201Y0082268D02*
X0240100Y0082268D01*
X0240100Y0083266D02*
X0244201Y0083266D01*
X0244201Y0084265D02*
X0240100Y0084265D01*
X0240100Y0085263D02*
X0244201Y0085263D01*
X0244201Y0086262D02*
X0240100Y0086262D01*
X0240100Y0087260D02*
X0244201Y0087260D01*
X0244201Y0088259D02*
X0240100Y0088259D01*
X0240100Y0089257D02*
X0244201Y0089257D01*
X0244201Y0090256D02*
X0240100Y0090256D01*
X0240100Y0091254D02*
X0244201Y0091254D01*
X0244201Y0092253D02*
X0240100Y0092253D01*
X0240100Y0093251D02*
X0244201Y0093251D01*
X0244201Y0094250D02*
X0240100Y0094250D01*
X0240100Y0095248D02*
X0244201Y0095248D01*
X0244201Y0096247D02*
X0240100Y0096247D01*
X0240100Y0097245D02*
X0244201Y0097245D01*
X0244201Y0098244D02*
X0240100Y0098244D01*
X0240100Y0099242D02*
X0244201Y0099242D01*
X0244201Y0100241D02*
X0240100Y0100241D01*
X0240100Y0101239D02*
X0244201Y0101239D01*
X0244201Y0102238D02*
X0240100Y0102238D01*
X0240100Y0103237D02*
X0244201Y0103237D01*
X0244201Y0104235D02*
X0240100Y0104235D01*
X0240100Y0105234D02*
X0244201Y0105234D01*
X0244201Y0106232D02*
X0240100Y0106232D01*
X0240100Y0107231D02*
X0244201Y0107231D01*
X0244201Y0108229D02*
X0240100Y0108229D01*
X0240100Y0109228D02*
X0244201Y0109228D01*
X0244201Y0110226D02*
X0240100Y0110226D01*
X0240100Y0111225D02*
X0244201Y0111225D01*
X0244201Y0112223D02*
X0240100Y0112223D01*
X0240100Y0113222D02*
X0244201Y0113222D01*
X0244201Y0114220D02*
X0240100Y0114220D01*
X0240100Y0115219D02*
X0244201Y0115219D01*
X0244201Y0116217D02*
X0240100Y0116217D01*
X0240100Y0117216D02*
X0244201Y0117216D01*
X0244201Y0118214D02*
X0240100Y0118214D01*
X0240100Y0119213D02*
X0244201Y0119213D01*
X0244201Y0120211D02*
X0240100Y0120211D01*
X0240100Y0121210D02*
X0244201Y0121210D01*
X0244201Y0122208D02*
X0240100Y0122208D01*
X0240100Y0123207D02*
X0244201Y0123207D01*
X0244201Y0124205D02*
X0240100Y0124205D01*
X0240100Y0125204D02*
X0244201Y0125204D01*
X0244201Y0126202D02*
X0240100Y0126202D01*
X0240100Y0127201D02*
X0244201Y0127201D01*
X0244201Y0128199D02*
X0240100Y0128199D01*
X0240100Y0129198D02*
X0244201Y0129198D01*
X0244201Y0130196D02*
X0240100Y0130196D01*
X0240100Y0131195D02*
X0244201Y0131195D01*
X0244201Y0132193D02*
X0240100Y0132193D01*
X0240100Y0133192D02*
X0244201Y0133192D01*
X0244201Y0134190D02*
X0240100Y0134190D01*
X0240100Y0135189D02*
X0244201Y0135189D01*
X0244201Y0136187D02*
X0240100Y0136187D01*
X0240100Y0137186D02*
X0244201Y0137186D01*
X0244201Y0138184D02*
X0240100Y0138184D01*
X0240100Y0139183D02*
X0244201Y0139183D01*
X0244201Y0140181D02*
X0240100Y0140181D01*
X0240100Y0141180D02*
X0244201Y0141180D01*
X0244201Y0142178D02*
X0240100Y0142178D01*
X0240100Y0143177D02*
X0244201Y0143177D01*
X0244201Y0144175D02*
X0240100Y0144175D01*
X0240100Y0145174D02*
X0244201Y0145174D01*
X0244201Y0146172D02*
X0240100Y0146172D01*
X0240100Y0147171D02*
X0244201Y0147171D01*
X0244201Y0148170D02*
X0240100Y0148170D01*
X0240100Y0149168D02*
X0244201Y0149168D01*
X0244201Y0150167D02*
X0240100Y0150167D01*
X0240100Y0151165D02*
X0244201Y0151165D01*
X0244201Y0152164D02*
X0240100Y0152164D01*
X0240100Y0153162D02*
X0244201Y0153162D01*
X0244201Y0154161D02*
X0240100Y0154161D01*
X0240100Y0155159D02*
X0244201Y0155159D01*
X0244201Y0156158D02*
X0240100Y0156158D01*
X0240100Y0157156D02*
X0244201Y0157156D01*
X0244201Y0158155D02*
X0240100Y0158155D01*
X0240100Y0159153D02*
X0244201Y0159153D01*
X0244201Y0160152D02*
X0240100Y0160152D01*
X0239838Y0161150D02*
X0244201Y0161150D01*
X0244201Y0162149D02*
X0239028Y0162149D01*
X0238030Y0163147D02*
X0244201Y0163147D01*
X0244201Y0164146D02*
X0237031Y0164146D01*
X0236033Y0165144D02*
X0244201Y0165144D01*
X0244201Y0166143D02*
X0235034Y0166143D01*
X0234036Y0167141D02*
X0244201Y0167141D01*
X0244201Y0168140D02*
X0229927Y0168140D01*
X0229074Y0169138D02*
X0244201Y0169138D01*
X0244201Y0170137D02*
X0227633Y0170137D01*
X0232000Y0165500D02*
X0222500Y0165500D01*
X0217367Y0170137D02*
X0204100Y0170137D01*
X0204100Y0171135D02*
X0244201Y0171135D01*
X0244201Y0172134D02*
X0204100Y0172134D01*
X0204100Y0173132D02*
X0244201Y0173132D01*
X0244201Y0174131D02*
X0204100Y0174131D01*
X0204100Y0175129D02*
X0244201Y0175129D01*
X0244201Y0176128D02*
X0204100Y0176128D01*
X0204100Y0177126D02*
X0244201Y0177126D01*
X0244201Y0178125D02*
X0204100Y0178125D01*
X0204100Y0179123D02*
X0244201Y0179123D01*
X0244201Y0180122D02*
X0204100Y0180122D01*
X0204100Y0181120D02*
X0244201Y0181120D01*
X0244201Y0182119D02*
X0204100Y0182119D01*
X0204100Y0183117D02*
X0244201Y0183117D01*
X0244201Y0184116D02*
X0204100Y0184116D01*
X0204100Y0185114D02*
X0244201Y0185114D01*
X0244201Y0186113D02*
X0204100Y0186113D01*
X0204100Y0187111D02*
X0244201Y0187111D01*
X0244201Y0188110D02*
X0204100Y0188110D01*
X0204100Y0189108D02*
X0244201Y0189108D01*
X0244201Y0190107D02*
X0204100Y0190107D01*
X0204100Y0191105D02*
X0244201Y0191105D01*
X0244201Y0192104D02*
X0214591Y0192104D01*
X0214862Y0192216D02*
X0216284Y0193638D01*
X0217053Y0195495D01*
X0217053Y0197505D01*
X0216284Y0199362D01*
X0214862Y0200784D01*
X0213005Y0201553D01*
X0210995Y0201553D01*
X0209138Y0200784D01*
X0207716Y0199362D01*
X0206947Y0197505D01*
X0206947Y0195495D01*
X0207716Y0193638D01*
X0209138Y0192216D01*
X0210995Y0191447D01*
X0213005Y0191447D01*
X0214862Y0192216D01*
X0215748Y0193103D02*
X0244201Y0193103D01*
X0244201Y0194101D02*
X0216475Y0194101D01*
X0216889Y0195100D02*
X0244201Y0195100D01*
X0244201Y0196098D02*
X0217053Y0196098D01*
X0217053Y0197097D02*
X0244201Y0197097D01*
X0244201Y0198095D02*
X0216808Y0198095D01*
X0216395Y0199094D02*
X0244201Y0199094D01*
X0244201Y0200092D02*
X0215554Y0200092D01*
X0214121Y0201091D02*
X0244201Y0201091D01*
X0244201Y0202089D02*
X0204100Y0202089D01*
X0204100Y0201091D02*
X0209879Y0201091D01*
X0208446Y0200092D02*
X0204100Y0200092D01*
X0204100Y0199094D02*
X0207605Y0199094D01*
X0207192Y0198095D02*
X0204100Y0198095D01*
X0204100Y0197097D02*
X0206947Y0197097D01*
X0206947Y0196098D02*
X0204100Y0196098D01*
X0204100Y0195100D02*
X0207111Y0195100D01*
X0207525Y0194101D02*
X0204100Y0194101D01*
X0204100Y0193103D02*
X0208252Y0193103D01*
X0209409Y0192104D02*
X0204100Y0192104D01*
X0198900Y0192104D02*
X0198600Y0192104D01*
X0198600Y0191105D02*
X0198900Y0191105D01*
X0198900Y0190107D02*
X0198600Y0190107D01*
X0198600Y0189108D02*
X0198900Y0189108D01*
X0198900Y0188110D02*
X0198600Y0188110D01*
X0198600Y0187111D02*
X0198900Y0187111D01*
X0198900Y0186113D02*
X0198600Y0186113D01*
X0198600Y0185114D02*
X0198900Y0185114D01*
X0198900Y0184116D02*
X0198600Y0184116D01*
X0198600Y0183117D02*
X0198900Y0183117D01*
X0198900Y0182119D02*
X0198600Y0182119D01*
X0198600Y0181120D02*
X0198900Y0181120D01*
X0198900Y0180122D02*
X0198600Y0180122D01*
X0198600Y0179123D02*
X0198900Y0179123D01*
X0198900Y0178125D02*
X0198600Y0178125D01*
X0198600Y0177126D02*
X0198900Y0177126D01*
X0198900Y0176128D02*
X0198600Y0176128D01*
X0198600Y0175483D02*
X0198600Y0199517D01*
X0198204Y0200473D01*
X0197473Y0201204D01*
X0191973Y0206704D01*
X0191017Y0207100D01*
X0120812Y0207100D01*
X0120824Y0207111D01*
X0121600Y0208986D01*
X0121600Y0217014D01*
X0120824Y0218889D01*
X0119389Y0220324D01*
X0117514Y0221100D01*
X0115486Y0221100D01*
X0113611Y0220324D01*
X0112176Y0218889D01*
X0111400Y0217014D01*
X0111400Y0208986D01*
X0112176Y0207111D01*
X0112188Y0207100D01*
X0109955Y0207100D01*
X0110349Y0207641D01*
X0110670Y0208273D01*
X0110889Y0208946D01*
X0111000Y0209646D01*
X0111000Y0212500D01*
X0107000Y0212500D01*
X0107000Y0213500D01*
X0106000Y0213500D01*
X0106000Y0220477D01*
X0105446Y0220389D01*
X0104773Y0220170D01*
X0104141Y0219849D01*
X0103568Y0219432D01*
X0103068Y0218932D01*
X0102651Y0218359D01*
X0102330Y0217727D01*
X0102111Y0217054D01*
X0102000Y0216354D01*
X0102000Y0213500D01*
X0106000Y0213500D01*
X0106000Y0212500D01*
X0102000Y0212500D01*
X0102000Y0209646D01*
X0102111Y0208946D01*
X0102330Y0208273D01*
X0102651Y0207641D01*
X0103045Y0207100D01*
X0100812Y0207100D01*
X0100824Y0207111D01*
X0101600Y0208986D01*
X0101600Y0217014D01*
X0100824Y0218889D01*
X0099389Y0220324D01*
X0097514Y0221100D01*
X0095486Y0221100D01*
X0093611Y0220324D01*
X0092176Y0218889D01*
X0091500Y0217256D01*
X0090824Y0218889D01*
X0089389Y0220324D01*
X0087514Y0221100D01*
X0085486Y0221100D01*
X0083611Y0220324D01*
X0082176Y0218889D01*
X0081500Y0217256D01*
X0080824Y0218889D01*
X0079389Y0220324D01*
X0077514Y0221100D01*
X0075486Y0221100D01*
X0073611Y0220324D01*
X0072176Y0218889D01*
X0071500Y0217256D01*
X0070824Y0218889D01*
X0069389Y0220324D01*
X0067514Y0221100D01*
X0065486Y0221100D01*
X0063611Y0220324D01*
X0062176Y0218889D01*
X0061500Y0217256D01*
X0060824Y0218889D01*
X0059389Y0220324D01*
X0057514Y0221100D01*
X0055486Y0221100D01*
X0053611Y0220324D01*
X0052176Y0218889D01*
X0051500Y0217256D01*
X0050824Y0218889D01*
X0049389Y0220324D01*
X0047514Y0221100D01*
X0045486Y0221100D01*
X0043611Y0220324D01*
X0042176Y0218889D01*
X0041400Y0217014D01*
X0041400Y0208986D01*
X0042176Y0207111D01*
X0043611Y0205676D01*
X0045486Y0204900D01*
X0047514Y0204900D01*
X0049389Y0205676D01*
X0050824Y0207111D01*
X0051500Y0208744D01*
X0052176Y0207111D01*
X0053611Y0205676D01*
X0055486Y0204900D01*
X0057514Y0204900D01*
X0059389Y0205676D01*
X0060824Y0207111D01*
X0061500Y0208744D01*
X0062176Y0207111D01*
X0063611Y0205676D01*
X0065486Y0204900D01*
X0067514Y0204900D01*
X0069389Y0205676D01*
X0070824Y0207111D01*
X0071500Y0208744D01*
X0072176Y0207111D01*
X0073611Y0205676D01*
X0075486Y0204900D01*
X0077514Y0204900D01*
X0079389Y0205676D01*
X0080824Y0207111D01*
X0081500Y0208744D01*
X0082176Y0207111D01*
X0083611Y0205676D01*
X0085486Y0204900D01*
X0085923Y0204900D01*
X0087796Y0203027D01*
X0088527Y0202296D01*
X0089483Y0201900D01*
X0189423Y0201900D01*
X0193400Y0197923D01*
X0193400Y0177077D01*
X0157478Y0141155D01*
X0157430Y0141175D01*
X0155570Y0141175D01*
X0153852Y0140463D01*
X0152537Y0139148D01*
X0151825Y0137430D01*
X0151825Y0135570D01*
X0152537Y0133852D01*
X0153852Y0132537D01*
X0155570Y0131825D01*
X0157430Y0131825D01*
X0159148Y0132537D01*
X0160463Y0133852D01*
X0161175Y0135570D01*
X0161175Y0137430D01*
X0161155Y0137478D01*
X0162333Y0138656D01*
X0161825Y0137430D01*
X0161825Y0135570D01*
X0162537Y0133852D01*
X0163852Y0132537D01*
X0165570Y0131825D01*
X0167430Y0131825D01*
X0169148Y0132537D01*
X0170463Y0133852D01*
X0171175Y0135570D01*
X0171175Y0137430D01*
X0170463Y0139148D01*
X0169148Y0140463D01*
X0167430Y0141175D01*
X0165570Y0141175D01*
X0164344Y0140667D01*
X0198204Y0174527D01*
X0198600Y0175483D01*
X0198454Y0175129D02*
X0198900Y0175129D01*
X0198900Y0174131D02*
X0197808Y0174131D01*
X0196809Y0173132D02*
X0198900Y0173132D01*
X0198900Y0172134D02*
X0195811Y0172134D01*
X0194812Y0171135D02*
X0198900Y0171135D01*
X0198900Y0170137D02*
X0193814Y0170137D01*
X0192815Y0169138D02*
X0198900Y0169138D01*
X0198900Y0168140D02*
X0191817Y0168140D01*
X0190818Y0167141D02*
X0198900Y0167141D01*
X0198900Y0166143D02*
X0189820Y0166143D01*
X0188821Y0165144D02*
X0198900Y0165144D01*
X0198900Y0164146D02*
X0187823Y0164146D01*
X0186824Y0163147D02*
X0198900Y0163147D01*
X0198900Y0162149D02*
X0185826Y0162149D01*
X0184827Y0161150D02*
X0198900Y0161150D01*
X0198900Y0160152D02*
X0183829Y0160152D01*
X0182830Y0159153D02*
X0198900Y0159153D01*
X0198900Y0158155D02*
X0181832Y0158155D01*
X0180833Y0157156D02*
X0198900Y0157156D01*
X0198900Y0156158D02*
X0179835Y0156158D01*
X0178836Y0155159D02*
X0198900Y0155159D01*
X0198900Y0154161D02*
X0177838Y0154161D01*
X0176839Y0153162D02*
X0198900Y0153162D01*
X0198900Y0152164D02*
X0175841Y0152164D01*
X0174842Y0151165D02*
X0198900Y0151165D01*
X0198900Y0150167D02*
X0173843Y0150167D01*
X0172845Y0149168D02*
X0198900Y0149168D01*
X0198900Y0148170D02*
X0171846Y0148170D01*
X0170848Y0147171D02*
X0198900Y0147171D01*
X0198900Y0146172D02*
X0169849Y0146172D01*
X0168851Y0145174D02*
X0198900Y0145174D01*
X0198900Y0144175D02*
X0167852Y0144175D01*
X0166854Y0143177D02*
X0198900Y0143177D01*
X0198900Y0142178D02*
X0165855Y0142178D01*
X0164857Y0141180D02*
X0198900Y0141180D01*
X0198900Y0140181D02*
X0189430Y0140181D01*
X0189148Y0140463D02*
X0187430Y0141175D01*
X0185570Y0141175D01*
X0183852Y0140463D01*
X0182537Y0139148D01*
X0181825Y0137430D01*
X0181825Y0135570D01*
X0182537Y0133852D01*
X0183852Y0132537D01*
X0185570Y0131825D01*
X0187430Y0131825D01*
X0189148Y0132537D01*
X0190463Y0133852D01*
X0191175Y0135570D01*
X0191175Y0137430D01*
X0190463Y0139148D01*
X0189148Y0140463D01*
X0190428Y0139183D02*
X0198900Y0139183D01*
X0198900Y0138184D02*
X0190862Y0138184D01*
X0191175Y0137186D02*
X0198009Y0137186D01*
X0197010Y0136187D02*
X0191175Y0136187D01*
X0191017Y0135189D02*
X0196012Y0135189D01*
X0195013Y0134190D02*
X0190603Y0134190D01*
X0189803Y0133192D02*
X0194015Y0133192D01*
X0193016Y0132193D02*
X0188319Y0132193D01*
X0191019Y0130196D02*
X0183741Y0130196D01*
X0185074Y0129198D02*
X0190021Y0129198D01*
X0192018Y0131195D02*
X0125482Y0131195D01*
X0124681Y0132193D02*
X0124484Y0132193D01*
X0126481Y0130196D02*
X0180259Y0130196D01*
X0178926Y0129198D02*
X0127479Y0129198D01*
X0128478Y0128199D02*
X0178287Y0128199D01*
X0177919Y0127201D02*
X0129476Y0127201D01*
X0130475Y0126202D02*
X0177919Y0126202D01*
X0178120Y0125204D02*
X0131473Y0125204D01*
X0132472Y0124205D02*
X0178533Y0124205D01*
X0179522Y0123207D02*
X0133470Y0123207D01*
X0134469Y0122208D02*
X0234900Y0122208D01*
X0234900Y0121210D02*
X0135467Y0121210D01*
X0136466Y0120211D02*
X0234900Y0120211D01*
X0234900Y0119213D02*
X0137464Y0119213D01*
X0137000Y0116000D02*
X0197500Y0116000D01*
X0216000Y0097500D01*
X0231000Y0097500D01*
X0235000Y0093500D01*
X0235000Y0077500D01*
X0222000Y0064500D01*
X0180000Y0064500D01*
X0172000Y0072500D01*
X0169007Y0075278D02*
X0107955Y0075278D01*
X0106957Y0074280D02*
X0168320Y0074280D01*
X0167919Y0073281D02*
X0105958Y0073281D01*
X0104960Y0072283D02*
X0167919Y0072283D01*
X0168086Y0071284D02*
X0152654Y0071284D01*
X0152005Y0071553D02*
X0153862Y0070784D01*
X0155284Y0069362D01*
X0156053Y0067505D01*
X0156053Y0065495D01*
X0155284Y0063638D01*
X0153862Y0062216D01*
X0152005Y0061447D01*
X0149995Y0061447D01*
X0148138Y0062216D01*
X0146716Y0063638D01*
X0145947Y0065495D01*
X0145947Y0067505D01*
X0146716Y0069362D01*
X0148138Y0070784D01*
X0149995Y0071553D01*
X0152005Y0071553D01*
X0149346Y0071284D02*
X0103961Y0071284D01*
X0102963Y0070286D02*
X0147640Y0070286D01*
X0146685Y0069287D02*
X0101964Y0069287D01*
X0100966Y0068289D02*
X0146272Y0068289D01*
X0145947Y0067290D02*
X0099967Y0067290D01*
X0098969Y0066292D02*
X0145947Y0066292D01*
X0146031Y0065293D02*
X0097970Y0065293D01*
X0096972Y0064295D02*
X0146444Y0064295D01*
X0147058Y0063296D02*
X0095973Y0063296D01*
X0094974Y0062298D02*
X0148057Y0062298D01*
X0153943Y0062298D02*
X0171121Y0062298D01*
X0172119Y0063296D02*
X0154942Y0063296D01*
X0155556Y0064295D02*
X0173245Y0064295D01*
X0174531Y0066292D02*
X0156053Y0066292D01*
X0156053Y0067290D02*
X0173533Y0067290D01*
X0172534Y0068289D02*
X0155728Y0068289D01*
X0155315Y0069287D02*
X0169441Y0069287D01*
X0168500Y0070286D02*
X0154360Y0070286D01*
X0155969Y0065293D02*
X0175530Y0065293D01*
X0174500Y0062000D02*
X0170000Y0057500D01*
X0170000Y0056000D01*
X0166283Y0054309D02*
X0095759Y0054309D01*
X0096829Y0053311D02*
X0166918Y0053311D01*
X0168238Y0052312D02*
X0097827Y0052312D01*
X0093349Y0055308D02*
X0165919Y0055308D01*
X0165919Y0056306D02*
X0039967Y0056306D01*
X0038483Y0057305D02*
X0166123Y0057305D01*
X0166537Y0058303D02*
X0036275Y0058303D01*
X0029725Y0058303D02*
X0024500Y0058303D01*
X0024500Y0057305D02*
X0027517Y0057305D01*
X0026033Y0056306D02*
X0024500Y0056306D01*
X0024500Y0055308D02*
X0025034Y0055308D01*
X0024500Y0059302D02*
X0060521Y0059302D01*
X0060527Y0059296D02*
X0060588Y0059271D01*
X0060637Y0059226D01*
X0061064Y0059073D01*
X0061483Y0058900D01*
X0061549Y0058900D01*
X0061611Y0058878D01*
X0062064Y0058900D01*
X0091017Y0058900D01*
X0091973Y0059296D01*
X0111577Y0078900D01*
X0137828Y0078900D01*
X0138688Y0078040D01*
X0140188Y0077419D01*
X0141812Y0077419D01*
X0143312Y0078040D01*
X0144460Y0079188D01*
X0145081Y0080688D01*
X0145081Y0082312D01*
X0144460Y0083812D01*
X0143312Y0084960D01*
X0141812Y0085581D01*
X0141703Y0085581D01*
X0142812Y0086040D01*
X0143960Y0087188D01*
X0144581Y0088688D01*
X0144581Y0090312D01*
X0143960Y0091812D01*
X0142812Y0092960D01*
X0141312Y0093581D01*
X0139688Y0093581D01*
X0138527Y0093100D01*
X0082172Y0093100D01*
X0081312Y0093960D01*
X0079812Y0094581D01*
X0078188Y0094581D01*
X0076688Y0093960D01*
X0075540Y0092812D01*
X0074919Y0091312D01*
X0074919Y0089688D01*
X0075540Y0088188D01*
X0076688Y0087040D01*
X0078188Y0086419D01*
X0079812Y0086419D01*
X0081312Y0087040D01*
X0082172Y0087900D01*
X0136745Y0087900D01*
X0137040Y0087188D01*
X0138188Y0086040D01*
X0139688Y0085419D01*
X0139797Y0085419D01*
X0138688Y0084960D01*
X0137828Y0084100D01*
X0109983Y0084100D01*
X0109027Y0083704D01*
X0108296Y0082973D01*
X0089423Y0064100D01*
X0063003Y0064100D01*
X0032600Y0091653D01*
X0032600Y0125128D01*
X0033188Y0124540D01*
X0034688Y0123919D01*
X0036312Y0123919D01*
X0037812Y0124540D01*
X0038960Y0125688D01*
X0039581Y0127188D01*
X0039581Y0128812D01*
X0038960Y0130312D01*
X0038600Y0130672D01*
X0038600Y0139423D01*
X0053704Y0154527D01*
X0054100Y0155483D01*
X0054100Y0184676D01*
X0057845Y0187400D01*
X0075680Y0187400D01*
X0077419Y0186183D01*
X0077419Y0185688D01*
X0078040Y0184188D01*
X0079188Y0183040D01*
X0080688Y0182419D01*
X0082312Y0182419D01*
X0083812Y0183040D01*
X0084960Y0184188D01*
X0085581Y0185688D01*
X0085581Y0187312D01*
X0084960Y0188812D01*
X0084872Y0188900D01*
X0090423Y0188900D01*
X0102027Y0177296D01*
X0102983Y0176900D01*
X0119828Y0176900D01*
X0120688Y0176040D01*
X0122188Y0175419D01*
X0123812Y0175419D01*
X0125312Y0176040D01*
X0126460Y0177188D01*
X0127081Y0178688D01*
X0127081Y0180312D01*
X0126460Y0181812D01*
X0125312Y0182960D01*
X0123812Y0183581D01*
X0122188Y0183581D01*
X0120688Y0182960D01*
X0119828Y0182100D01*
X0104577Y0182100D01*
X0094344Y0192333D01*
X0095570Y0191825D01*
X0097430Y0191825D01*
X0099148Y0192537D01*
X0100463Y0193852D01*
X0101175Y0195570D01*
X0101175Y0197430D01*
X0100463Y0199148D01*
X0099148Y0200463D01*
X0097430Y0201175D01*
X0095570Y0201175D01*
X0093852Y0200463D01*
X0092537Y0199148D01*
X0091825Y0197430D01*
X0091825Y0195570D01*
X0092521Y0193891D01*
X0092017Y0194100D01*
X0090566Y0194100D01*
X0091175Y0195570D01*
X0091175Y0197430D01*
X0090463Y0199148D01*
X0089148Y0200463D01*
X0087430Y0201175D01*
X0085570Y0201175D01*
X0083852Y0200463D01*
X0082537Y0199148D01*
X0081825Y0197430D01*
X0081825Y0195570D01*
X0082333Y0194344D01*
X0081155Y0195522D01*
X0081175Y0195570D01*
X0081175Y0197430D01*
X0080463Y0199148D01*
X0079148Y0200463D01*
X0077430Y0201175D01*
X0075570Y0201175D01*
X0073852Y0200463D01*
X0072537Y0199148D01*
X0071825Y0197430D01*
X0071825Y0195570D01*
X0072537Y0193852D01*
X0073789Y0192600D01*
X0069211Y0192600D01*
X0070463Y0193852D01*
X0071175Y0195570D01*
X0071175Y0197430D01*
X0070463Y0199148D01*
X0069148Y0200463D01*
X0067430Y0201175D01*
X0065570Y0201175D01*
X0063852Y0200463D01*
X0062537Y0199148D01*
X0061825Y0197430D01*
X0061825Y0195570D01*
X0062537Y0193852D01*
X0063789Y0192600D01*
X0059211Y0192600D01*
X0060463Y0193852D01*
X0061175Y0195570D01*
X0061175Y0197430D01*
X0060463Y0199148D01*
X0059148Y0200463D01*
X0057430Y0201175D01*
X0055570Y0201175D01*
X0053852Y0200463D01*
X0052537Y0199148D01*
X0051825Y0197430D01*
X0051825Y0195570D01*
X0052537Y0193852D01*
X0053852Y0192537D01*
X0055264Y0191952D01*
X0050220Y0188284D01*
X0050027Y0188204D01*
X0049806Y0187983D01*
X0049552Y0187799D01*
X0049443Y0187620D01*
X0049296Y0187473D01*
X0049176Y0187183D01*
X0049012Y0186916D01*
X0048980Y0186710D01*
X0048900Y0186517D01*
X0048900Y0186204D01*
X0048851Y0185895D01*
X0048900Y0185692D01*
X0048900Y0157077D01*
X0034081Y0142258D01*
X0034081Y0142812D01*
X0033460Y0144312D01*
X0032312Y0145460D01*
X0030812Y0146081D01*
X0029188Y0146081D01*
X0027688Y0145460D01*
X0026540Y0144312D01*
X0025919Y0142812D01*
X0025919Y0141188D01*
X0026540Y0139688D01*
X0027400Y0138828D01*
X0027400Y0090951D01*
X0027378Y0090889D01*
X0027400Y0090436D01*
X0027400Y0089983D01*
X0027425Y0089922D01*
X0027429Y0089856D01*
X0027622Y0089446D01*
X0027796Y0089027D01*
X0027843Y0088980D01*
X0027871Y0088921D01*
X0028207Y0088616D01*
X0028527Y0088296D01*
X0028588Y0088271D01*
X0060207Y0059616D01*
X0060527Y0059296D01*
X0059452Y0060301D02*
X0024500Y0060301D01*
X0024500Y0061299D02*
X0058350Y0061299D01*
X0057248Y0062298D02*
X0024500Y0062298D01*
X0024500Y0063296D02*
X0056146Y0063296D01*
X0055045Y0064295D02*
X0024500Y0064295D01*
X0024500Y0065293D02*
X0053943Y0065293D01*
X0052841Y0066292D02*
X0024500Y0066292D01*
X0024500Y0067290D02*
X0051739Y0067290D01*
X0050637Y0068289D02*
X0024500Y0068289D01*
X0024500Y0069287D02*
X0049535Y0069287D01*
X0048434Y0070286D02*
X0024500Y0070286D01*
X0024500Y0071284D02*
X0047332Y0071284D01*
X0046230Y0072283D02*
X0024500Y0072283D01*
X0024500Y0073281D02*
X0045128Y0073281D01*
X0044026Y0074280D02*
X0024500Y0074280D01*
X0024500Y0075278D02*
X0042925Y0075278D01*
X0041823Y0076277D02*
X0024500Y0076277D01*
X0024500Y0077275D02*
X0040721Y0077275D01*
X0039619Y0078274D02*
X0024500Y0078274D01*
X0024500Y0079272D02*
X0038517Y0079272D01*
X0037416Y0080271D02*
X0024500Y0080271D01*
X0024500Y0081269D02*
X0036314Y0081269D01*
X0035212Y0082268D02*
X0024500Y0082268D01*
X0024500Y0083266D02*
X0034110Y0083266D01*
X0033008Y0084265D02*
X0024500Y0084265D01*
X0024500Y0085263D02*
X0031907Y0085263D01*
X0030805Y0086262D02*
X0024500Y0086262D01*
X0024500Y0087260D02*
X0029703Y0087260D01*
X0028601Y0088259D02*
X0024500Y0088259D01*
X0024500Y0089257D02*
X0027701Y0089257D01*
X0027400Y0090256D02*
X0024500Y0090256D01*
X0024500Y0091254D02*
X0027400Y0091254D01*
X0027400Y0092253D02*
X0024500Y0092253D01*
X0024500Y0093251D02*
X0027400Y0093251D01*
X0027400Y0094250D02*
X0024500Y0094250D01*
X0024500Y0095248D02*
X0027400Y0095248D01*
X0027400Y0096247D02*
X0024500Y0096247D01*
X0024500Y0097245D02*
X0027400Y0097245D01*
X0027400Y0098244D02*
X0024500Y0098244D01*
X0024500Y0099242D02*
X0027400Y0099242D01*
X0027400Y0100241D02*
X0024500Y0100241D01*
X0024500Y0101239D02*
X0027400Y0101239D01*
X0027400Y0102238D02*
X0024500Y0102238D01*
X0024500Y0103237D02*
X0027400Y0103237D01*
X0027400Y0104235D02*
X0024500Y0104235D01*
X0024500Y0105234D02*
X0027400Y0105234D01*
X0027400Y0106232D02*
X0024500Y0106232D01*
X0024500Y0107231D02*
X0027400Y0107231D01*
X0027400Y0108229D02*
X0024500Y0108229D01*
X0024500Y0109228D02*
X0027400Y0109228D01*
X0027400Y0110226D02*
X0024500Y0110226D01*
X0024500Y0111225D02*
X0027400Y0111225D01*
X0027400Y0112223D02*
X0024500Y0112223D01*
X0024500Y0113222D02*
X0027400Y0113222D01*
X0027400Y0114220D02*
X0024500Y0114220D01*
X0024500Y0115219D02*
X0027400Y0115219D01*
X0027400Y0116217D02*
X0024500Y0116217D01*
X0024500Y0117216D02*
X0027400Y0117216D01*
X0027400Y0118214D02*
X0024500Y0118214D01*
X0024500Y0119213D02*
X0027400Y0119213D01*
X0027400Y0120211D02*
X0024500Y0120211D01*
X0024500Y0121210D02*
X0027400Y0121210D01*
X0027400Y0122208D02*
X0024500Y0122208D01*
X0024500Y0123207D02*
X0027400Y0123207D01*
X0027400Y0124205D02*
X0024500Y0124205D01*
X0024500Y0125204D02*
X0027400Y0125204D01*
X0027400Y0126202D02*
X0024500Y0126202D01*
X0024500Y0127201D02*
X0027400Y0127201D01*
X0027400Y0128199D02*
X0024500Y0128199D01*
X0024500Y0129198D02*
X0027400Y0129198D01*
X0027400Y0130196D02*
X0024500Y0130196D01*
X0024500Y0131195D02*
X0027400Y0131195D01*
X0027400Y0132193D02*
X0024500Y0132193D01*
X0024500Y0133192D02*
X0027400Y0133192D01*
X0027400Y0134190D02*
X0024500Y0134190D01*
X0024500Y0135189D02*
X0027400Y0135189D01*
X0027400Y0136187D02*
X0024500Y0136187D01*
X0024500Y0137186D02*
X0027400Y0137186D01*
X0027400Y0138184D02*
X0024500Y0138184D01*
X0024500Y0139183D02*
X0027046Y0139183D01*
X0026336Y0140181D02*
X0024500Y0140181D01*
X0024500Y0141180D02*
X0025922Y0141180D01*
X0025919Y0142178D02*
X0024500Y0142178D01*
X0024500Y0143177D02*
X0026070Y0143177D01*
X0026484Y0144175D02*
X0024500Y0144175D01*
X0024500Y0145174D02*
X0027402Y0145174D01*
X0024500Y0146172D02*
X0037996Y0146172D01*
X0036997Y0145174D02*
X0032598Y0145174D01*
X0033516Y0144175D02*
X0035999Y0144175D01*
X0035000Y0143177D02*
X0033930Y0143177D01*
X0036000Y0140500D02*
X0051500Y0156000D01*
X0051500Y0186000D01*
X0057000Y0190000D01*
X0076500Y0190000D01*
X0081500Y0186500D01*
X0085250Y0188110D02*
X0091213Y0188110D01*
X0092212Y0187111D02*
X0085581Y0187111D01*
X0085581Y0186113D02*
X0093210Y0186113D01*
X0094209Y0185114D02*
X0085343Y0185114D01*
X0084887Y0184116D02*
X0095207Y0184116D01*
X0096206Y0183117D02*
X0083889Y0183117D01*
X0079111Y0183117D02*
X0054100Y0183117D01*
X0054100Y0182119D02*
X0097204Y0182119D01*
X0098203Y0181120D02*
X0054100Y0181120D01*
X0054100Y0180122D02*
X0099201Y0180122D01*
X0100200Y0179123D02*
X0054100Y0179123D01*
X0054100Y0178125D02*
X0101198Y0178125D01*
X0102436Y0177126D02*
X0054100Y0177126D01*
X0054100Y0176128D02*
X0120601Y0176128D01*
X0123000Y0179500D02*
X0103500Y0179500D01*
X0091500Y0191500D01*
X0081500Y0191500D01*
X0076500Y0196500D01*
X0073286Y0193103D02*
X0069714Y0193103D01*
X0070566Y0194101D02*
X0072434Y0194101D01*
X0072020Y0195100D02*
X0070980Y0195100D01*
X0071175Y0196098D02*
X0071825Y0196098D01*
X0071825Y0197097D02*
X0071175Y0197097D01*
X0070899Y0198095D02*
X0072101Y0198095D01*
X0072514Y0199094D02*
X0070486Y0199094D01*
X0069519Y0200092D02*
X0073481Y0200092D01*
X0075367Y0201091D02*
X0067633Y0201091D01*
X0065367Y0201091D02*
X0057633Y0201091D01*
X0059519Y0200092D02*
X0063481Y0200092D01*
X0062514Y0199094D02*
X0060486Y0199094D01*
X0060899Y0198095D02*
X0062101Y0198095D01*
X0061825Y0197097D02*
X0061175Y0197097D01*
X0061175Y0196098D02*
X0061825Y0196098D01*
X0062020Y0195100D02*
X0060980Y0195100D01*
X0060566Y0194101D02*
X0062434Y0194101D01*
X0063286Y0193103D02*
X0059714Y0193103D01*
X0054897Y0192104D02*
X0048103Y0192104D01*
X0047430Y0191825D02*
X0049148Y0192537D01*
X0050463Y0193852D01*
X0051175Y0195570D01*
X0051175Y0197430D01*
X0050463Y0199148D01*
X0049148Y0200463D01*
X0047430Y0201175D01*
X0045570Y0201175D01*
X0043852Y0200463D01*
X0042537Y0199148D01*
X0041825Y0197430D01*
X0041825Y0195570D01*
X0042537Y0193852D01*
X0043852Y0192537D01*
X0045570Y0191825D01*
X0047430Y0191825D01*
X0044897Y0192104D02*
X0024500Y0192104D01*
X0024500Y0191105D02*
X0054100Y0191105D01*
X0052727Y0190107D02*
X0024500Y0190107D01*
X0024500Y0189108D02*
X0051354Y0189108D01*
X0049933Y0188110D02*
X0024500Y0188110D01*
X0024500Y0187111D02*
X0049132Y0187111D01*
X0048886Y0186113D02*
X0024500Y0186113D01*
X0024500Y0185114D02*
X0048900Y0185114D01*
X0048900Y0184116D02*
X0024500Y0184116D01*
X0024500Y0183117D02*
X0048900Y0183117D01*
X0048900Y0182119D02*
X0024500Y0182119D01*
X0024500Y0181120D02*
X0048900Y0181120D01*
X0048900Y0180122D02*
X0024500Y0180122D01*
X0024500Y0179123D02*
X0048900Y0179123D01*
X0048900Y0178125D02*
X0024500Y0178125D01*
X0024500Y0177126D02*
X0048900Y0177126D01*
X0048900Y0176128D02*
X0024500Y0176128D01*
X0024500Y0175129D02*
X0048900Y0175129D01*
X0048900Y0174131D02*
X0024500Y0174131D01*
X0024500Y0173132D02*
X0048900Y0173132D01*
X0048900Y0172134D02*
X0024500Y0172134D01*
X0024500Y0171135D02*
X0048900Y0171135D01*
X0048900Y0170137D02*
X0024500Y0170137D01*
X0024500Y0169138D02*
X0048900Y0169138D01*
X0048900Y0168140D02*
X0024500Y0168140D01*
X0024500Y0167141D02*
X0048900Y0167141D01*
X0048900Y0166143D02*
X0024500Y0166143D01*
X0024500Y0165144D02*
X0048900Y0165144D01*
X0048900Y0164146D02*
X0024500Y0164146D01*
X0024500Y0163147D02*
X0048900Y0163147D01*
X0048900Y0162149D02*
X0024500Y0162149D01*
X0024500Y0161150D02*
X0048900Y0161150D01*
X0048900Y0160152D02*
X0024500Y0160152D01*
X0024500Y0159153D02*
X0048900Y0159153D01*
X0048900Y0158155D02*
X0024500Y0158155D01*
X0024500Y0157156D02*
X0048900Y0157156D01*
X0047981Y0156158D02*
X0024500Y0156158D01*
X0024500Y0155159D02*
X0046982Y0155159D01*
X0045984Y0154161D02*
X0024500Y0154161D01*
X0024500Y0153162D02*
X0044985Y0153162D01*
X0043987Y0152164D02*
X0024500Y0152164D01*
X0024500Y0151165D02*
X0042988Y0151165D01*
X0041990Y0150167D02*
X0024500Y0150167D01*
X0024500Y0149168D02*
X0040991Y0149168D01*
X0039993Y0148170D02*
X0024500Y0148170D01*
X0024500Y0147171D02*
X0038994Y0147171D01*
X0042354Y0143177D02*
X0159500Y0143177D01*
X0160499Y0144175D02*
X0043352Y0144175D01*
X0044351Y0145174D02*
X0161497Y0145174D01*
X0162496Y0146172D02*
X0045349Y0146172D01*
X0046348Y0147171D02*
X0163494Y0147171D01*
X0164493Y0148170D02*
X0047346Y0148170D01*
X0048345Y0149168D02*
X0165491Y0149168D01*
X0166490Y0150167D02*
X0049343Y0150167D01*
X0050342Y0151165D02*
X0167488Y0151165D01*
X0168487Y0152164D02*
X0051341Y0152164D01*
X0052339Y0153162D02*
X0169485Y0153162D01*
X0170484Y0154161D02*
X0053338Y0154161D01*
X0053966Y0155159D02*
X0171482Y0155159D01*
X0172481Y0156158D02*
X0054100Y0156158D01*
X0054100Y0157156D02*
X0068116Y0157156D01*
X0068688Y0156919D02*
X0067188Y0157540D01*
X0066040Y0158688D01*
X0065419Y0160188D01*
X0065419Y0161812D01*
X0066040Y0163312D01*
X0067188Y0164460D01*
X0068688Y0165081D01*
X0069649Y0165081D01*
X0071266Y0166900D01*
X0071296Y0166973D01*
X0071607Y0167284D01*
X0071900Y0167614D01*
X0071971Y0167648D01*
X0076527Y0172204D01*
X0077483Y0172600D01*
X0130923Y0172600D01*
X0143900Y0185577D01*
X0143900Y0192517D01*
X0143852Y0192537D01*
X0142537Y0193852D01*
X0141825Y0195570D01*
X0141825Y0197430D01*
X0142537Y0199148D01*
X0143852Y0200463D01*
X0145570Y0201175D01*
X0147430Y0201175D01*
X0149148Y0200463D01*
X0150463Y0199148D01*
X0151175Y0197430D01*
X0151175Y0195570D01*
X0150463Y0193852D01*
X0149148Y0192537D01*
X0149100Y0192517D01*
X0149100Y0183983D01*
X0148704Y0183027D01*
X0134204Y0168527D01*
X0133473Y0167796D01*
X0132517Y0167400D01*
X0079077Y0167400D01*
X0075393Y0163716D01*
X0073581Y0161678D01*
X0073581Y0160188D01*
X0072960Y0158688D01*
X0071812Y0157540D01*
X0070312Y0156919D01*
X0068688Y0156919D01*
X0070884Y0157156D02*
X0173479Y0157156D01*
X0174478Y0158155D02*
X0072426Y0158155D01*
X0073152Y0159153D02*
X0175476Y0159153D01*
X0176475Y0160152D02*
X0073566Y0160152D01*
X0073581Y0161150D02*
X0177473Y0161150D01*
X0178472Y0162149D02*
X0074000Y0162149D01*
X0074887Y0163147D02*
X0179470Y0163147D01*
X0180469Y0164146D02*
X0075823Y0164146D01*
X0076821Y0165144D02*
X0181467Y0165144D01*
X0182466Y0166143D02*
X0077820Y0166143D01*
X0078818Y0167141D02*
X0183464Y0167141D01*
X0184463Y0168140D02*
X0133817Y0168140D01*
X0134815Y0169138D02*
X0185461Y0169138D01*
X0186460Y0170137D02*
X0135814Y0170137D01*
X0136812Y0171135D02*
X0187458Y0171135D01*
X0188457Y0172134D02*
X0137811Y0172134D01*
X0138809Y0173132D02*
X0189455Y0173132D01*
X0190454Y0174131D02*
X0139808Y0174131D01*
X0140806Y0175129D02*
X0191452Y0175129D01*
X0192451Y0176128D02*
X0141805Y0176128D01*
X0142803Y0177126D02*
X0193400Y0177126D01*
X0193400Y0178125D02*
X0143802Y0178125D01*
X0144800Y0179123D02*
X0193400Y0179123D01*
X0193400Y0180122D02*
X0145799Y0180122D01*
X0146797Y0181120D02*
X0193400Y0181120D01*
X0193400Y0182119D02*
X0147796Y0182119D01*
X0148742Y0183117D02*
X0193400Y0183117D01*
X0193400Y0184116D02*
X0149100Y0184116D01*
X0149100Y0185114D02*
X0193400Y0185114D01*
X0193400Y0186113D02*
X0149100Y0186113D01*
X0149100Y0187111D02*
X0193400Y0187111D01*
X0193400Y0188110D02*
X0149100Y0188110D01*
X0149100Y0189108D02*
X0193400Y0189108D01*
X0193400Y0190107D02*
X0149100Y0190107D01*
X0149100Y0191105D02*
X0193400Y0191105D01*
X0193400Y0192104D02*
X0188103Y0192104D01*
X0187430Y0191825D02*
X0189148Y0192537D01*
X0190463Y0193852D01*
X0191175Y0195570D01*
X0191175Y0197430D01*
X0190463Y0199148D01*
X0189148Y0200463D01*
X0187430Y0201175D01*
X0185570Y0201175D01*
X0183852Y0200463D01*
X0182537Y0199148D01*
X0181825Y0197430D01*
X0181825Y0195570D01*
X0182537Y0193852D01*
X0183852Y0192537D01*
X0185570Y0191825D01*
X0187430Y0191825D01*
X0184897Y0192104D02*
X0178103Y0192104D01*
X0177430Y0191825D02*
X0179148Y0192537D01*
X0180463Y0193852D01*
X0181175Y0195570D01*
X0181175Y0197430D01*
X0180463Y0199148D01*
X0179148Y0200463D01*
X0177430Y0201175D01*
X0175570Y0201175D01*
X0173852Y0200463D01*
X0172537Y0199148D01*
X0171825Y0197430D01*
X0171825Y0195570D01*
X0172537Y0193852D01*
X0173852Y0192537D01*
X0175570Y0191825D01*
X0177430Y0191825D01*
X0174897Y0192104D02*
X0168103Y0192104D01*
X0167430Y0191825D02*
X0169148Y0192537D01*
X0170463Y0193852D01*
X0171175Y0195570D01*
X0171175Y0197430D01*
X0170463Y0199148D01*
X0169148Y0200463D01*
X0167430Y0201175D01*
X0165570Y0201175D01*
X0163852Y0200463D01*
X0162537Y0199148D01*
X0161825Y0197430D01*
X0161825Y0195570D01*
X0162537Y0193852D01*
X0163852Y0192537D01*
X0165570Y0191825D01*
X0167430Y0191825D01*
X0164897Y0192104D02*
X0149100Y0192104D01*
X0149714Y0193103D02*
X0154244Y0193103D01*
X0154364Y0193015D02*
X0154936Y0192724D01*
X0155546Y0192526D01*
X0156179Y0192425D01*
X0156213Y0192425D01*
X0156213Y0196213D01*
X0156787Y0196213D01*
X0156787Y0192425D01*
X0156821Y0192425D01*
X0157454Y0192526D01*
X0158064Y0192724D01*
X0158636Y0193015D01*
X0159155Y0193392D01*
X0159608Y0193845D01*
X0159985Y0194364D01*
X0160276Y0194936D01*
X0160474Y0195546D01*
X0160575Y0196179D01*
X0160575Y0196213D01*
X0156787Y0196213D01*
X0156787Y0196787D01*
X0160575Y0196787D01*
X0160575Y0196821D01*
X0160474Y0197454D01*
X0160276Y0198064D01*
X0159985Y0198636D01*
X0159608Y0199155D01*
X0159155Y0199608D01*
X0158636Y0199985D01*
X0158064Y0200276D01*
X0157454Y0200474D01*
X0156821Y0200575D01*
X0156787Y0200575D01*
X0156787Y0196787D01*
X0156213Y0196787D01*
X0156213Y0196213D01*
X0152425Y0196213D01*
X0152425Y0196179D01*
X0152526Y0195546D01*
X0152724Y0194936D01*
X0153015Y0194364D01*
X0153392Y0193845D01*
X0153845Y0193392D01*
X0154364Y0193015D01*
X0153206Y0194101D02*
X0150566Y0194101D01*
X0150980Y0195100D02*
X0152671Y0195100D01*
X0152438Y0196098D02*
X0151175Y0196098D01*
X0151175Y0197097D02*
X0152469Y0197097D01*
X0152425Y0196821D02*
X0152526Y0197454D01*
X0152724Y0198064D01*
X0153015Y0198636D01*
X0153392Y0199155D01*
X0153845Y0199608D01*
X0154364Y0199985D01*
X0154936Y0200276D01*
X0155546Y0200474D01*
X0156179Y0200575D01*
X0156213Y0200575D01*
X0156213Y0196787D01*
X0152425Y0196787D01*
X0152425Y0196821D01*
X0152739Y0198095D02*
X0150899Y0198095D01*
X0150486Y0199094D02*
X0153348Y0199094D01*
X0154574Y0200092D02*
X0149519Y0200092D01*
X0147633Y0201091D02*
X0165367Y0201091D01*
X0163481Y0200092D02*
X0158426Y0200092D01*
X0159652Y0199094D02*
X0162514Y0199094D01*
X0162101Y0198095D02*
X0160261Y0198095D01*
X0160531Y0197097D02*
X0161825Y0197097D01*
X0161825Y0196098D02*
X0160562Y0196098D01*
X0160329Y0195100D02*
X0162020Y0195100D01*
X0162434Y0194101D02*
X0159794Y0194101D01*
X0158756Y0193103D02*
X0163286Y0193103D01*
X0169714Y0193103D02*
X0173286Y0193103D01*
X0172434Y0194101D02*
X0170566Y0194101D01*
X0170980Y0195100D02*
X0172020Y0195100D01*
X0171825Y0196098D02*
X0171175Y0196098D01*
X0171175Y0197097D02*
X0171825Y0197097D01*
X0172101Y0198095D02*
X0170899Y0198095D01*
X0170486Y0199094D02*
X0172514Y0199094D01*
X0173481Y0200092D02*
X0169519Y0200092D01*
X0167633Y0201091D02*
X0175367Y0201091D01*
X0177633Y0201091D02*
X0185367Y0201091D01*
X0183481Y0200092D02*
X0179519Y0200092D01*
X0180486Y0199094D02*
X0182514Y0199094D01*
X0182101Y0198095D02*
X0180899Y0198095D01*
X0181175Y0197097D02*
X0181825Y0197097D01*
X0181825Y0196098D02*
X0181175Y0196098D01*
X0180980Y0195100D02*
X0182020Y0195100D01*
X0182434Y0194101D02*
X0180566Y0194101D01*
X0179714Y0193103D02*
X0183286Y0193103D01*
X0189714Y0193103D02*
X0193400Y0193103D01*
X0193400Y0194101D02*
X0190566Y0194101D01*
X0190980Y0195100D02*
X0193400Y0195100D01*
X0193400Y0196098D02*
X0191175Y0196098D01*
X0191175Y0197097D02*
X0193400Y0197097D01*
X0193228Y0198095D02*
X0190899Y0198095D01*
X0190486Y0199094D02*
X0192229Y0199094D01*
X0191231Y0200092D02*
X0189519Y0200092D01*
X0190232Y0201091D02*
X0187633Y0201091D01*
X0190500Y0204500D02*
X0196000Y0199000D01*
X0196000Y0176000D01*
X0156500Y0136500D01*
X0159803Y0133192D02*
X0163197Y0133192D01*
X0162397Y0134190D02*
X0160603Y0134190D01*
X0161017Y0135189D02*
X0161983Y0135189D01*
X0161825Y0136187D02*
X0161175Y0136187D01*
X0161175Y0137186D02*
X0161825Y0137186D01*
X0161861Y0138184D02*
X0162138Y0138184D01*
X0158502Y0142178D02*
X0041355Y0142178D01*
X0040357Y0141180D02*
X0157503Y0141180D01*
X0153570Y0140181D02*
X0149430Y0140181D01*
X0149148Y0140463D02*
X0150463Y0139148D01*
X0151175Y0137430D01*
X0151175Y0135570D01*
X0150463Y0133852D01*
X0149148Y0132537D01*
X0147430Y0131825D01*
X0145570Y0131825D01*
X0143852Y0132537D01*
X0142537Y0133852D01*
X0141825Y0135570D01*
X0141825Y0137430D01*
X0142537Y0139148D01*
X0143852Y0140463D01*
X0145570Y0141175D01*
X0147430Y0141175D01*
X0149148Y0140463D01*
X0150428Y0139183D02*
X0152572Y0139183D01*
X0152138Y0138184D02*
X0150862Y0138184D01*
X0151175Y0137186D02*
X0151825Y0137186D01*
X0151825Y0136187D02*
X0151175Y0136187D01*
X0151017Y0135189D02*
X0151983Y0135189D01*
X0152397Y0134190D02*
X0150603Y0134190D01*
X0149803Y0133192D02*
X0153197Y0133192D01*
X0154681Y0132193D02*
X0148319Y0132193D01*
X0144681Y0132193D02*
X0138319Y0132193D01*
X0139148Y0132537D02*
X0140463Y0133852D01*
X0141175Y0135570D01*
X0141175Y0137430D01*
X0140463Y0139148D01*
X0139148Y0140463D01*
X0137430Y0141175D01*
X0135570Y0141175D01*
X0133852Y0140463D01*
X0132537Y0139148D01*
X0131825Y0137430D01*
X0131825Y0135570D01*
X0132537Y0133852D01*
X0133852Y0132537D01*
X0135570Y0131825D01*
X0137430Y0131825D01*
X0139148Y0132537D01*
X0139803Y0133192D02*
X0143197Y0133192D01*
X0142397Y0134190D02*
X0140603Y0134190D01*
X0141017Y0135189D02*
X0141983Y0135189D01*
X0141825Y0136187D02*
X0141175Y0136187D01*
X0141175Y0137186D02*
X0141825Y0137186D01*
X0142138Y0138184D02*
X0140862Y0138184D01*
X0140428Y0139183D02*
X0142572Y0139183D01*
X0143570Y0140181D02*
X0139430Y0140181D01*
X0133570Y0140181D02*
X0129430Y0140181D01*
X0130428Y0139183D02*
X0132572Y0139183D01*
X0132138Y0138184D02*
X0130862Y0138184D01*
X0131175Y0137186D02*
X0131825Y0137186D01*
X0131825Y0136187D02*
X0131175Y0136187D01*
X0131017Y0135189D02*
X0131983Y0135189D01*
X0132397Y0134190D02*
X0130603Y0134190D01*
X0129803Y0133192D02*
X0133197Y0133192D01*
X0134681Y0132193D02*
X0128319Y0132193D01*
X0121983Y0135189D02*
X0121488Y0135189D01*
X0121175Y0136187D02*
X0121825Y0136187D01*
X0121825Y0137186D02*
X0121175Y0137186D01*
X0120862Y0138184D02*
X0122138Y0138184D01*
X0122572Y0139183D02*
X0120428Y0139183D01*
X0119430Y0140181D02*
X0123570Y0140181D01*
X0116500Y0136500D02*
X0137000Y0116000D01*
X0135103Y0114220D02*
X0099457Y0114220D01*
X0098458Y0115219D02*
X0134104Y0115219D01*
X0133106Y0116217D02*
X0097460Y0116217D01*
X0096461Y0117216D02*
X0132107Y0117216D01*
X0131109Y0118214D02*
X0095463Y0118214D01*
X0094464Y0119213D02*
X0130110Y0119213D01*
X0129112Y0120211D02*
X0093466Y0120211D01*
X0092467Y0121210D02*
X0128113Y0121210D01*
X0127115Y0122208D02*
X0091469Y0122208D01*
X0090470Y0123207D02*
X0126116Y0123207D01*
X0125118Y0124205D02*
X0089472Y0124205D01*
X0089100Y0125204D02*
X0124119Y0125204D01*
X0123121Y0126202D02*
X0089100Y0126202D01*
X0089100Y0127201D02*
X0122122Y0127201D01*
X0121124Y0128199D02*
X0089100Y0128199D01*
X0089100Y0129198D02*
X0120125Y0129198D01*
X0119127Y0130196D02*
X0089100Y0130196D01*
X0089100Y0131195D02*
X0118128Y0131195D01*
X0114681Y0132193D02*
X0108319Y0132193D01*
X0109148Y0132537D02*
X0107430Y0131825D01*
X0105570Y0131825D01*
X0103852Y0132537D01*
X0102537Y0133852D01*
X0101825Y0135570D01*
X0101825Y0137430D01*
X0102537Y0139148D01*
X0103852Y0140463D01*
X0105570Y0141175D01*
X0107430Y0141175D01*
X0109148Y0140463D01*
X0110463Y0139148D01*
X0111175Y0137430D01*
X0111175Y0135570D01*
X0110463Y0133852D01*
X0109148Y0132537D01*
X0109803Y0133192D02*
X0113197Y0133192D01*
X0112397Y0134190D02*
X0110603Y0134190D01*
X0111017Y0135189D02*
X0111983Y0135189D01*
X0111825Y0136187D02*
X0111175Y0136187D01*
X0111175Y0137186D02*
X0111825Y0137186D01*
X0112138Y0138184D02*
X0110862Y0138184D01*
X0110428Y0139183D02*
X0112572Y0139183D01*
X0113570Y0140181D02*
X0109430Y0140181D01*
X0103570Y0140181D02*
X0099430Y0140181D01*
X0099148Y0140463D02*
X0097430Y0141175D01*
X0095570Y0141175D01*
X0093852Y0140463D01*
X0092537Y0139148D01*
X0091825Y0137430D01*
X0091825Y0135570D01*
X0092537Y0133852D01*
X0093852Y0132537D01*
X0095570Y0131825D01*
X0097430Y0131825D01*
X0099148Y0132537D01*
X0100463Y0133852D01*
X0101175Y0135570D01*
X0101175Y0137430D01*
X0100463Y0139148D01*
X0099148Y0140463D01*
X0100428Y0139183D02*
X0102572Y0139183D01*
X0102138Y0138184D02*
X0100862Y0138184D01*
X0101175Y0137186D02*
X0101825Y0137186D01*
X0101825Y0136187D02*
X0101175Y0136187D01*
X0101017Y0135189D02*
X0101983Y0135189D01*
X0102397Y0134190D02*
X0100603Y0134190D01*
X0099803Y0133192D02*
X0103197Y0133192D01*
X0104681Y0132193D02*
X0098319Y0132193D01*
X0094681Y0132193D02*
X0089100Y0132193D01*
X0089803Y0133192D02*
X0093197Y0133192D01*
X0092397Y0134190D02*
X0090603Y0134190D01*
X0091017Y0135189D02*
X0091983Y0135189D01*
X0091825Y0136187D02*
X0091175Y0136187D01*
X0091175Y0137186D02*
X0091825Y0137186D01*
X0092138Y0138184D02*
X0090862Y0138184D01*
X0090428Y0139183D02*
X0092572Y0139183D01*
X0093570Y0140181D02*
X0089430Y0140181D01*
X0086500Y0136500D02*
X0086500Y0123500D01*
X0098500Y0111500D01*
X0181500Y0111500D01*
X0204500Y0088500D01*
X0204500Y0076366D01*
X0199166Y0073982D02*
X0199549Y0073058D01*
X0201192Y0071415D01*
X0203338Y0070526D01*
X0205662Y0070526D01*
X0207808Y0071415D01*
X0209451Y0073058D01*
X0209500Y0073176D01*
X0209549Y0073058D01*
X0211192Y0071415D01*
X0213338Y0070526D01*
X0215662Y0070526D01*
X0217808Y0071415D01*
X0219451Y0073058D01*
X0220340Y0075204D01*
X0220340Y0077528D01*
X0219451Y0079674D01*
X0217808Y0081317D01*
X0215662Y0082206D01*
X0213338Y0082206D01*
X0211192Y0081317D01*
X0209549Y0079674D01*
X0209500Y0079556D01*
X0209451Y0079674D01*
X0207808Y0081317D01*
X0207100Y0081611D01*
X0207100Y0089017D01*
X0206704Y0089973D01*
X0183704Y0112973D01*
X0183277Y0113400D01*
X0196423Y0113400D01*
X0213796Y0096027D01*
X0214527Y0095296D01*
X0215483Y0094900D01*
X0229923Y0094900D01*
X0232400Y0092423D01*
X0232400Y0090545D01*
X0232312Y0090581D01*
X0230688Y0090581D01*
X0229188Y0089960D01*
X0228040Y0088812D01*
X0227419Y0087312D01*
X0227419Y0085688D01*
X0228040Y0084188D01*
X0228900Y0083328D01*
X0228900Y0079077D01*
X0219423Y0069600D01*
X0184077Y0069600D01*
X0183018Y0070658D01*
X0183338Y0070526D01*
X0185662Y0070526D01*
X0187808Y0071415D01*
X0189451Y0073058D01*
X0189834Y0073982D01*
X0190018Y0073620D01*
X0190503Y0072952D01*
X0191086Y0072369D01*
X0191754Y0071884D01*
X0192488Y0071510D01*
X0193273Y0071255D01*
X0194000Y0071140D01*
X0194000Y0075866D01*
X0195000Y0075866D01*
X0195000Y0071140D01*
X0195727Y0071255D01*
X0196512Y0071510D01*
X0197246Y0071884D01*
X0197914Y0072369D01*
X0198497Y0072952D01*
X0198982Y0073620D01*
X0199166Y0073982D01*
X0199456Y0073281D02*
X0198736Y0073281D01*
X0197795Y0072283D02*
X0200324Y0072283D01*
X0201508Y0071284D02*
X0195817Y0071284D01*
X0195000Y0071284D02*
X0194000Y0071284D01*
X0193183Y0071284D02*
X0187492Y0071284D01*
X0188676Y0072283D02*
X0191205Y0072283D01*
X0190264Y0073281D02*
X0189543Y0073281D01*
X0194000Y0073281D02*
X0195000Y0073281D01*
X0195000Y0072283D02*
X0194000Y0072283D01*
X0194000Y0074280D02*
X0195000Y0074280D01*
X0195000Y0075278D02*
X0194000Y0075278D01*
X0194000Y0077275D02*
X0195000Y0077275D01*
X0195000Y0078274D02*
X0194000Y0078274D01*
X0194000Y0079272D02*
X0195000Y0079272D01*
X0195000Y0080271D02*
X0194000Y0080271D01*
X0194000Y0081269D02*
X0195000Y0081269D01*
X0196367Y0081269D02*
X0201144Y0081269D01*
X0201900Y0082268D02*
X0171409Y0082268D01*
X0171704Y0081973D02*
X0171704Y0081973D01*
X0172408Y0081269D02*
X0181144Y0081269D01*
X0180145Y0080271D02*
X0173406Y0080271D01*
X0174405Y0079272D02*
X0179382Y0079272D01*
X0178969Y0078274D02*
X0175403Y0078274D01*
X0176402Y0077275D02*
X0178660Y0077275D01*
X0178660Y0076277D02*
X0177400Y0076277D01*
X0178399Y0075278D02*
X0178660Y0075278D01*
X0183391Y0070286D02*
X0220109Y0070286D01*
X0221107Y0071284D02*
X0217492Y0071284D01*
X0218676Y0072283D02*
X0222106Y0072283D01*
X0223104Y0073281D02*
X0219543Y0073281D01*
X0219957Y0074280D02*
X0224103Y0074280D01*
X0225101Y0075278D02*
X0220340Y0075278D01*
X0220340Y0076277D02*
X0226100Y0076277D01*
X0227098Y0077275D02*
X0220340Y0077275D01*
X0220031Y0078274D02*
X0228097Y0078274D01*
X0228900Y0079272D02*
X0219618Y0079272D01*
X0218855Y0080271D02*
X0228900Y0080271D01*
X0228900Y0081269D02*
X0217856Y0081269D01*
X0211144Y0081269D02*
X0207856Y0081269D01*
X0207100Y0082268D02*
X0228900Y0082268D01*
X0228900Y0083266D02*
X0207100Y0083266D01*
X0207100Y0084265D02*
X0228008Y0084265D01*
X0227595Y0085263D02*
X0207100Y0085263D01*
X0207100Y0086262D02*
X0227419Y0086262D01*
X0227419Y0087260D02*
X0207100Y0087260D01*
X0207100Y0088259D02*
X0227811Y0088259D01*
X0228486Y0089257D02*
X0207001Y0089257D01*
X0206421Y0090256D02*
X0229903Y0090256D01*
X0232400Y0091254D02*
X0205423Y0091254D01*
X0204424Y0092253D02*
X0232400Y0092253D01*
X0231572Y0093251D02*
X0203426Y0093251D01*
X0202427Y0094250D02*
X0230573Y0094250D01*
X0233933Y0098244D02*
X0234900Y0098244D01*
X0234900Y0099242D02*
X0232934Y0099242D01*
X0234900Y0100241D02*
X0216936Y0100241D01*
X0215937Y0101239D02*
X0234900Y0101239D01*
X0234900Y0102238D02*
X0214939Y0102238D01*
X0213940Y0103237D02*
X0234900Y0103237D01*
X0234900Y0104235D02*
X0212942Y0104235D01*
X0211943Y0105234D02*
X0234900Y0105234D01*
X0234900Y0106232D02*
X0210945Y0106232D01*
X0209946Y0107231D02*
X0234900Y0107231D01*
X0234900Y0108229D02*
X0208948Y0108229D01*
X0207949Y0109228D02*
X0234900Y0109228D01*
X0234900Y0110226D02*
X0206951Y0110226D01*
X0205952Y0111225D02*
X0234900Y0111225D01*
X0234900Y0112223D02*
X0204954Y0112223D01*
X0203955Y0113222D02*
X0234900Y0113222D01*
X0234900Y0114220D02*
X0202957Y0114220D01*
X0201958Y0115219D02*
X0234900Y0115219D01*
X0234900Y0116217D02*
X0200960Y0116217D01*
X0199961Y0117216D02*
X0234900Y0117216D01*
X0234900Y0118214D02*
X0198949Y0118214D01*
X0196601Y0113222D02*
X0183455Y0113222D01*
X0184454Y0112223D02*
X0197600Y0112223D01*
X0198598Y0111225D02*
X0185452Y0111225D01*
X0186451Y0110226D02*
X0199597Y0110226D01*
X0200595Y0109228D02*
X0187449Y0109228D01*
X0188448Y0108229D02*
X0201594Y0108229D01*
X0202592Y0107231D02*
X0189446Y0107231D01*
X0190445Y0106232D02*
X0203591Y0106232D01*
X0204590Y0105234D02*
X0191443Y0105234D01*
X0192442Y0104235D02*
X0205588Y0104235D01*
X0206587Y0103237D02*
X0193440Y0103237D01*
X0194439Y0102238D02*
X0207585Y0102238D01*
X0208584Y0101239D02*
X0195437Y0101239D01*
X0196436Y0100241D02*
X0209582Y0100241D01*
X0210581Y0099242D02*
X0197434Y0099242D01*
X0198433Y0098244D02*
X0211579Y0098244D01*
X0212578Y0097245D02*
X0199431Y0097245D01*
X0200430Y0096247D02*
X0213576Y0096247D01*
X0214642Y0095248D02*
X0201429Y0095248D01*
X0196072Y0093251D02*
X0142108Y0093251D01*
X0143519Y0092253D02*
X0197070Y0092253D01*
X0198069Y0091254D02*
X0144191Y0091254D01*
X0144581Y0090256D02*
X0199067Y0090256D01*
X0200066Y0089257D02*
X0144581Y0089257D01*
X0144403Y0088259D02*
X0201064Y0088259D01*
X0201900Y0087260D02*
X0143990Y0087260D01*
X0143033Y0086262D02*
X0201900Y0086262D01*
X0201900Y0085263D02*
X0142579Y0085263D01*
X0144007Y0084265D02*
X0151425Y0084265D01*
X0149995Y0083266D02*
X0144686Y0083266D01*
X0145081Y0082268D02*
X0149315Y0082268D01*
X0148919Y0081269D02*
X0145081Y0081269D01*
X0144908Y0080271D02*
X0148919Y0080271D01*
X0149091Y0079272D02*
X0144495Y0079272D01*
X0143545Y0078274D02*
X0149505Y0078274D01*
X0150453Y0077275D02*
X0109952Y0077275D01*
X0108954Y0076277D02*
X0170046Y0076277D01*
X0169048Y0077275D02*
X0155547Y0077275D01*
X0153000Y0080500D02*
X0169500Y0080500D01*
X0183000Y0067000D01*
X0220500Y0067000D01*
X0231500Y0078000D01*
X0231500Y0086500D01*
X0237500Y0076500D02*
X0223000Y0062000D01*
X0174500Y0062000D01*
X0170122Y0061299D02*
X0093976Y0061299D01*
X0092977Y0060301D02*
X0169124Y0060301D01*
X0167530Y0059302D02*
X0091979Y0059302D01*
X0090500Y0061500D02*
X0110500Y0081500D01*
X0141000Y0081500D01*
X0139421Y0085263D02*
X0077670Y0085263D01*
X0078543Y0084265D02*
X0137993Y0084265D01*
X0137967Y0086262D02*
X0076796Y0086262D01*
X0076468Y0087260D02*
X0075922Y0087260D01*
X0075511Y0088259D02*
X0075049Y0088259D01*
X0075097Y0089257D02*
X0074175Y0089257D01*
X0074100Y0089343D02*
X0074100Y0123423D01*
X0076973Y0126296D01*
X0077704Y0127027D01*
X0078100Y0127983D01*
X0078100Y0132103D01*
X0079148Y0132537D01*
X0080463Y0133852D01*
X0081175Y0135570D01*
X0081175Y0137430D01*
X0080463Y0139148D01*
X0079148Y0140463D01*
X0077430Y0141175D01*
X0075570Y0141175D01*
X0073852Y0140463D01*
X0072537Y0139148D01*
X0071825Y0137430D01*
X0071825Y0135570D01*
X0072537Y0133852D01*
X0072900Y0133489D01*
X0072900Y0129577D01*
X0069296Y0125973D01*
X0068900Y0125017D01*
X0068900Y0088453D01*
X0068871Y0088023D01*
X0068900Y0087938D01*
X0068900Y0087849D01*
X0069065Y0087451D01*
X0069203Y0087043D01*
X0069262Y0086976D01*
X0069296Y0086893D01*
X0069600Y0086589D01*
X0074525Y0080961D01*
X0074012Y0081222D01*
X0073227Y0081477D01*
X0072500Y0081592D01*
X0072500Y0076866D01*
X0071500Y0076866D01*
X0071500Y0081592D01*
X0070773Y0081477D01*
X0069988Y0081222D01*
X0069254Y0080848D01*
X0068586Y0080363D01*
X0068003Y0079780D01*
X0067518Y0079113D01*
X0067334Y0078750D01*
X0066951Y0079674D01*
X0065308Y0081317D01*
X0063162Y0082206D01*
X0060838Y0082206D01*
X0058692Y0081317D01*
X0057049Y0079674D01*
X0056160Y0077528D01*
X0056160Y0075204D01*
X0057049Y0073058D01*
X0058692Y0071415D01*
X0060838Y0070526D01*
X0063162Y0070526D01*
X0065308Y0071415D01*
X0066951Y0073058D01*
X0067334Y0073982D01*
X0067518Y0073620D01*
X0068003Y0072952D01*
X0068586Y0072369D01*
X0069254Y0071884D01*
X0069988Y0071510D01*
X0070773Y0071255D01*
X0071500Y0071140D01*
X0071500Y0075866D01*
X0072500Y0075866D01*
X0072500Y0071140D01*
X0073227Y0071255D01*
X0074012Y0071510D01*
X0074746Y0071884D01*
X0075414Y0072369D01*
X0075997Y0072952D01*
X0076482Y0073620D01*
X0076666Y0073982D01*
X0077049Y0073058D01*
X0078692Y0071415D01*
X0080838Y0070526D01*
X0083162Y0070526D01*
X0085308Y0071415D01*
X0086951Y0073058D01*
X0087000Y0073176D01*
X0087049Y0073058D01*
X0088692Y0071415D01*
X0090838Y0070526D01*
X0093162Y0070526D01*
X0095308Y0071415D01*
X0096951Y0073058D01*
X0097840Y0075204D01*
X0097840Y0077528D01*
X0096951Y0079674D01*
X0095308Y0081317D01*
X0093162Y0082206D01*
X0090838Y0082206D01*
X0088692Y0081317D01*
X0087049Y0079674D01*
X0087000Y0079556D01*
X0086951Y0079674D01*
X0085308Y0081317D01*
X0083162Y0082206D01*
X0080838Y0082206D01*
X0080476Y0082056D01*
X0074100Y0089343D01*
X0074100Y0090256D02*
X0074919Y0090256D01*
X0074919Y0091254D02*
X0074100Y0091254D01*
X0074100Y0092253D02*
X0075309Y0092253D01*
X0075980Y0093251D02*
X0074100Y0093251D01*
X0074100Y0094250D02*
X0077389Y0094250D01*
X0080611Y0094250D02*
X0195073Y0094250D01*
X0194075Y0095248D02*
X0074100Y0095248D01*
X0074100Y0096247D02*
X0193076Y0096247D01*
X0192078Y0097245D02*
X0074100Y0097245D01*
X0074100Y0098244D02*
X0191079Y0098244D01*
X0190081Y0099242D02*
X0074100Y0099242D01*
X0074100Y0100241D02*
X0189082Y0100241D01*
X0188084Y0101239D02*
X0074100Y0101239D01*
X0074100Y0102238D02*
X0187085Y0102238D01*
X0186087Y0103237D02*
X0074100Y0103237D01*
X0074100Y0104235D02*
X0185088Y0104235D01*
X0184090Y0105234D02*
X0074100Y0105234D01*
X0074100Y0106232D02*
X0183091Y0106232D01*
X0182092Y0107231D02*
X0074100Y0107231D01*
X0074100Y0108229D02*
X0181094Y0108229D01*
X0184478Y0123207D02*
X0234900Y0123207D01*
X0234900Y0124205D02*
X0192254Y0124205D01*
X0193381Y0125204D02*
X0234900Y0125204D01*
X0234900Y0126202D02*
X0194379Y0126202D01*
X0195378Y0127201D02*
X0234900Y0127201D01*
X0234900Y0128199D02*
X0196376Y0128199D01*
X0197375Y0129198D02*
X0234900Y0129198D01*
X0234900Y0130196D02*
X0198373Y0130196D01*
X0199372Y0131195D02*
X0234900Y0131195D01*
X0234900Y0132193D02*
X0200370Y0132193D01*
X0201369Y0133192D02*
X0234900Y0133192D01*
X0234900Y0134190D02*
X0202367Y0134190D01*
X0203366Y0135189D02*
X0234900Y0135189D01*
X0234900Y0136187D02*
X0203978Y0136187D01*
X0204100Y0137186D02*
X0234900Y0137186D01*
X0234900Y0138184D02*
X0204100Y0138184D01*
X0204100Y0139183D02*
X0234900Y0139183D01*
X0234900Y0140181D02*
X0204100Y0140181D01*
X0204100Y0141180D02*
X0216608Y0141180D01*
X0215609Y0142178D02*
X0204100Y0142178D01*
X0204100Y0143177D02*
X0214942Y0143177D01*
X0214528Y0144175D02*
X0204100Y0144175D01*
X0204100Y0145174D02*
X0214400Y0145174D01*
X0214400Y0146172D02*
X0204100Y0146172D01*
X0204100Y0147171D02*
X0214672Y0147171D01*
X0215086Y0148170D02*
X0204100Y0148170D01*
X0204100Y0149168D02*
X0215956Y0149168D01*
X0217439Y0150167D02*
X0204100Y0150167D01*
X0204100Y0151165D02*
X0216639Y0151165D01*
X0215624Y0152164D02*
X0204100Y0152164D01*
X0204100Y0153162D02*
X0214948Y0153162D01*
X0214535Y0154161D02*
X0204100Y0154161D01*
X0204100Y0155159D02*
X0214400Y0155159D01*
X0214400Y0156158D02*
X0204100Y0156158D01*
X0204100Y0157156D02*
X0214666Y0157156D01*
X0215079Y0158155D02*
X0204100Y0158155D01*
X0204100Y0159153D02*
X0215941Y0159153D01*
X0217403Y0160152D02*
X0204100Y0160152D01*
X0204100Y0161150D02*
X0216674Y0161150D01*
X0215639Y0162149D02*
X0204100Y0162149D01*
X0204100Y0163147D02*
X0214954Y0163147D01*
X0214541Y0164146D02*
X0204100Y0164146D01*
X0204100Y0165144D02*
X0214400Y0165144D01*
X0214400Y0166143D02*
X0204100Y0166143D01*
X0204100Y0167141D02*
X0214660Y0167141D01*
X0215073Y0168140D02*
X0204100Y0168140D01*
X0204100Y0169138D02*
X0215926Y0169138D01*
X0227597Y0160152D02*
X0233671Y0160152D01*
X0232673Y0161150D02*
X0228325Y0161150D01*
X0229361Y0162149D02*
X0231674Y0162149D01*
X0232000Y0165500D02*
X0237500Y0160000D01*
X0237500Y0076500D01*
X0211508Y0071284D02*
X0207492Y0071284D01*
X0208676Y0072283D02*
X0210324Y0072283D01*
X0210145Y0080271D02*
X0208855Y0080271D01*
X0201900Y0083266D02*
X0156005Y0083266D01*
X0154575Y0084265D02*
X0201900Y0084265D01*
X0200145Y0080271D02*
X0198006Y0080271D01*
X0198866Y0079272D02*
X0199382Y0079272D01*
X0192633Y0081269D02*
X0187856Y0081269D01*
X0188855Y0080271D02*
X0190994Y0080271D01*
X0190134Y0079272D02*
X0189618Y0079272D01*
X0140500Y0089500D02*
X0139500Y0090500D01*
X0079000Y0090500D01*
X0082020Y0093251D02*
X0138892Y0093251D01*
X0137010Y0087260D02*
X0081532Y0087260D01*
X0079417Y0083266D02*
X0108589Y0083266D01*
X0107591Y0082268D02*
X0080291Y0082268D01*
X0085356Y0081269D02*
X0088644Y0081269D01*
X0087645Y0080271D02*
X0086355Y0080271D01*
X0082000Y0076366D02*
X0071500Y0088366D01*
X0071500Y0124500D01*
X0075500Y0128500D01*
X0075500Y0135500D01*
X0076500Y0136500D01*
X0079803Y0133192D02*
X0083197Y0133192D01*
X0083900Y0132193D02*
X0078319Y0132193D01*
X0078100Y0131195D02*
X0083900Y0131195D01*
X0083900Y0130196D02*
X0078100Y0130196D01*
X0078100Y0129198D02*
X0083900Y0129198D01*
X0083900Y0128199D02*
X0078100Y0128199D01*
X0077776Y0127201D02*
X0083900Y0127201D01*
X0083900Y0126202D02*
X0076879Y0126202D01*
X0075881Y0125204D02*
X0083900Y0125204D01*
X0083900Y0124205D02*
X0074882Y0124205D01*
X0074100Y0123207D02*
X0083900Y0123207D01*
X0084221Y0122208D02*
X0074100Y0122208D01*
X0074100Y0121210D02*
X0085113Y0121210D01*
X0086112Y0120211D02*
X0074100Y0120211D01*
X0074100Y0119213D02*
X0087110Y0119213D01*
X0088109Y0118214D02*
X0074100Y0118214D01*
X0074100Y0117216D02*
X0089107Y0117216D01*
X0090106Y0116217D02*
X0074100Y0116217D01*
X0074100Y0115219D02*
X0091104Y0115219D01*
X0092103Y0114220D02*
X0074100Y0114220D01*
X0074100Y0113222D02*
X0093101Y0113222D01*
X0094100Y0112223D02*
X0074100Y0112223D01*
X0074100Y0111225D02*
X0095098Y0111225D01*
X0096097Y0110226D02*
X0074100Y0110226D01*
X0074100Y0109228D02*
X0097192Y0109228D01*
X0072521Y0129198D02*
X0039421Y0129198D01*
X0039581Y0128199D02*
X0071522Y0128199D01*
X0070524Y0127201D02*
X0039581Y0127201D01*
X0039173Y0126202D02*
X0069525Y0126202D01*
X0068977Y0125204D02*
X0038475Y0125204D01*
X0037003Y0124205D02*
X0068900Y0124205D01*
X0068900Y0123207D02*
X0032600Y0123207D01*
X0032600Y0124205D02*
X0033997Y0124205D01*
X0032600Y0122208D02*
X0068900Y0122208D01*
X0068900Y0121210D02*
X0032600Y0121210D01*
X0032600Y0120211D02*
X0068900Y0120211D01*
X0068900Y0119213D02*
X0032600Y0119213D01*
X0032600Y0118214D02*
X0068900Y0118214D01*
X0068900Y0117216D02*
X0032600Y0117216D01*
X0032600Y0116217D02*
X0068900Y0116217D01*
X0068900Y0115219D02*
X0032600Y0115219D01*
X0032600Y0114220D02*
X0068900Y0114220D01*
X0068900Y0113222D02*
X0032600Y0113222D01*
X0032600Y0112223D02*
X0068900Y0112223D01*
X0068900Y0111225D02*
X0032600Y0111225D01*
X0032600Y0110226D02*
X0068900Y0110226D01*
X0068900Y0109228D02*
X0032600Y0109228D01*
X0032600Y0108229D02*
X0068900Y0108229D01*
X0068900Y0107231D02*
X0032600Y0107231D01*
X0032600Y0106232D02*
X0068900Y0106232D01*
X0068900Y0105234D02*
X0032600Y0105234D01*
X0032600Y0104235D02*
X0068900Y0104235D01*
X0068900Y0103237D02*
X0032600Y0103237D01*
X0032600Y0102238D02*
X0068900Y0102238D01*
X0068900Y0101239D02*
X0032600Y0101239D01*
X0032600Y0100241D02*
X0068900Y0100241D01*
X0068900Y0099242D02*
X0032600Y0099242D01*
X0032600Y0098244D02*
X0068900Y0098244D01*
X0068900Y0097245D02*
X0032600Y0097245D01*
X0032600Y0096247D02*
X0068900Y0096247D01*
X0068900Y0095248D02*
X0032600Y0095248D01*
X0032600Y0094250D02*
X0068900Y0094250D01*
X0068900Y0093251D02*
X0032600Y0093251D01*
X0032600Y0092253D02*
X0068900Y0092253D01*
X0068900Y0091254D02*
X0033039Y0091254D01*
X0034141Y0090256D02*
X0068900Y0090256D01*
X0068900Y0089257D02*
X0035243Y0089257D01*
X0036345Y0088259D02*
X0068887Y0088259D01*
X0069129Y0087260D02*
X0037447Y0087260D01*
X0038548Y0086262D02*
X0069886Y0086262D01*
X0070760Y0085263D02*
X0039650Y0085263D01*
X0040752Y0084265D02*
X0071634Y0084265D01*
X0072508Y0083266D02*
X0041854Y0083266D01*
X0042956Y0082268D02*
X0073381Y0082268D01*
X0073867Y0081269D02*
X0074255Y0081269D01*
X0072500Y0081269D02*
X0071500Y0081269D01*
X0071500Y0080271D02*
X0072500Y0080271D01*
X0072500Y0079272D02*
X0071500Y0079272D01*
X0071500Y0078274D02*
X0072500Y0078274D01*
X0072500Y0077275D02*
X0071500Y0077275D01*
X0071500Y0075278D02*
X0072500Y0075278D01*
X0072500Y0074280D02*
X0071500Y0074280D01*
X0071500Y0073281D02*
X0072500Y0073281D01*
X0072500Y0072283D02*
X0071500Y0072283D01*
X0071500Y0071284D02*
X0072500Y0071284D01*
X0073317Y0071284D02*
X0079008Y0071284D01*
X0077824Y0072283D02*
X0075295Y0072283D01*
X0076236Y0073281D02*
X0076956Y0073281D01*
X0070683Y0071284D02*
X0064992Y0071284D01*
X0066176Y0072283D02*
X0068705Y0072283D01*
X0067764Y0073281D02*
X0067043Y0073281D01*
X0059483Y0067290D02*
X0092613Y0067290D01*
X0091615Y0066292D02*
X0060585Y0066292D01*
X0061686Y0065293D02*
X0090616Y0065293D01*
X0089618Y0064295D02*
X0062788Y0064295D01*
X0062000Y0061500D02*
X0030000Y0090500D01*
X0030000Y0142000D01*
X0036000Y0140500D02*
X0036000Y0129000D01*
X0035500Y0128000D01*
X0039008Y0130196D02*
X0072900Y0130196D01*
X0072900Y0131195D02*
X0038600Y0131195D01*
X0038600Y0132193D02*
X0042687Y0132193D01*
X0043055Y0131825D02*
X0049945Y0131825D01*
X0051175Y0133055D01*
X0051175Y0139945D01*
X0049945Y0141175D01*
X0043055Y0141175D01*
X0041825Y0139945D01*
X0041825Y0133055D01*
X0043055Y0131825D01*
X0041825Y0133192D02*
X0038600Y0133192D01*
X0038600Y0134190D02*
X0041825Y0134190D01*
X0041825Y0135189D02*
X0038600Y0135189D01*
X0038600Y0136187D02*
X0041825Y0136187D01*
X0041825Y0137186D02*
X0038600Y0137186D01*
X0038600Y0138184D02*
X0041825Y0138184D01*
X0041825Y0139183D02*
X0038600Y0139183D01*
X0039358Y0140181D02*
X0042062Y0140181D01*
X0050938Y0140181D02*
X0053570Y0140181D01*
X0053852Y0140463D02*
X0052537Y0139148D01*
X0051825Y0137430D01*
X0051825Y0135570D01*
X0052537Y0133852D01*
X0053852Y0132537D01*
X0055570Y0131825D01*
X0057430Y0131825D01*
X0059148Y0132537D01*
X0060463Y0133852D01*
X0061175Y0135570D01*
X0061175Y0137430D01*
X0060463Y0139148D01*
X0059148Y0140463D01*
X0057430Y0141175D01*
X0055570Y0141175D01*
X0053852Y0140463D01*
X0052572Y0139183D02*
X0051175Y0139183D01*
X0051175Y0138184D02*
X0052138Y0138184D01*
X0051825Y0137186D02*
X0051175Y0137186D01*
X0051175Y0136187D02*
X0051825Y0136187D01*
X0051983Y0135189D02*
X0051175Y0135189D01*
X0051175Y0134190D02*
X0052397Y0134190D01*
X0053197Y0133192D02*
X0051175Y0133192D01*
X0050313Y0132193D02*
X0054681Y0132193D01*
X0058319Y0132193D02*
X0064681Y0132193D01*
X0063852Y0132537D02*
X0065570Y0131825D01*
X0067430Y0131825D01*
X0069148Y0132537D01*
X0070463Y0133852D01*
X0071175Y0135570D01*
X0071175Y0137430D01*
X0070463Y0139148D01*
X0069148Y0140463D01*
X0067430Y0141175D01*
X0065570Y0141175D01*
X0063852Y0140463D01*
X0062537Y0139148D01*
X0061825Y0137430D01*
X0061825Y0135570D01*
X0062537Y0133852D01*
X0063852Y0132537D01*
X0063197Y0133192D02*
X0059803Y0133192D01*
X0060603Y0134190D02*
X0062397Y0134190D01*
X0061983Y0135189D02*
X0061017Y0135189D01*
X0061175Y0136187D02*
X0061825Y0136187D01*
X0061825Y0137186D02*
X0061175Y0137186D01*
X0060862Y0138184D02*
X0062138Y0138184D01*
X0062572Y0139183D02*
X0060428Y0139183D01*
X0059430Y0140181D02*
X0063570Y0140181D01*
X0069430Y0140181D02*
X0073570Y0140181D01*
X0072572Y0139183D02*
X0070428Y0139183D01*
X0070862Y0138184D02*
X0072138Y0138184D01*
X0071825Y0137186D02*
X0071175Y0137186D01*
X0071175Y0136187D02*
X0071825Y0136187D01*
X0071983Y0135189D02*
X0071017Y0135189D01*
X0070603Y0134190D02*
X0072397Y0134190D01*
X0072900Y0133192D02*
X0069803Y0133192D01*
X0068319Y0132193D02*
X0072900Y0132193D01*
X0080603Y0134190D02*
X0082397Y0134190D01*
X0081983Y0135189D02*
X0081017Y0135189D01*
X0081175Y0136187D02*
X0081825Y0136187D01*
X0081825Y0137186D02*
X0081175Y0137186D01*
X0080862Y0138184D02*
X0082138Y0138184D01*
X0082572Y0139183D02*
X0080428Y0139183D01*
X0079430Y0140181D02*
X0083570Y0140181D01*
X0066574Y0158155D02*
X0054100Y0158155D01*
X0054100Y0159153D02*
X0065848Y0159153D01*
X0065434Y0160152D02*
X0054100Y0160152D01*
X0054100Y0161150D02*
X0065419Y0161150D01*
X0065558Y0162149D02*
X0054100Y0162149D01*
X0054100Y0163147D02*
X0065972Y0163147D01*
X0066874Y0164146D02*
X0054100Y0164146D01*
X0054100Y0165144D02*
X0069705Y0165144D01*
X0070593Y0166143D02*
X0054100Y0166143D01*
X0054100Y0167141D02*
X0071464Y0167141D01*
X0072463Y0168140D02*
X0054100Y0168140D01*
X0054100Y0169138D02*
X0073461Y0169138D01*
X0074460Y0170137D02*
X0054100Y0170137D01*
X0054100Y0171135D02*
X0075458Y0171135D01*
X0076457Y0172134D02*
X0054100Y0172134D01*
X0054100Y0173132D02*
X0131455Y0173132D01*
X0132454Y0174131D02*
X0054100Y0174131D01*
X0054100Y0175129D02*
X0133452Y0175129D01*
X0134451Y0176128D02*
X0125399Y0176128D01*
X0126398Y0177126D02*
X0135449Y0177126D01*
X0136448Y0178125D02*
X0126848Y0178125D01*
X0127081Y0179123D02*
X0137446Y0179123D01*
X0138445Y0180122D02*
X0127081Y0180122D01*
X0126746Y0181120D02*
X0139443Y0181120D01*
X0140442Y0182119D02*
X0126153Y0182119D01*
X0124931Y0183117D02*
X0141440Y0183117D01*
X0142439Y0184116D02*
X0102561Y0184116D01*
X0101562Y0185114D02*
X0143437Y0185114D01*
X0143900Y0186113D02*
X0100564Y0186113D01*
X0099565Y0187111D02*
X0143900Y0187111D01*
X0143900Y0188110D02*
X0098567Y0188110D01*
X0097568Y0189108D02*
X0143900Y0189108D01*
X0143900Y0190107D02*
X0096570Y0190107D01*
X0095571Y0191105D02*
X0143900Y0191105D01*
X0143900Y0192104D02*
X0138103Y0192104D01*
X0137430Y0191825D02*
X0139148Y0192537D01*
X0140463Y0193852D01*
X0141175Y0195570D01*
X0141175Y0197430D01*
X0140463Y0199148D01*
X0139148Y0200463D01*
X0137430Y0201175D01*
X0135570Y0201175D01*
X0133852Y0200463D01*
X0132537Y0199148D01*
X0131825Y0197430D01*
X0131825Y0195570D01*
X0132537Y0193852D01*
X0133852Y0192537D01*
X0135570Y0191825D01*
X0137430Y0191825D01*
X0134897Y0192104D02*
X0128103Y0192104D01*
X0127430Y0191825D02*
X0129148Y0192537D01*
X0130463Y0193852D01*
X0131175Y0195570D01*
X0131175Y0197430D01*
X0130463Y0199148D01*
X0129148Y0200463D01*
X0127430Y0201175D01*
X0125570Y0201175D01*
X0123852Y0200463D01*
X0122537Y0199148D01*
X0121825Y0197430D01*
X0121825Y0195570D01*
X0122537Y0193852D01*
X0123852Y0192537D01*
X0125570Y0191825D01*
X0127430Y0191825D01*
X0124897Y0192104D02*
X0118103Y0192104D01*
X0117430Y0191825D02*
X0119148Y0192537D01*
X0120463Y0193852D01*
X0121175Y0195570D01*
X0121175Y0197430D01*
X0120463Y0199148D01*
X0119148Y0200463D01*
X0117430Y0201175D01*
X0115570Y0201175D01*
X0113852Y0200463D01*
X0112537Y0199148D01*
X0111825Y0197430D01*
X0111825Y0195570D01*
X0112537Y0193852D01*
X0113852Y0192537D01*
X0115570Y0191825D01*
X0117430Y0191825D01*
X0114897Y0192104D02*
X0108103Y0192104D01*
X0107430Y0191825D02*
X0109148Y0192537D01*
X0110463Y0193852D01*
X0111175Y0195570D01*
X0111175Y0197430D01*
X0110463Y0199148D01*
X0109148Y0200463D01*
X0107430Y0201175D01*
X0105570Y0201175D01*
X0103852Y0200463D01*
X0102537Y0199148D01*
X0101825Y0197430D01*
X0101825Y0195570D01*
X0102537Y0193852D01*
X0103852Y0192537D01*
X0105570Y0191825D01*
X0107430Y0191825D01*
X0104897Y0192104D02*
X0098103Y0192104D01*
X0099714Y0193103D02*
X0103286Y0193103D01*
X0102434Y0194101D02*
X0100566Y0194101D01*
X0100980Y0195100D02*
X0102020Y0195100D01*
X0101825Y0196098D02*
X0101175Y0196098D01*
X0101175Y0197097D02*
X0101825Y0197097D01*
X0102101Y0198095D02*
X0100899Y0198095D01*
X0100486Y0199094D02*
X0102514Y0199094D01*
X0103481Y0200092D02*
X0099519Y0200092D01*
X0097633Y0201091D02*
X0105367Y0201091D01*
X0107633Y0201091D02*
X0115367Y0201091D01*
X0113481Y0200092D02*
X0109519Y0200092D01*
X0110486Y0199094D02*
X0112514Y0199094D01*
X0112101Y0198095D02*
X0110899Y0198095D01*
X0111175Y0197097D02*
X0111825Y0197097D01*
X0111825Y0196098D02*
X0111175Y0196098D01*
X0110980Y0195100D02*
X0112020Y0195100D01*
X0112434Y0194101D02*
X0110566Y0194101D01*
X0109714Y0193103D02*
X0113286Y0193103D01*
X0119714Y0193103D02*
X0123286Y0193103D01*
X0122434Y0194101D02*
X0120566Y0194101D01*
X0120980Y0195100D02*
X0122020Y0195100D01*
X0121825Y0196098D02*
X0121175Y0196098D01*
X0121175Y0197097D02*
X0121825Y0197097D01*
X0122101Y0198095D02*
X0120899Y0198095D01*
X0120486Y0199094D02*
X0122514Y0199094D01*
X0123481Y0200092D02*
X0119519Y0200092D01*
X0117633Y0201091D02*
X0125367Y0201091D01*
X0127633Y0201091D02*
X0135367Y0201091D01*
X0133481Y0200092D02*
X0129519Y0200092D01*
X0130486Y0199094D02*
X0132514Y0199094D01*
X0132101Y0198095D02*
X0130899Y0198095D01*
X0131175Y0197097D02*
X0131825Y0197097D01*
X0131825Y0196098D02*
X0131175Y0196098D01*
X0130980Y0195100D02*
X0132020Y0195100D01*
X0132434Y0194101D02*
X0130566Y0194101D01*
X0129714Y0193103D02*
X0133286Y0193103D01*
X0139714Y0193103D02*
X0143286Y0193103D01*
X0142434Y0194101D02*
X0140566Y0194101D01*
X0140980Y0195100D02*
X0142020Y0195100D01*
X0141825Y0196098D02*
X0141175Y0196098D01*
X0141175Y0197097D02*
X0141825Y0197097D01*
X0142101Y0198095D02*
X0140899Y0198095D01*
X0140486Y0199094D02*
X0142514Y0199094D01*
X0143481Y0200092D02*
X0139519Y0200092D01*
X0137633Y0201091D02*
X0145367Y0201091D01*
X0146500Y0196500D02*
X0146500Y0184500D01*
X0132000Y0170000D01*
X0078000Y0170000D01*
X0073500Y0165500D01*
X0069500Y0161000D01*
X0078113Y0184116D02*
X0054100Y0184116D01*
X0054703Y0185114D02*
X0077657Y0185114D01*
X0077419Y0186113D02*
X0056076Y0186113D01*
X0057449Y0187111D02*
X0076093Y0187111D01*
X0081577Y0195100D02*
X0082020Y0195100D01*
X0081825Y0196098D02*
X0081175Y0196098D01*
X0081175Y0197097D02*
X0081825Y0197097D01*
X0082101Y0198095D02*
X0080899Y0198095D01*
X0080486Y0199094D02*
X0082514Y0199094D01*
X0083481Y0200092D02*
X0079519Y0200092D01*
X0077633Y0201091D02*
X0085367Y0201091D01*
X0087633Y0201091D02*
X0095367Y0201091D01*
X0093481Y0200092D02*
X0089519Y0200092D01*
X0090486Y0199094D02*
X0092514Y0199094D01*
X0092101Y0198095D02*
X0090899Y0198095D01*
X0091175Y0197097D02*
X0091825Y0197097D01*
X0091825Y0196098D02*
X0091175Y0196098D01*
X0090980Y0195100D02*
X0092020Y0195100D01*
X0092434Y0194101D02*
X0090566Y0194101D01*
X0094573Y0192104D02*
X0094897Y0192104D01*
X0103560Y0183117D02*
X0121069Y0183117D01*
X0119847Y0182119D02*
X0104558Y0182119D01*
X0089026Y0202089D02*
X0024500Y0202089D01*
X0024500Y0201091D02*
X0045367Y0201091D01*
X0043481Y0200092D02*
X0024500Y0200092D01*
X0024500Y0199094D02*
X0042514Y0199094D01*
X0042101Y0198095D02*
X0024500Y0198095D01*
X0024500Y0197097D02*
X0041825Y0197097D01*
X0041825Y0196098D02*
X0024500Y0196098D01*
X0024500Y0195100D02*
X0042020Y0195100D01*
X0042434Y0194101D02*
X0024500Y0194101D01*
X0024500Y0193103D02*
X0043286Y0193103D01*
X0049714Y0193103D02*
X0053286Y0193103D01*
X0052434Y0194101D02*
X0050566Y0194101D01*
X0050980Y0195100D02*
X0052020Y0195100D01*
X0051825Y0196098D02*
X0051175Y0196098D01*
X0051175Y0197097D02*
X0051825Y0197097D01*
X0052101Y0198095D02*
X0050899Y0198095D01*
X0050486Y0199094D02*
X0052514Y0199094D01*
X0053481Y0200092D02*
X0049519Y0200092D01*
X0047633Y0201091D02*
X0055367Y0201091D01*
X0055040Y0205085D02*
X0047960Y0205085D01*
X0049796Y0206083D02*
X0053204Y0206083D01*
X0052206Y0207082D02*
X0050794Y0207082D01*
X0051225Y0208080D02*
X0051775Y0208080D01*
X0057960Y0205085D02*
X0065040Y0205085D01*
X0063204Y0206083D02*
X0059796Y0206083D01*
X0060794Y0207082D02*
X0062206Y0207082D01*
X0061775Y0208080D02*
X0061225Y0208080D01*
X0067960Y0205085D02*
X0075040Y0205085D01*
X0073204Y0206083D02*
X0069796Y0206083D01*
X0070794Y0207082D02*
X0072206Y0207082D01*
X0071775Y0208080D02*
X0071225Y0208080D01*
X0077960Y0205085D02*
X0085040Y0205085D01*
X0086737Y0204086D02*
X0024500Y0204086D01*
X0024500Y0203088D02*
X0087735Y0203088D01*
X0090000Y0204500D02*
X0190500Y0204500D01*
X0192594Y0206083D02*
X0198230Y0206083D01*
X0198900Y0205085D02*
X0193592Y0205085D01*
X0194591Y0204086D02*
X0198900Y0204086D01*
X0198900Y0203088D02*
X0195589Y0203088D01*
X0196588Y0202089D02*
X0198900Y0202089D01*
X0198900Y0201091D02*
X0197586Y0201091D01*
X0198362Y0200092D02*
X0198900Y0200092D01*
X0198900Y0199094D02*
X0198600Y0199094D01*
X0198600Y0198095D02*
X0198900Y0198095D01*
X0198900Y0197097D02*
X0198600Y0197097D01*
X0198600Y0196098D02*
X0198900Y0196098D01*
X0198900Y0195100D02*
X0198600Y0195100D01*
X0198600Y0194101D02*
X0198900Y0194101D01*
X0198900Y0193103D02*
X0198600Y0193103D01*
X0204100Y0203088D02*
X0244201Y0203088D01*
X0244201Y0204086D02*
X0204100Y0204086D01*
X0204100Y0205085D02*
X0244201Y0205085D01*
X0244201Y0206083D02*
X0204119Y0206083D01*
X0203928Y0207082D02*
X0244201Y0207082D01*
X0244201Y0208080D02*
X0203257Y0208080D01*
X0202486Y0209079D02*
X0244201Y0209079D01*
X0244201Y0210077D02*
X0201716Y0210077D01*
X0200946Y0211076D02*
X0244201Y0211076D01*
X0244201Y0212074D02*
X0200176Y0212074D01*
X0199405Y0213073D02*
X0244201Y0213073D01*
X0244201Y0214071D02*
X0198635Y0214071D01*
X0197865Y0215070D02*
X0244201Y0215070D01*
X0244201Y0216068D02*
X0197094Y0216068D01*
X0196324Y0217067D02*
X0244201Y0217067D01*
X0244201Y0218065D02*
X0195554Y0218065D01*
X0194783Y0219064D02*
X0244201Y0219064D01*
X0244201Y0220062D02*
X0194013Y0220062D01*
X0193243Y0221061D02*
X0244201Y0221061D01*
X0244201Y0222059D02*
X0192473Y0222059D01*
X0191702Y0223058D02*
X0244201Y0223058D01*
X0201500Y0206101D02*
X0201500Y0140500D01*
X0201500Y0137000D01*
X0191000Y0126500D01*
X0182000Y0126500D01*
X0184681Y0132193D02*
X0168319Y0132193D01*
X0169803Y0133192D02*
X0174121Y0133192D01*
X0174364Y0133015D02*
X0173845Y0133392D01*
X0173392Y0133845D01*
X0173015Y0134364D01*
X0172724Y0134936D01*
X0172526Y0135546D01*
X0172425Y0136179D01*
X0172425Y0136213D01*
X0176213Y0136213D01*
X0176787Y0136213D01*
X0176787Y0132425D01*
X0176821Y0132425D01*
X0177454Y0132526D01*
X0178064Y0132724D01*
X0178636Y0133015D01*
X0179155Y0133392D01*
X0179608Y0133845D01*
X0179985Y0134364D01*
X0180276Y0134936D01*
X0180474Y0135546D01*
X0180575Y0136179D01*
X0180575Y0136213D01*
X0176787Y0136213D01*
X0176787Y0136787D01*
X0180575Y0136787D01*
X0180575Y0136821D01*
X0180474Y0137454D01*
X0180276Y0138064D01*
X0179985Y0138636D01*
X0179608Y0139155D01*
X0179155Y0139608D01*
X0178636Y0139985D01*
X0178064Y0140276D01*
X0177454Y0140474D01*
X0176821Y0140575D01*
X0176787Y0140575D01*
X0176787Y0136787D01*
X0176213Y0136787D01*
X0176213Y0136213D01*
X0176213Y0132425D01*
X0176179Y0132425D01*
X0175546Y0132526D01*
X0174936Y0132724D01*
X0174364Y0133015D01*
X0173141Y0134190D02*
X0170603Y0134190D01*
X0171017Y0135189D02*
X0172641Y0135189D01*
X0172425Y0136187D02*
X0171175Y0136187D01*
X0171175Y0137186D02*
X0172483Y0137186D01*
X0172526Y0137454D02*
X0172425Y0136821D01*
X0172425Y0136787D01*
X0176213Y0136787D01*
X0176213Y0140575D01*
X0176179Y0140575D01*
X0175546Y0140474D01*
X0174936Y0140276D01*
X0174364Y0139985D01*
X0173845Y0139608D01*
X0173392Y0139155D01*
X0173015Y0138636D01*
X0172724Y0138064D01*
X0172526Y0137454D01*
X0172785Y0138184D02*
X0170862Y0138184D01*
X0170428Y0139183D02*
X0173420Y0139183D01*
X0174750Y0140181D02*
X0169430Y0140181D01*
X0176213Y0140181D02*
X0176787Y0140181D01*
X0176787Y0139183D02*
X0176213Y0139183D01*
X0176213Y0138184D02*
X0176787Y0138184D01*
X0176787Y0137186D02*
X0176213Y0137186D01*
X0176213Y0136187D02*
X0176787Y0136187D01*
X0176787Y0135189D02*
X0176213Y0135189D01*
X0176213Y0134190D02*
X0176787Y0134190D01*
X0176787Y0133192D02*
X0176213Y0133192D01*
X0178879Y0133192D02*
X0183197Y0133192D01*
X0182397Y0134190D02*
X0179859Y0134190D01*
X0180358Y0135189D02*
X0181983Y0135189D01*
X0181825Y0136187D02*
X0180575Y0136187D01*
X0180517Y0137186D02*
X0181825Y0137186D01*
X0182138Y0138184D02*
X0180215Y0138184D01*
X0179580Y0139183D02*
X0182572Y0139183D01*
X0183570Y0140181D02*
X0178250Y0140181D01*
X0164681Y0132193D02*
X0158319Y0132193D01*
X0201500Y0137000D02*
X0201500Y0140500D01*
X0228392Y0141180D02*
X0234900Y0141180D01*
X0234900Y0142178D02*
X0229391Y0142178D01*
X0230058Y0143177D02*
X0234900Y0143177D01*
X0234900Y0144175D02*
X0230472Y0144175D01*
X0230600Y0145174D02*
X0234900Y0145174D01*
X0234900Y0146172D02*
X0230600Y0146172D01*
X0230328Y0147171D02*
X0234900Y0147171D01*
X0234900Y0148170D02*
X0229914Y0148170D01*
X0229044Y0149168D02*
X0234900Y0149168D01*
X0234900Y0150167D02*
X0227561Y0150167D01*
X0228361Y0151165D02*
X0234900Y0151165D01*
X0234900Y0152164D02*
X0229376Y0152164D01*
X0230052Y0153162D02*
X0234900Y0153162D01*
X0234900Y0154161D02*
X0230465Y0154161D01*
X0230600Y0155159D02*
X0234900Y0155159D01*
X0234900Y0156158D02*
X0230600Y0156158D01*
X0230334Y0157156D02*
X0234900Y0157156D01*
X0234900Y0158155D02*
X0229921Y0158155D01*
X0229059Y0159153D02*
X0234670Y0159153D01*
X0201500Y0206101D02*
X0187999Y0223602D01*
X0038931Y0223929D01*
X0035929Y0222929D01*
X0031500Y0218500D01*
X0031500Y0208500D01*
X0035264Y0210077D02*
X0041400Y0210077D01*
X0041400Y0209079D02*
X0035581Y0209079D01*
X0035581Y0208080D02*
X0041775Y0208080D01*
X0042206Y0207082D02*
X0035330Y0207082D01*
X0034855Y0206083D02*
X0043204Y0206083D01*
X0045040Y0205085D02*
X0033856Y0205085D01*
X0029144Y0205085D02*
X0024500Y0205085D01*
X0024500Y0206083D02*
X0028145Y0206083D01*
X0027670Y0207082D02*
X0024500Y0207082D01*
X0024500Y0208080D02*
X0027419Y0208080D01*
X0027419Y0209079D02*
X0024500Y0209079D01*
X0024500Y0210077D02*
X0027736Y0210077D01*
X0028304Y0211076D02*
X0024500Y0211076D01*
X0024500Y0212074D02*
X0028900Y0212074D01*
X0028900Y0213073D02*
X0024500Y0213073D01*
X0024500Y0214071D02*
X0028900Y0214071D01*
X0028900Y0215070D02*
X0024500Y0215070D01*
X0024500Y0216068D02*
X0028900Y0216068D01*
X0028900Y0217067D02*
X0024500Y0217067D01*
X0024500Y0218065D02*
X0028900Y0218065D01*
X0028919Y0219064D02*
X0024500Y0219064D01*
X0024500Y0220062D02*
X0029385Y0220062D01*
X0030384Y0221061D02*
X0024500Y0221061D01*
X0024500Y0222059D02*
X0031382Y0222059D01*
X0032381Y0223058D02*
X0024500Y0223058D01*
X0034100Y0217067D02*
X0041422Y0217067D01*
X0041400Y0216068D02*
X0034100Y0216068D01*
X0034100Y0215070D02*
X0041400Y0215070D01*
X0041400Y0214071D02*
X0034100Y0214071D01*
X0034100Y0213073D02*
X0041400Y0213073D01*
X0041400Y0212074D02*
X0034100Y0212074D01*
X0034696Y0211076D02*
X0041400Y0211076D01*
X0041835Y0218065D02*
X0034742Y0218065D01*
X0035741Y0219064D02*
X0042351Y0219064D01*
X0043350Y0220062D02*
X0036739Y0220062D01*
X0038548Y0221061D02*
X0045391Y0221061D01*
X0047609Y0221061D02*
X0055391Y0221061D01*
X0057609Y0221061D02*
X0065391Y0221061D01*
X0067609Y0221061D02*
X0075391Y0221061D01*
X0077609Y0221061D02*
X0085391Y0221061D01*
X0087609Y0221061D02*
X0095391Y0221061D01*
X0097609Y0221061D02*
X0115391Y0221061D01*
X0117609Y0221061D02*
X0161019Y0221061D01*
X0156787Y0200092D02*
X0156213Y0200092D01*
X0156213Y0199094D02*
X0156787Y0199094D01*
X0156787Y0198095D02*
X0156213Y0198095D01*
X0156213Y0197097D02*
X0156787Y0197097D01*
X0156787Y0196098D02*
X0156213Y0196098D01*
X0156213Y0195100D02*
X0156787Y0195100D01*
X0156787Y0194101D02*
X0156213Y0194101D01*
X0156213Y0193103D02*
X0156787Y0193103D01*
X0188986Y0218065D02*
X0121165Y0218065D01*
X0121578Y0217067D02*
X0189757Y0217067D01*
X0190527Y0216068D02*
X0121600Y0216068D01*
X0121600Y0215070D02*
X0191297Y0215070D01*
X0192067Y0214071D02*
X0121600Y0214071D01*
X0121600Y0213073D02*
X0192838Y0213073D01*
X0193608Y0212074D02*
X0121600Y0212074D01*
X0121600Y0211076D02*
X0194378Y0211076D01*
X0195149Y0210077D02*
X0121600Y0210077D01*
X0121600Y0209079D02*
X0195919Y0209079D01*
X0196689Y0208080D02*
X0121225Y0208080D01*
X0111775Y0208080D02*
X0110572Y0208080D01*
X0110910Y0209079D02*
X0111400Y0209079D01*
X0111400Y0210077D02*
X0111000Y0210077D01*
X0111000Y0211076D02*
X0111400Y0211076D01*
X0111400Y0212074D02*
X0111000Y0212074D01*
X0111400Y0213073D02*
X0107000Y0213073D01*
X0107000Y0213500D02*
X0111000Y0213500D01*
X0111000Y0216354D01*
X0110889Y0217054D01*
X0110670Y0217727D01*
X0110349Y0218359D01*
X0109932Y0218932D01*
X0109432Y0219432D01*
X0108859Y0219849D01*
X0108227Y0220170D01*
X0107554Y0220389D01*
X0107000Y0220477D01*
X0107000Y0213500D01*
X0107000Y0214071D02*
X0106000Y0214071D01*
X0106000Y0213073D02*
X0101600Y0213073D01*
X0101600Y0214071D02*
X0102000Y0214071D01*
X0102000Y0215070D02*
X0101600Y0215070D01*
X0101600Y0216068D02*
X0102000Y0216068D01*
X0102115Y0217067D02*
X0101578Y0217067D01*
X0101165Y0218065D02*
X0102502Y0218065D01*
X0103200Y0219064D02*
X0100649Y0219064D01*
X0099650Y0220062D02*
X0104561Y0220062D01*
X0106000Y0220062D02*
X0107000Y0220062D01*
X0107000Y0219064D02*
X0106000Y0219064D01*
X0106000Y0218065D02*
X0107000Y0218065D01*
X0107000Y0217067D02*
X0106000Y0217067D01*
X0106000Y0216068D02*
X0107000Y0216068D01*
X0107000Y0215070D02*
X0106000Y0215070D01*
X0111000Y0215070D02*
X0111400Y0215070D01*
X0111400Y0216068D02*
X0111000Y0216068D01*
X0110885Y0217067D02*
X0111422Y0217067D01*
X0111835Y0218065D02*
X0110498Y0218065D01*
X0109800Y0219064D02*
X0112351Y0219064D01*
X0113350Y0220062D02*
X0108439Y0220062D01*
X0111000Y0214071D02*
X0111400Y0214071D01*
X0102000Y0212074D02*
X0101600Y0212074D01*
X0101600Y0211076D02*
X0102000Y0211076D01*
X0102000Y0210077D02*
X0101600Y0210077D01*
X0101600Y0209079D02*
X0102090Y0209079D01*
X0102428Y0208080D02*
X0101225Y0208080D01*
X0090000Y0204500D02*
X0086500Y0208000D01*
X0086500Y0213000D01*
X0081775Y0208080D02*
X0081225Y0208080D01*
X0080794Y0207082D02*
X0082206Y0207082D01*
X0083204Y0206083D02*
X0079796Y0206083D01*
X0081165Y0218065D02*
X0081835Y0218065D01*
X0082351Y0219064D02*
X0080649Y0219064D01*
X0079650Y0220062D02*
X0083350Y0220062D01*
X0089650Y0220062D02*
X0093350Y0220062D01*
X0092351Y0219064D02*
X0090649Y0219064D01*
X0091165Y0218065D02*
X0091835Y0218065D01*
X0073350Y0220062D02*
X0069650Y0220062D01*
X0070649Y0219064D02*
X0072351Y0219064D01*
X0071835Y0218065D02*
X0071165Y0218065D01*
X0063350Y0220062D02*
X0059650Y0220062D01*
X0060649Y0219064D02*
X0062351Y0219064D01*
X0061835Y0218065D02*
X0061165Y0218065D01*
X0053350Y0220062D02*
X0049650Y0220062D01*
X0050649Y0219064D02*
X0052351Y0219064D01*
X0051835Y0218065D02*
X0051165Y0218065D01*
X0119650Y0220062D02*
X0187446Y0220062D01*
X0188216Y0219064D02*
X0120649Y0219064D01*
X0191061Y0207082D02*
X0197459Y0207082D01*
X0106592Y0081269D02*
X0095356Y0081269D01*
X0096355Y0080271D02*
X0105594Y0080271D01*
X0104595Y0079272D02*
X0097118Y0079272D01*
X0097531Y0078274D02*
X0103597Y0078274D01*
X0102598Y0077275D02*
X0097840Y0077275D01*
X0097840Y0076277D02*
X0101600Y0076277D01*
X0100601Y0075278D02*
X0097840Y0075278D01*
X0097457Y0074280D02*
X0099603Y0074280D01*
X0098604Y0073281D02*
X0097043Y0073281D01*
X0097606Y0072283D02*
X0096176Y0072283D01*
X0096607Y0071284D02*
X0094992Y0071284D01*
X0095609Y0070286D02*
X0056177Y0070286D01*
X0055076Y0071284D02*
X0059008Y0071284D01*
X0057824Y0072283D02*
X0053974Y0072283D01*
X0052872Y0073281D02*
X0056956Y0073281D01*
X0056543Y0074280D02*
X0051770Y0074280D01*
X0050668Y0075278D02*
X0056160Y0075278D01*
X0056160Y0076277D02*
X0049566Y0076277D01*
X0048465Y0077275D02*
X0056160Y0077275D01*
X0056469Y0078274D02*
X0047363Y0078274D01*
X0046261Y0079272D02*
X0056882Y0079272D01*
X0057645Y0080271D02*
X0045159Y0080271D01*
X0044057Y0081269D02*
X0058644Y0081269D01*
X0065356Y0081269D02*
X0070133Y0081269D01*
X0068494Y0080271D02*
X0066355Y0080271D01*
X0067118Y0079272D02*
X0067634Y0079272D01*
X0057279Y0069287D02*
X0094610Y0069287D01*
X0093612Y0068289D02*
X0058381Y0068289D01*
X0062000Y0061500D02*
X0090500Y0061500D01*
X0089008Y0071284D02*
X0084992Y0071284D01*
X0086176Y0072283D02*
X0087824Y0072283D01*
X0110951Y0078274D02*
X0138455Y0078274D01*
X0228896Y0040330D02*
X0040604Y0040330D01*
D16*
X0032500Y0077000D03*
X0079000Y0090500D03*
X0035500Y0128000D03*
X0030000Y0142000D03*
X0069500Y0161000D03*
X0089000Y0147500D03*
X0120500Y0152500D03*
X0123000Y0179500D03*
X0156500Y0189000D03*
X0081500Y0186500D03*
X0031500Y0208500D03*
X0182000Y0126500D03*
X0140500Y0089500D03*
X0141000Y0081500D03*
X0153000Y0080500D03*
X0172000Y0072500D03*
X0170000Y0056000D03*
X0231500Y0086500D03*
D17*
X0151000Y0066500D03*
X0122000Y0066500D03*
X0212000Y0196500D03*
X0240000Y0197500D03*
M02*
