G75*
%MOIN*%
%OFA0B0*%
%FSLAX25Y25*%
%IPPOS*%
%LPD*%
%AMOC8*
5,1,8,0,0,1.08239X$1,22.5*
%
%ADD10C,0.13400*%
%ADD11R,0.03753X0.05524*%
%ADD12R,0.05950X0.05950*%
%ADD13C,0.05950*%
%ADD14C,0.06800*%
%ADD15R,0.06706X0.05918*%
%ADD16C,0.08280*%
%ADD17C,0.11135*%
%ADD18R,0.14816X0.06312*%
%ADD19R,0.03400X0.08800*%
%ADD20R,0.07099X0.12611*%
%ADD21R,0.19800X0.17300*%
%ADD22R,0.04737X0.14580*%
%ADD23R,0.06706X0.14186*%
%ADD24R,0.05918X0.06706*%
%ADD25C,0.04762*%
%ADD26C,0.06706*%
D10*
X0033000Y0048000D03*
X0236500Y0048000D03*
D11*
X0146500Y0169807D03*
X0146500Y0183193D03*
D12*
X0046500Y0136500D03*
D13*
X0056500Y0136500D03*
X0066500Y0136500D03*
X0076500Y0136500D03*
X0086500Y0136500D03*
X0096500Y0136500D03*
X0106500Y0136500D03*
X0116500Y0136500D03*
X0126500Y0136500D03*
X0136500Y0136500D03*
X0146500Y0136500D03*
X0156500Y0136500D03*
X0166500Y0136500D03*
X0176500Y0136500D03*
X0186500Y0136500D03*
X0186500Y0196500D03*
X0176500Y0196500D03*
X0166500Y0196500D03*
X0156500Y0196500D03*
X0146500Y0196500D03*
X0136500Y0196500D03*
X0126500Y0196500D03*
X0116500Y0196500D03*
X0106500Y0196500D03*
X0096500Y0196500D03*
X0086500Y0196500D03*
X0076500Y0196500D03*
X0066500Y0196500D03*
X0056500Y0196500D03*
X0046500Y0196500D03*
D14*
X0046500Y0210000D02*
X0046500Y0216000D01*
X0056500Y0216000D02*
X0056500Y0210000D01*
X0066500Y0210000D02*
X0066500Y0216000D01*
X0076500Y0216000D02*
X0076500Y0210000D01*
X0086500Y0210000D02*
X0086500Y0216000D01*
X0096500Y0216000D02*
X0096500Y0210000D01*
X0106500Y0210000D02*
X0106500Y0216000D01*
X0116500Y0216000D02*
X0116500Y0210000D01*
X0219500Y0165500D02*
X0225500Y0165500D01*
X0225500Y0155500D02*
X0219500Y0155500D01*
X0219500Y0145500D02*
X0225500Y0145500D01*
D15*
X0151500Y0152760D03*
X0151500Y0160240D03*
X0131500Y0160240D03*
X0131500Y0152760D03*
X0111500Y0152760D03*
X0111500Y0160240D03*
X0111500Y0171260D03*
X0111500Y0178740D03*
X0131500Y0179240D03*
X0131500Y0171760D03*
D16*
X0092000Y0076366D03*
X0082000Y0076366D03*
X0072000Y0076366D03*
X0062000Y0076366D03*
X0184500Y0076366D03*
X0194500Y0076366D03*
X0204500Y0076366D03*
X0214500Y0076366D03*
D17*
X0214264Y0048098D03*
X0184736Y0048098D03*
X0091764Y0048098D03*
X0062236Y0048098D03*
D18*
X0175000Y0163004D03*
X0175000Y0184500D03*
D19*
X0094000Y0178600D03*
X0089000Y0178600D03*
X0084000Y0178600D03*
X0079000Y0178600D03*
X0074000Y0178600D03*
X0069000Y0178600D03*
X0064000Y0178600D03*
X0059000Y0178600D03*
X0059000Y0154400D03*
X0064000Y0154400D03*
X0069000Y0154400D03*
X0074000Y0154400D03*
X0079000Y0154400D03*
X0084000Y0154400D03*
X0089000Y0154400D03*
X0094000Y0154400D03*
D20*
X0087976Y0090594D03*
X0104524Y0090094D03*
X0122476Y0090094D03*
X0152524Y0090594D03*
X0170476Y0090594D03*
X0187524Y0090594D03*
X0205476Y0090594D03*
X0223024Y0091094D03*
X0240976Y0091094D03*
X0070024Y0090594D03*
X0056976Y0090094D03*
X0039024Y0090094D03*
D21*
X0048000Y0114252D03*
X0079000Y0114752D03*
X0113500Y0114252D03*
X0161500Y0114752D03*
X0196500Y0114752D03*
X0232000Y0115252D03*
D22*
X0140437Y0066500D03*
X0132563Y0066500D03*
X0222063Y0196500D03*
X0229937Y0196500D03*
D23*
X0239189Y0219138D03*
X0212811Y0219138D03*
X0149689Y0043862D03*
X0123311Y0043862D03*
D24*
X0162260Y0049000D03*
X0169740Y0049000D03*
X0169740Y0065000D03*
X0162260Y0065000D03*
X0140240Y0096500D03*
X0132760Y0096500D03*
X0132760Y0106500D03*
X0140240Y0106500D03*
X0140240Y0116500D03*
X0132760Y0116500D03*
X0047240Y0077000D03*
X0039760Y0077000D03*
X0040240Y0151500D03*
X0032760Y0151500D03*
X0033260Y0165500D03*
X0040740Y0165500D03*
X0040740Y0179000D03*
X0033260Y0179000D03*
X0227760Y0071500D03*
X0235240Y0071500D03*
D25*
X0231500Y0086500D03*
X0182000Y0126500D03*
X0140500Y0089500D03*
X0141000Y0081500D03*
X0153000Y0080500D03*
X0172000Y0072500D03*
X0170000Y0056000D03*
X0079000Y0090500D03*
X0032500Y0077000D03*
X0035500Y0128000D03*
X0030000Y0142000D03*
X0069500Y0161000D03*
X0089000Y0147500D03*
X0120500Y0152500D03*
X0123000Y0179500D03*
X0156500Y0189000D03*
X0081500Y0186500D03*
X0031500Y0208500D03*
D26*
X0212000Y0196500D03*
X0240000Y0197500D03*
X0151000Y0066500D03*
X0122000Y0066500D03*
M02*
