G75*
%MOIN*%
%OFA0B0*%
%FSLAX25Y25*%
%IPPOS*%
%LPD*%
%AMOC8*
5,1,8,0,0,1.08239X$1,22.5*
%
%ADD10C,0.00000*%
%ADD11C,0.00512*%
%ADD12C,0.00300*%
%ADD13R,0.02953X0.04724*%
%ADD14R,0.05150X0.05150*%
%ADD15C,0.05150*%
%ADD16C,0.06000*%
%ADD17R,0.05906X0.05118*%
%ADD18C,0.07480*%
%ADD19C,0.10335*%
%ADD20R,0.14016X0.05512*%
%ADD21R,0.02600X0.08000*%
%ADD22R,0.06299X0.11811*%
%ADD23R,0.19000X0.16500*%
%ADD24R,0.03937X0.13780*%
%ADD25R,0.05906X0.13386*%
%ADD26R,0.05118X0.05906*%
%ADD27C,0.01000*%
%ADD28C,0.03962*%
%ADD29C,0.02000*%
%ADD30C,0.05906*%
%ADD31C,0.01600*%
%ADD32C,0.00600*%
D10*
X0025000Y0035000D02*
X0243701Y0035000D01*
X0243841Y0035002D01*
X0243981Y0035008D01*
X0244121Y0035018D01*
X0244261Y0035031D01*
X0244400Y0035049D01*
X0244539Y0035071D01*
X0244676Y0035096D01*
X0244814Y0035125D01*
X0244950Y0035158D01*
X0245085Y0035195D01*
X0245219Y0035236D01*
X0245352Y0035281D01*
X0245484Y0035329D01*
X0245614Y0035381D01*
X0245743Y0035436D01*
X0245870Y0035495D01*
X0245996Y0035558D01*
X0246120Y0035624D01*
X0246241Y0035693D01*
X0246361Y0035766D01*
X0246479Y0035843D01*
X0246594Y0035922D01*
X0246708Y0036005D01*
X0246818Y0036091D01*
X0246927Y0036180D01*
X0247033Y0036272D01*
X0247136Y0036367D01*
X0247237Y0036464D01*
X0247334Y0036565D01*
X0247429Y0036668D01*
X0247521Y0036774D01*
X0247610Y0036883D01*
X0247696Y0036993D01*
X0247779Y0037107D01*
X0247858Y0037222D01*
X0247935Y0037340D01*
X0248008Y0037460D01*
X0248077Y0037581D01*
X0248143Y0037705D01*
X0248206Y0037831D01*
X0248265Y0037958D01*
X0248320Y0038087D01*
X0248372Y0038217D01*
X0248420Y0038349D01*
X0248465Y0038482D01*
X0248506Y0038616D01*
X0248543Y0038751D01*
X0248576Y0038887D01*
X0248605Y0039025D01*
X0248630Y0039162D01*
X0248652Y0039301D01*
X0248670Y0039440D01*
X0248683Y0039580D01*
X0248693Y0039720D01*
X0248699Y0039860D01*
X0248701Y0040000D01*
X0248701Y0223461D01*
X0248699Y0223601D01*
X0248693Y0223741D01*
X0248683Y0223881D01*
X0248670Y0224021D01*
X0248652Y0224160D01*
X0248630Y0224299D01*
X0248605Y0224436D01*
X0248576Y0224574D01*
X0248543Y0224710D01*
X0248506Y0224845D01*
X0248465Y0224979D01*
X0248420Y0225112D01*
X0248372Y0225244D01*
X0248320Y0225374D01*
X0248265Y0225503D01*
X0248206Y0225630D01*
X0248143Y0225756D01*
X0248077Y0225880D01*
X0248008Y0226001D01*
X0247935Y0226121D01*
X0247858Y0226239D01*
X0247779Y0226354D01*
X0247696Y0226468D01*
X0247610Y0226578D01*
X0247521Y0226687D01*
X0247429Y0226793D01*
X0247334Y0226896D01*
X0247237Y0226997D01*
X0247136Y0227094D01*
X0247033Y0227189D01*
X0246927Y0227281D01*
X0246818Y0227370D01*
X0246708Y0227456D01*
X0246594Y0227539D01*
X0246479Y0227618D01*
X0246361Y0227695D01*
X0246241Y0227768D01*
X0246120Y0227837D01*
X0245996Y0227903D01*
X0245870Y0227966D01*
X0245743Y0228025D01*
X0245614Y0228080D01*
X0245484Y0228132D01*
X0245352Y0228180D01*
X0245219Y0228225D01*
X0245085Y0228266D01*
X0244950Y0228303D01*
X0244814Y0228336D01*
X0244676Y0228365D01*
X0244539Y0228390D01*
X0244400Y0228412D01*
X0244261Y0228430D01*
X0244121Y0228443D01*
X0243981Y0228453D01*
X0243841Y0228459D01*
X0243701Y0228461D01*
X0025000Y0228461D01*
X0024860Y0228459D01*
X0024720Y0228453D01*
X0024580Y0228443D01*
X0024440Y0228430D01*
X0024301Y0228412D01*
X0024162Y0228390D01*
X0024025Y0228365D01*
X0023887Y0228336D01*
X0023751Y0228303D01*
X0023616Y0228266D01*
X0023482Y0228225D01*
X0023349Y0228180D01*
X0023217Y0228132D01*
X0023087Y0228080D01*
X0022958Y0228025D01*
X0022831Y0227966D01*
X0022705Y0227903D01*
X0022581Y0227837D01*
X0022460Y0227768D01*
X0022340Y0227695D01*
X0022222Y0227618D01*
X0022107Y0227539D01*
X0021993Y0227456D01*
X0021883Y0227370D01*
X0021774Y0227281D01*
X0021668Y0227189D01*
X0021565Y0227094D01*
X0021464Y0226997D01*
X0021367Y0226896D01*
X0021272Y0226793D01*
X0021180Y0226687D01*
X0021091Y0226578D01*
X0021005Y0226468D01*
X0020922Y0226354D01*
X0020843Y0226239D01*
X0020766Y0226121D01*
X0020693Y0226001D01*
X0020624Y0225880D01*
X0020558Y0225756D01*
X0020495Y0225630D01*
X0020436Y0225503D01*
X0020381Y0225374D01*
X0020329Y0225244D01*
X0020281Y0225112D01*
X0020236Y0224979D01*
X0020195Y0224845D01*
X0020158Y0224710D01*
X0020125Y0224574D01*
X0020096Y0224436D01*
X0020071Y0224299D01*
X0020049Y0224160D01*
X0020031Y0224021D01*
X0020018Y0223881D01*
X0020008Y0223741D01*
X0020002Y0223601D01*
X0020000Y0223461D01*
X0020000Y0040000D01*
X0020002Y0039860D01*
X0020008Y0039720D01*
X0020018Y0039580D01*
X0020031Y0039440D01*
X0020049Y0039301D01*
X0020071Y0039162D01*
X0020096Y0039025D01*
X0020125Y0038887D01*
X0020158Y0038751D01*
X0020195Y0038616D01*
X0020236Y0038482D01*
X0020281Y0038349D01*
X0020329Y0038217D01*
X0020381Y0038087D01*
X0020436Y0037958D01*
X0020495Y0037831D01*
X0020558Y0037705D01*
X0020624Y0037581D01*
X0020693Y0037460D01*
X0020766Y0037340D01*
X0020843Y0037222D01*
X0020922Y0037107D01*
X0021005Y0036993D01*
X0021091Y0036883D01*
X0021180Y0036774D01*
X0021272Y0036668D01*
X0021367Y0036565D01*
X0021464Y0036464D01*
X0021565Y0036367D01*
X0021668Y0036272D01*
X0021774Y0036180D01*
X0021883Y0036091D01*
X0021993Y0036005D01*
X0022107Y0035922D01*
X0022222Y0035843D01*
X0022340Y0035766D01*
X0022460Y0035693D01*
X0022581Y0035624D01*
X0022705Y0035558D01*
X0022831Y0035495D01*
X0022958Y0035436D01*
X0023087Y0035381D01*
X0023217Y0035329D01*
X0023349Y0035281D01*
X0023482Y0035236D01*
X0023616Y0035195D01*
X0023751Y0035158D01*
X0023887Y0035125D01*
X0024025Y0035096D01*
X0024162Y0035071D01*
X0024301Y0035049D01*
X0024440Y0035031D01*
X0024580Y0035018D01*
X0024720Y0035008D01*
X0024860Y0035002D01*
X0025000Y0035000D01*
X0026700Y0048000D02*
X0026702Y0048158D01*
X0026708Y0048317D01*
X0026718Y0048475D01*
X0026732Y0048632D01*
X0026750Y0048790D01*
X0026771Y0048946D01*
X0026797Y0049103D01*
X0026827Y0049258D01*
X0026860Y0049413D01*
X0026898Y0049567D01*
X0026939Y0049720D01*
X0026984Y0049871D01*
X0027033Y0050022D01*
X0027086Y0050171D01*
X0027142Y0050319D01*
X0027203Y0050466D01*
X0027266Y0050611D01*
X0027334Y0050754D01*
X0027405Y0050895D01*
X0027479Y0051035D01*
X0027557Y0051173D01*
X0027639Y0051309D01*
X0027724Y0051442D01*
X0027812Y0051574D01*
X0027903Y0051703D01*
X0027998Y0051830D01*
X0028096Y0051954D01*
X0028197Y0052076D01*
X0028301Y0052196D01*
X0028407Y0052313D01*
X0028517Y0052427D01*
X0028630Y0052538D01*
X0028745Y0052646D01*
X0028864Y0052752D01*
X0028984Y0052854D01*
X0029107Y0052954D01*
X0029233Y0053050D01*
X0029361Y0053143D01*
X0029492Y0053233D01*
X0029624Y0053319D01*
X0029759Y0053402D01*
X0029896Y0053482D01*
X0030035Y0053558D01*
X0030175Y0053631D01*
X0030318Y0053700D01*
X0030462Y0053766D01*
X0030607Y0053828D01*
X0030755Y0053886D01*
X0030903Y0053941D01*
X0031053Y0053992D01*
X0031204Y0054039D01*
X0031357Y0054082D01*
X0031510Y0054121D01*
X0031664Y0054157D01*
X0031819Y0054188D01*
X0031975Y0054216D01*
X0032132Y0054240D01*
X0032289Y0054260D01*
X0032447Y0054276D01*
X0032604Y0054288D01*
X0032763Y0054296D01*
X0032921Y0054300D01*
X0033079Y0054300D01*
X0033237Y0054296D01*
X0033396Y0054288D01*
X0033553Y0054276D01*
X0033711Y0054260D01*
X0033868Y0054240D01*
X0034025Y0054216D01*
X0034181Y0054188D01*
X0034336Y0054157D01*
X0034490Y0054121D01*
X0034643Y0054082D01*
X0034796Y0054039D01*
X0034947Y0053992D01*
X0035097Y0053941D01*
X0035245Y0053886D01*
X0035393Y0053828D01*
X0035538Y0053766D01*
X0035682Y0053700D01*
X0035825Y0053631D01*
X0035965Y0053558D01*
X0036104Y0053482D01*
X0036241Y0053402D01*
X0036376Y0053319D01*
X0036508Y0053233D01*
X0036639Y0053143D01*
X0036767Y0053050D01*
X0036893Y0052954D01*
X0037016Y0052854D01*
X0037136Y0052752D01*
X0037255Y0052646D01*
X0037370Y0052538D01*
X0037483Y0052427D01*
X0037593Y0052313D01*
X0037699Y0052196D01*
X0037803Y0052076D01*
X0037904Y0051954D01*
X0038002Y0051830D01*
X0038097Y0051703D01*
X0038188Y0051574D01*
X0038276Y0051442D01*
X0038361Y0051309D01*
X0038443Y0051173D01*
X0038521Y0051035D01*
X0038595Y0050895D01*
X0038666Y0050754D01*
X0038734Y0050611D01*
X0038797Y0050466D01*
X0038858Y0050319D01*
X0038914Y0050171D01*
X0038967Y0050022D01*
X0039016Y0049871D01*
X0039061Y0049720D01*
X0039102Y0049567D01*
X0039140Y0049413D01*
X0039173Y0049258D01*
X0039203Y0049103D01*
X0039229Y0048946D01*
X0039250Y0048790D01*
X0039268Y0048632D01*
X0039282Y0048475D01*
X0039292Y0048317D01*
X0039298Y0048158D01*
X0039300Y0048000D01*
X0039298Y0047842D01*
X0039292Y0047683D01*
X0039282Y0047525D01*
X0039268Y0047368D01*
X0039250Y0047210D01*
X0039229Y0047054D01*
X0039203Y0046897D01*
X0039173Y0046742D01*
X0039140Y0046587D01*
X0039102Y0046433D01*
X0039061Y0046280D01*
X0039016Y0046129D01*
X0038967Y0045978D01*
X0038914Y0045829D01*
X0038858Y0045681D01*
X0038797Y0045534D01*
X0038734Y0045389D01*
X0038666Y0045246D01*
X0038595Y0045105D01*
X0038521Y0044965D01*
X0038443Y0044827D01*
X0038361Y0044691D01*
X0038276Y0044558D01*
X0038188Y0044426D01*
X0038097Y0044297D01*
X0038002Y0044170D01*
X0037904Y0044046D01*
X0037803Y0043924D01*
X0037699Y0043804D01*
X0037593Y0043687D01*
X0037483Y0043573D01*
X0037370Y0043462D01*
X0037255Y0043354D01*
X0037136Y0043248D01*
X0037016Y0043146D01*
X0036893Y0043046D01*
X0036767Y0042950D01*
X0036639Y0042857D01*
X0036508Y0042767D01*
X0036376Y0042681D01*
X0036241Y0042598D01*
X0036104Y0042518D01*
X0035965Y0042442D01*
X0035825Y0042369D01*
X0035682Y0042300D01*
X0035538Y0042234D01*
X0035393Y0042172D01*
X0035245Y0042114D01*
X0035097Y0042059D01*
X0034947Y0042008D01*
X0034796Y0041961D01*
X0034643Y0041918D01*
X0034490Y0041879D01*
X0034336Y0041843D01*
X0034181Y0041812D01*
X0034025Y0041784D01*
X0033868Y0041760D01*
X0033711Y0041740D01*
X0033553Y0041724D01*
X0033396Y0041712D01*
X0033237Y0041704D01*
X0033079Y0041700D01*
X0032921Y0041700D01*
X0032763Y0041704D01*
X0032604Y0041712D01*
X0032447Y0041724D01*
X0032289Y0041740D01*
X0032132Y0041760D01*
X0031975Y0041784D01*
X0031819Y0041812D01*
X0031664Y0041843D01*
X0031510Y0041879D01*
X0031357Y0041918D01*
X0031204Y0041961D01*
X0031053Y0042008D01*
X0030903Y0042059D01*
X0030755Y0042114D01*
X0030607Y0042172D01*
X0030462Y0042234D01*
X0030318Y0042300D01*
X0030175Y0042369D01*
X0030035Y0042442D01*
X0029896Y0042518D01*
X0029759Y0042598D01*
X0029624Y0042681D01*
X0029492Y0042767D01*
X0029361Y0042857D01*
X0029233Y0042950D01*
X0029107Y0043046D01*
X0028984Y0043146D01*
X0028864Y0043248D01*
X0028745Y0043354D01*
X0028630Y0043462D01*
X0028517Y0043573D01*
X0028407Y0043687D01*
X0028301Y0043804D01*
X0028197Y0043924D01*
X0028096Y0044046D01*
X0027998Y0044170D01*
X0027903Y0044297D01*
X0027812Y0044426D01*
X0027724Y0044558D01*
X0027639Y0044691D01*
X0027557Y0044827D01*
X0027479Y0044965D01*
X0027405Y0045105D01*
X0027334Y0045246D01*
X0027266Y0045389D01*
X0027203Y0045534D01*
X0027142Y0045681D01*
X0027086Y0045829D01*
X0027033Y0045978D01*
X0026984Y0046129D01*
X0026939Y0046280D01*
X0026898Y0046433D01*
X0026860Y0046587D01*
X0026827Y0046742D01*
X0026797Y0046897D01*
X0026771Y0047054D01*
X0026750Y0047210D01*
X0026732Y0047368D01*
X0026718Y0047525D01*
X0026708Y0047683D01*
X0026702Y0047842D01*
X0026700Y0048000D01*
X0230200Y0048000D02*
X0230202Y0048158D01*
X0230208Y0048317D01*
X0230218Y0048475D01*
X0230232Y0048632D01*
X0230250Y0048790D01*
X0230271Y0048946D01*
X0230297Y0049103D01*
X0230327Y0049258D01*
X0230360Y0049413D01*
X0230398Y0049567D01*
X0230439Y0049720D01*
X0230484Y0049871D01*
X0230533Y0050022D01*
X0230586Y0050171D01*
X0230642Y0050319D01*
X0230703Y0050466D01*
X0230766Y0050611D01*
X0230834Y0050754D01*
X0230905Y0050895D01*
X0230979Y0051035D01*
X0231057Y0051173D01*
X0231139Y0051309D01*
X0231224Y0051442D01*
X0231312Y0051574D01*
X0231403Y0051703D01*
X0231498Y0051830D01*
X0231596Y0051954D01*
X0231697Y0052076D01*
X0231801Y0052196D01*
X0231907Y0052313D01*
X0232017Y0052427D01*
X0232130Y0052538D01*
X0232245Y0052646D01*
X0232364Y0052752D01*
X0232484Y0052854D01*
X0232607Y0052954D01*
X0232733Y0053050D01*
X0232861Y0053143D01*
X0232992Y0053233D01*
X0233124Y0053319D01*
X0233259Y0053402D01*
X0233396Y0053482D01*
X0233535Y0053558D01*
X0233675Y0053631D01*
X0233818Y0053700D01*
X0233962Y0053766D01*
X0234107Y0053828D01*
X0234255Y0053886D01*
X0234403Y0053941D01*
X0234553Y0053992D01*
X0234704Y0054039D01*
X0234857Y0054082D01*
X0235010Y0054121D01*
X0235164Y0054157D01*
X0235319Y0054188D01*
X0235475Y0054216D01*
X0235632Y0054240D01*
X0235789Y0054260D01*
X0235947Y0054276D01*
X0236104Y0054288D01*
X0236263Y0054296D01*
X0236421Y0054300D01*
X0236579Y0054300D01*
X0236737Y0054296D01*
X0236896Y0054288D01*
X0237053Y0054276D01*
X0237211Y0054260D01*
X0237368Y0054240D01*
X0237525Y0054216D01*
X0237681Y0054188D01*
X0237836Y0054157D01*
X0237990Y0054121D01*
X0238143Y0054082D01*
X0238296Y0054039D01*
X0238447Y0053992D01*
X0238597Y0053941D01*
X0238745Y0053886D01*
X0238893Y0053828D01*
X0239038Y0053766D01*
X0239182Y0053700D01*
X0239325Y0053631D01*
X0239465Y0053558D01*
X0239604Y0053482D01*
X0239741Y0053402D01*
X0239876Y0053319D01*
X0240008Y0053233D01*
X0240139Y0053143D01*
X0240267Y0053050D01*
X0240393Y0052954D01*
X0240516Y0052854D01*
X0240636Y0052752D01*
X0240755Y0052646D01*
X0240870Y0052538D01*
X0240983Y0052427D01*
X0241093Y0052313D01*
X0241199Y0052196D01*
X0241303Y0052076D01*
X0241404Y0051954D01*
X0241502Y0051830D01*
X0241597Y0051703D01*
X0241688Y0051574D01*
X0241776Y0051442D01*
X0241861Y0051309D01*
X0241943Y0051173D01*
X0242021Y0051035D01*
X0242095Y0050895D01*
X0242166Y0050754D01*
X0242234Y0050611D01*
X0242297Y0050466D01*
X0242358Y0050319D01*
X0242414Y0050171D01*
X0242467Y0050022D01*
X0242516Y0049871D01*
X0242561Y0049720D01*
X0242602Y0049567D01*
X0242640Y0049413D01*
X0242673Y0049258D01*
X0242703Y0049103D01*
X0242729Y0048946D01*
X0242750Y0048790D01*
X0242768Y0048632D01*
X0242782Y0048475D01*
X0242792Y0048317D01*
X0242798Y0048158D01*
X0242800Y0048000D01*
X0242798Y0047842D01*
X0242792Y0047683D01*
X0242782Y0047525D01*
X0242768Y0047368D01*
X0242750Y0047210D01*
X0242729Y0047054D01*
X0242703Y0046897D01*
X0242673Y0046742D01*
X0242640Y0046587D01*
X0242602Y0046433D01*
X0242561Y0046280D01*
X0242516Y0046129D01*
X0242467Y0045978D01*
X0242414Y0045829D01*
X0242358Y0045681D01*
X0242297Y0045534D01*
X0242234Y0045389D01*
X0242166Y0045246D01*
X0242095Y0045105D01*
X0242021Y0044965D01*
X0241943Y0044827D01*
X0241861Y0044691D01*
X0241776Y0044558D01*
X0241688Y0044426D01*
X0241597Y0044297D01*
X0241502Y0044170D01*
X0241404Y0044046D01*
X0241303Y0043924D01*
X0241199Y0043804D01*
X0241093Y0043687D01*
X0240983Y0043573D01*
X0240870Y0043462D01*
X0240755Y0043354D01*
X0240636Y0043248D01*
X0240516Y0043146D01*
X0240393Y0043046D01*
X0240267Y0042950D01*
X0240139Y0042857D01*
X0240008Y0042767D01*
X0239876Y0042681D01*
X0239741Y0042598D01*
X0239604Y0042518D01*
X0239465Y0042442D01*
X0239325Y0042369D01*
X0239182Y0042300D01*
X0239038Y0042234D01*
X0238893Y0042172D01*
X0238745Y0042114D01*
X0238597Y0042059D01*
X0238447Y0042008D01*
X0238296Y0041961D01*
X0238143Y0041918D01*
X0237990Y0041879D01*
X0237836Y0041843D01*
X0237681Y0041812D01*
X0237525Y0041784D01*
X0237368Y0041760D01*
X0237211Y0041740D01*
X0237053Y0041724D01*
X0236896Y0041712D01*
X0236737Y0041704D01*
X0236579Y0041700D01*
X0236421Y0041700D01*
X0236263Y0041704D01*
X0236104Y0041712D01*
X0235947Y0041724D01*
X0235789Y0041740D01*
X0235632Y0041760D01*
X0235475Y0041784D01*
X0235319Y0041812D01*
X0235164Y0041843D01*
X0235010Y0041879D01*
X0234857Y0041918D01*
X0234704Y0041961D01*
X0234553Y0042008D01*
X0234403Y0042059D01*
X0234255Y0042114D01*
X0234107Y0042172D01*
X0233962Y0042234D01*
X0233818Y0042300D01*
X0233675Y0042369D01*
X0233535Y0042442D01*
X0233396Y0042518D01*
X0233259Y0042598D01*
X0233124Y0042681D01*
X0232992Y0042767D01*
X0232861Y0042857D01*
X0232733Y0042950D01*
X0232607Y0043046D01*
X0232484Y0043146D01*
X0232364Y0043248D01*
X0232245Y0043354D01*
X0232130Y0043462D01*
X0232017Y0043573D01*
X0231907Y0043687D01*
X0231801Y0043804D01*
X0231697Y0043924D01*
X0231596Y0044046D01*
X0231498Y0044170D01*
X0231403Y0044297D01*
X0231312Y0044426D01*
X0231224Y0044558D01*
X0231139Y0044691D01*
X0231057Y0044827D01*
X0230979Y0044965D01*
X0230905Y0045105D01*
X0230834Y0045246D01*
X0230766Y0045389D01*
X0230703Y0045534D01*
X0230642Y0045681D01*
X0230586Y0045829D01*
X0230533Y0045978D01*
X0230484Y0046129D01*
X0230439Y0046280D01*
X0230398Y0046433D01*
X0230360Y0046587D01*
X0230327Y0046742D01*
X0230297Y0046897D01*
X0230271Y0047054D01*
X0230250Y0047210D01*
X0230232Y0047368D01*
X0230218Y0047525D01*
X0230208Y0047683D01*
X0230202Y0047842D01*
X0230200Y0048000D01*
D11*
X0022000Y0035000D02*
X0021941Y0008304D01*
X0022214Y0015980D02*
X0032192Y0014935D01*
X0032192Y0014702D02*
X0022214Y0015980D01*
X0032197Y0016982D01*
X0032197Y0017215D02*
X0032192Y0014702D01*
X0032193Y0015447D02*
X0022214Y0015980D01*
X0032196Y0016470D01*
X0032197Y0017215D02*
X0022214Y0015980D01*
X0249403Y0015482D01*
X0239421Y0014480D01*
X0239420Y0014247D02*
X0249403Y0015482D01*
X0239425Y0016527D01*
X0239426Y0016760D02*
X0239420Y0014247D01*
X0239422Y0014992D02*
X0249403Y0015482D01*
X0239424Y0016015D01*
X0239426Y0016760D02*
X0249403Y0015482D01*
X0249642Y0007804D02*
X0249701Y0034500D01*
X0266500Y0036500D02*
X0309677Y0036500D01*
X0302000Y0036756D02*
X0303024Y0046736D01*
X0303257Y0046736D02*
X0302000Y0036756D01*
X0300976Y0046736D01*
X0300743Y0046736D02*
X0303257Y0046736D01*
X0302512Y0046736D02*
X0302000Y0036756D01*
X0301488Y0046736D01*
X0300743Y0046736D02*
X0302000Y0036756D01*
X0302000Y0226244D01*
X0303024Y0216264D01*
X0303257Y0216264D02*
X0302000Y0226244D01*
X0300976Y0216264D01*
X0300743Y0216264D02*
X0303257Y0216264D01*
X0302512Y0216264D02*
X0302000Y0226244D01*
X0301488Y0216264D01*
X0300743Y0216264D02*
X0302000Y0226244D01*
X0309677Y0226500D02*
X0266500Y0226500D01*
D12*
X0299105Y0138777D02*
X0299310Y0138777D01*
X0299105Y0138776D02*
X0299049Y0138774D01*
X0298993Y0138768D01*
X0298938Y0138759D01*
X0298883Y0138746D01*
X0298830Y0138729D01*
X0298778Y0138708D01*
X0298727Y0138684D01*
X0298678Y0138656D01*
X0298631Y0138626D01*
X0298586Y0138592D01*
X0298544Y0138555D01*
X0298504Y0138515D01*
X0298467Y0138473D01*
X0298433Y0138428D01*
X0298403Y0138381D01*
X0298375Y0138332D01*
X0298351Y0138281D01*
X0298330Y0138229D01*
X0298313Y0138176D01*
X0298300Y0138121D01*
X0298291Y0138066D01*
X0298285Y0138010D01*
X0298283Y0137954D01*
X0298283Y0136721D01*
X0299310Y0136721D01*
X0299373Y0136723D01*
X0299436Y0136729D01*
X0299499Y0136739D01*
X0299561Y0136752D01*
X0299622Y0136769D01*
X0299681Y0136790D01*
X0299740Y0136815D01*
X0299796Y0136843D01*
X0299851Y0136875D01*
X0299904Y0136910D01*
X0299954Y0136948D01*
X0300003Y0136989D01*
X0300048Y0137033D01*
X0300091Y0137080D01*
X0300130Y0137129D01*
X0300167Y0137181D01*
X0300200Y0137235D01*
X0300230Y0137291D01*
X0300257Y0137348D01*
X0300280Y0137407D01*
X0300299Y0137468D01*
X0300314Y0137529D01*
X0300326Y0137591D01*
X0300334Y0137654D01*
X0300338Y0137717D01*
X0300338Y0137781D01*
X0300334Y0137844D01*
X0300326Y0137907D01*
X0300314Y0137969D01*
X0300299Y0138030D01*
X0300280Y0138091D01*
X0300257Y0138150D01*
X0300230Y0138207D01*
X0300200Y0138263D01*
X0300167Y0138317D01*
X0300130Y0138369D01*
X0300091Y0138418D01*
X0300048Y0138465D01*
X0300003Y0138509D01*
X0299954Y0138550D01*
X0299904Y0138588D01*
X0299851Y0138623D01*
X0299796Y0138655D01*
X0299740Y0138683D01*
X0299681Y0138708D01*
X0299622Y0138729D01*
X0299561Y0138746D01*
X0299499Y0138759D01*
X0299436Y0138769D01*
X0299373Y0138775D01*
X0299310Y0138777D01*
X0298283Y0136722D02*
X0298202Y0136724D01*
X0298122Y0136730D01*
X0298042Y0136740D01*
X0297962Y0136754D01*
X0297884Y0136771D01*
X0297806Y0136793D01*
X0297729Y0136818D01*
X0297654Y0136847D01*
X0297580Y0136880D01*
X0297508Y0136916D01*
X0297438Y0136956D01*
X0297370Y0136999D01*
X0297304Y0137046D01*
X0297240Y0137095D01*
X0297179Y0137148D01*
X0297121Y0137204D01*
X0297065Y0137262D01*
X0297012Y0137323D01*
X0296963Y0137387D01*
X0296916Y0137453D01*
X0296873Y0137521D01*
X0296833Y0137591D01*
X0296797Y0137663D01*
X0296764Y0137737D01*
X0296735Y0137812D01*
X0296710Y0137889D01*
X0296688Y0137967D01*
X0296671Y0138045D01*
X0296657Y0138125D01*
X0296647Y0138205D01*
X0296641Y0138285D01*
X0296639Y0138366D01*
X0298283Y0134868D02*
X0300338Y0133121D01*
X0300338Y0135177D01*
X0297461Y0133122D02*
X0297397Y0133145D01*
X0297334Y0133171D01*
X0297273Y0133201D01*
X0297214Y0133234D01*
X0297157Y0133271D01*
X0297102Y0133311D01*
X0297050Y0133354D01*
X0297000Y0133400D01*
X0296952Y0133448D01*
X0296908Y0133499D01*
X0296866Y0133553D01*
X0296828Y0133609D01*
X0296793Y0133667D01*
X0296761Y0133727D01*
X0296733Y0133789D01*
X0296708Y0133852D01*
X0296687Y0133917D01*
X0296670Y0133983D01*
X0296656Y0134049D01*
X0296647Y0134116D01*
X0296641Y0134184D01*
X0296639Y0134252D01*
X0296638Y0134252D02*
X0296640Y0134310D01*
X0296645Y0134368D01*
X0296654Y0134425D01*
X0296667Y0134482D01*
X0296683Y0134538D01*
X0296703Y0134593D01*
X0296726Y0134646D01*
X0296752Y0134698D01*
X0296782Y0134748D01*
X0296815Y0134796D01*
X0296850Y0134842D01*
X0296889Y0134885D01*
X0296930Y0134926D01*
X0296973Y0134965D01*
X0297019Y0135000D01*
X0297067Y0135033D01*
X0297117Y0135063D01*
X0297169Y0135089D01*
X0297222Y0135112D01*
X0297277Y0135132D01*
X0297333Y0135148D01*
X0297390Y0135161D01*
X0297447Y0135170D01*
X0297505Y0135175D01*
X0297563Y0135177D01*
X0297625Y0135175D01*
X0297687Y0135169D01*
X0297748Y0135160D01*
X0297808Y0135146D01*
X0297868Y0135129D01*
X0297926Y0135108D01*
X0297983Y0135084D01*
X0298038Y0135056D01*
X0298092Y0135025D01*
X0298143Y0134990D01*
X0298192Y0134953D01*
X0298239Y0134912D01*
X0298283Y0134869D01*
X0300133Y0131732D02*
X0300338Y0131732D01*
X0300338Y0131526D01*
X0300133Y0131526D01*
X0300133Y0131732D01*
X0299310Y0130137D02*
X0299373Y0130135D01*
X0299436Y0130129D01*
X0299499Y0130119D01*
X0299561Y0130106D01*
X0299622Y0130089D01*
X0299681Y0130068D01*
X0299740Y0130043D01*
X0299796Y0130015D01*
X0299851Y0129983D01*
X0299904Y0129948D01*
X0299954Y0129910D01*
X0300003Y0129869D01*
X0300048Y0129825D01*
X0300091Y0129778D01*
X0300130Y0129729D01*
X0300167Y0129677D01*
X0300200Y0129623D01*
X0300230Y0129567D01*
X0300257Y0129510D01*
X0300280Y0129451D01*
X0300299Y0129390D01*
X0300314Y0129329D01*
X0300326Y0129267D01*
X0300334Y0129204D01*
X0300338Y0129141D01*
X0300338Y0129077D01*
X0300334Y0129014D01*
X0300326Y0128951D01*
X0300314Y0128889D01*
X0300299Y0128828D01*
X0300280Y0128767D01*
X0300257Y0128708D01*
X0300230Y0128651D01*
X0300200Y0128595D01*
X0300167Y0128541D01*
X0300130Y0128489D01*
X0300091Y0128440D01*
X0300048Y0128393D01*
X0300003Y0128349D01*
X0299954Y0128308D01*
X0299904Y0128270D01*
X0299851Y0128235D01*
X0299796Y0128203D01*
X0299740Y0128175D01*
X0299681Y0128150D01*
X0299622Y0128129D01*
X0299561Y0128112D01*
X0299499Y0128099D01*
X0299436Y0128089D01*
X0299373Y0128083D01*
X0299310Y0128081D01*
X0299247Y0128083D01*
X0299184Y0128089D01*
X0299121Y0128099D01*
X0299059Y0128112D01*
X0298998Y0128129D01*
X0298939Y0128150D01*
X0298880Y0128175D01*
X0298824Y0128203D01*
X0298769Y0128235D01*
X0298716Y0128270D01*
X0298666Y0128308D01*
X0298617Y0128349D01*
X0298572Y0128393D01*
X0298529Y0128440D01*
X0298490Y0128489D01*
X0298453Y0128541D01*
X0298420Y0128595D01*
X0298390Y0128651D01*
X0298363Y0128708D01*
X0298340Y0128767D01*
X0298321Y0128828D01*
X0298306Y0128889D01*
X0298294Y0128951D01*
X0298286Y0129014D01*
X0298282Y0129077D01*
X0298282Y0129141D01*
X0298286Y0129204D01*
X0298294Y0129267D01*
X0298306Y0129329D01*
X0298321Y0129390D01*
X0298340Y0129451D01*
X0298363Y0129510D01*
X0298390Y0129567D01*
X0298420Y0129623D01*
X0298453Y0129677D01*
X0298490Y0129729D01*
X0298529Y0129778D01*
X0298572Y0129825D01*
X0298617Y0129869D01*
X0298666Y0129910D01*
X0298716Y0129948D01*
X0298769Y0129983D01*
X0298824Y0130015D01*
X0298880Y0130043D01*
X0298939Y0130068D01*
X0298998Y0130089D01*
X0299059Y0130106D01*
X0299121Y0130119D01*
X0299184Y0130129D01*
X0299247Y0130135D01*
X0299310Y0130137D01*
X0297460Y0129931D02*
X0297516Y0129929D01*
X0297572Y0129923D01*
X0297627Y0129914D01*
X0297682Y0129901D01*
X0297735Y0129884D01*
X0297787Y0129863D01*
X0297838Y0129839D01*
X0297887Y0129811D01*
X0297934Y0129781D01*
X0297979Y0129747D01*
X0298021Y0129710D01*
X0298061Y0129670D01*
X0298098Y0129628D01*
X0298132Y0129583D01*
X0298162Y0129536D01*
X0298190Y0129487D01*
X0298214Y0129436D01*
X0298235Y0129384D01*
X0298252Y0129331D01*
X0298265Y0129276D01*
X0298274Y0129221D01*
X0298280Y0129165D01*
X0298282Y0129109D01*
X0298280Y0129053D01*
X0298274Y0128997D01*
X0298265Y0128942D01*
X0298252Y0128887D01*
X0298235Y0128834D01*
X0298214Y0128782D01*
X0298190Y0128731D01*
X0298162Y0128682D01*
X0298132Y0128635D01*
X0298098Y0128590D01*
X0298061Y0128548D01*
X0298021Y0128508D01*
X0297979Y0128471D01*
X0297934Y0128437D01*
X0297887Y0128407D01*
X0297838Y0128379D01*
X0297787Y0128355D01*
X0297735Y0128334D01*
X0297682Y0128317D01*
X0297627Y0128304D01*
X0297572Y0128295D01*
X0297516Y0128289D01*
X0297460Y0128287D01*
X0297404Y0128289D01*
X0297348Y0128295D01*
X0297293Y0128304D01*
X0297238Y0128317D01*
X0297185Y0128334D01*
X0297133Y0128355D01*
X0297082Y0128379D01*
X0297033Y0128407D01*
X0296986Y0128437D01*
X0296941Y0128471D01*
X0296899Y0128508D01*
X0296859Y0128548D01*
X0296822Y0128590D01*
X0296788Y0128635D01*
X0296758Y0128682D01*
X0296730Y0128731D01*
X0296706Y0128782D01*
X0296685Y0128834D01*
X0296668Y0128887D01*
X0296655Y0128942D01*
X0296646Y0128997D01*
X0296640Y0129053D01*
X0296638Y0129109D01*
X0296640Y0129165D01*
X0296646Y0129221D01*
X0296655Y0129276D01*
X0296668Y0129331D01*
X0296685Y0129384D01*
X0296706Y0129436D01*
X0296730Y0129487D01*
X0296758Y0129536D01*
X0296788Y0129583D01*
X0296822Y0129628D01*
X0296859Y0129670D01*
X0296899Y0129710D01*
X0296941Y0129747D01*
X0296986Y0129781D01*
X0297033Y0129811D01*
X0297082Y0129839D01*
X0297133Y0129863D01*
X0297185Y0129884D01*
X0297238Y0129901D01*
X0297293Y0129914D01*
X0297348Y0129923D01*
X0297404Y0129929D01*
X0297460Y0129931D01*
X0299516Y0126537D02*
X0299516Y0124481D01*
X0296638Y0125303D01*
X0298694Y0125920D02*
X0300338Y0125920D01*
X0143090Y0018205D02*
X0141035Y0018209D01*
X0141862Y0021085D01*
X0142475Y0019029D02*
X0142472Y0017384D01*
X0139491Y0018417D02*
X0139489Y0018354D01*
X0139483Y0018291D01*
X0139473Y0018228D01*
X0139460Y0018167D01*
X0139442Y0018106D01*
X0139421Y0018046D01*
X0139396Y0017988D01*
X0139368Y0017931D01*
X0139336Y0017876D01*
X0139301Y0017824D01*
X0139263Y0017773D01*
X0139221Y0017725D01*
X0139177Y0017680D01*
X0139130Y0017637D01*
X0139081Y0017598D01*
X0139029Y0017561D01*
X0138975Y0017528D01*
X0138920Y0017498D01*
X0138862Y0017472D01*
X0138803Y0017449D01*
X0138743Y0017430D01*
X0138681Y0017414D01*
X0138619Y0017403D01*
X0138556Y0017395D01*
X0138493Y0017391D01*
X0138430Y0017392D01*
X0138366Y0017396D01*
X0138304Y0017403D01*
X0138241Y0017415D01*
X0138180Y0017431D01*
X0138120Y0017450D01*
X0138061Y0017473D01*
X0138003Y0017500D01*
X0137947Y0017530D01*
X0137894Y0017563D01*
X0137842Y0017600D01*
X0137793Y0017639D01*
X0137746Y0017682D01*
X0137702Y0017728D01*
X0137661Y0017776D01*
X0137623Y0017827D01*
X0137588Y0017879D01*
X0137556Y0017934D01*
X0137528Y0017991D01*
X0137504Y0018049D01*
X0137483Y0018109D01*
X0137466Y0018170D01*
X0137452Y0018232D01*
X0137443Y0018294D01*
X0137437Y0018357D01*
X0137435Y0018421D01*
X0137437Y0018484D01*
X0137443Y0018547D01*
X0137453Y0018610D01*
X0137466Y0018671D01*
X0137484Y0018732D01*
X0137505Y0018792D01*
X0137530Y0018850D01*
X0137558Y0018907D01*
X0137590Y0018962D01*
X0137625Y0019014D01*
X0137663Y0019065D01*
X0137705Y0019113D01*
X0137749Y0019158D01*
X0137796Y0019201D01*
X0137845Y0019240D01*
X0137897Y0019277D01*
X0137951Y0019310D01*
X0138006Y0019340D01*
X0138064Y0019366D01*
X0138123Y0019389D01*
X0138183Y0019408D01*
X0138245Y0019424D01*
X0138307Y0019435D01*
X0138370Y0019443D01*
X0138433Y0019447D01*
X0138496Y0019446D01*
X0138560Y0019442D01*
X0138622Y0019435D01*
X0138685Y0019423D01*
X0138746Y0019407D01*
X0138806Y0019388D01*
X0138865Y0019365D01*
X0138923Y0019338D01*
X0138979Y0019308D01*
X0139032Y0019275D01*
X0139084Y0019238D01*
X0139133Y0019199D01*
X0139180Y0019156D01*
X0139224Y0019110D01*
X0139265Y0019062D01*
X0139303Y0019011D01*
X0139338Y0018959D01*
X0139370Y0018904D01*
X0139398Y0018847D01*
X0139422Y0018789D01*
X0139443Y0018729D01*
X0139460Y0018668D01*
X0139474Y0018606D01*
X0139483Y0018544D01*
X0139489Y0018480D01*
X0139491Y0018417D01*
X0139288Y0020268D02*
X0139286Y0020211D01*
X0139280Y0020156D01*
X0139271Y0020100D01*
X0139257Y0020046D01*
X0139240Y0019992D01*
X0139219Y0019940D01*
X0139195Y0019890D01*
X0139168Y0019841D01*
X0139137Y0019794D01*
X0139103Y0019749D01*
X0139066Y0019707D01*
X0139026Y0019667D01*
X0138984Y0019630D01*
X0138939Y0019597D01*
X0138892Y0019566D01*
X0138843Y0019538D01*
X0138792Y0019514D01*
X0138740Y0019494D01*
X0138686Y0019477D01*
X0138632Y0019464D01*
X0138577Y0019454D01*
X0138521Y0019449D01*
X0138465Y0019447D01*
X0138408Y0019449D01*
X0138353Y0019455D01*
X0138297Y0019464D01*
X0138243Y0019478D01*
X0138189Y0019495D01*
X0138137Y0019516D01*
X0138087Y0019540D01*
X0138038Y0019567D01*
X0137991Y0019598D01*
X0137946Y0019632D01*
X0137904Y0019669D01*
X0137864Y0019709D01*
X0137827Y0019751D01*
X0137794Y0019796D01*
X0137763Y0019843D01*
X0137736Y0019892D01*
X0137711Y0019943D01*
X0137691Y0019995D01*
X0137674Y0020049D01*
X0137661Y0020103D01*
X0137651Y0020158D01*
X0137646Y0020214D01*
X0137644Y0020270D01*
X0137646Y0020327D01*
X0137652Y0020382D01*
X0137661Y0020438D01*
X0137675Y0020492D01*
X0137692Y0020546D01*
X0137713Y0020598D01*
X0137737Y0020648D01*
X0137764Y0020697D01*
X0137795Y0020744D01*
X0137829Y0020789D01*
X0137866Y0020831D01*
X0137906Y0020871D01*
X0137948Y0020908D01*
X0137993Y0020941D01*
X0138040Y0020972D01*
X0138089Y0020999D01*
X0138140Y0021024D01*
X0138192Y0021044D01*
X0138246Y0021061D01*
X0138300Y0021074D01*
X0138355Y0021084D01*
X0138411Y0021089D01*
X0138467Y0021091D01*
X0138524Y0021089D01*
X0138579Y0021083D01*
X0138635Y0021074D01*
X0138689Y0021060D01*
X0138743Y0021043D01*
X0138795Y0021022D01*
X0138845Y0020998D01*
X0138894Y0020971D01*
X0138941Y0020940D01*
X0138986Y0020906D01*
X0139028Y0020869D01*
X0139068Y0020829D01*
X0139105Y0020787D01*
X0139138Y0020742D01*
X0139169Y0020695D01*
X0139197Y0020646D01*
X0139221Y0020595D01*
X0139241Y0020543D01*
X0139258Y0020489D01*
X0139271Y0020435D01*
X0139281Y0020380D01*
X0139286Y0020324D01*
X0139288Y0020268D01*
X0136044Y0017601D02*
X0136044Y0017396D01*
X0135838Y0017396D01*
X0135839Y0017601D01*
X0136044Y0017601D01*
X0133421Y0017400D02*
X0134455Y0021098D01*
X0132400Y0021102D01*
X0132399Y0020691D01*
X0130855Y0021105D02*
X0128800Y0021108D01*
X0128797Y0019464D01*
X0130030Y0019462D01*
X0130030Y0019461D02*
X0130087Y0019459D01*
X0130142Y0019453D01*
X0130198Y0019444D01*
X0130252Y0019430D01*
X0130306Y0019413D01*
X0130358Y0019392D01*
X0130408Y0019368D01*
X0130457Y0019341D01*
X0130504Y0019310D01*
X0130549Y0019276D01*
X0130591Y0019239D01*
X0130631Y0019199D01*
X0130668Y0019157D01*
X0130701Y0019112D01*
X0130732Y0019065D01*
X0130760Y0019016D01*
X0130784Y0018965D01*
X0130804Y0018913D01*
X0130821Y0018859D01*
X0130834Y0018805D01*
X0130844Y0018750D01*
X0130849Y0018694D01*
X0130851Y0018638D01*
X0130850Y0018227D01*
X0130848Y0018170D01*
X0130842Y0018115D01*
X0130833Y0018059D01*
X0130819Y0018005D01*
X0130802Y0017951D01*
X0130781Y0017899D01*
X0130757Y0017849D01*
X0130730Y0017800D01*
X0130699Y0017753D01*
X0130665Y0017708D01*
X0130628Y0017666D01*
X0130588Y0017626D01*
X0130546Y0017589D01*
X0130501Y0017556D01*
X0130454Y0017525D01*
X0130405Y0017497D01*
X0130354Y0017473D01*
X0130302Y0017453D01*
X0130248Y0017436D01*
X0130194Y0017423D01*
X0130139Y0017413D01*
X0130083Y0017408D01*
X0130027Y0017406D01*
X0128793Y0017408D01*
D13*
X0146500Y0169807D03*
X0146500Y0183193D03*
D14*
X0046500Y0136500D03*
D15*
X0056500Y0136500D03*
X0066500Y0136500D03*
X0076500Y0136500D03*
X0086500Y0136500D03*
X0096500Y0136500D03*
X0106500Y0136500D03*
X0116500Y0136500D03*
X0126500Y0136500D03*
X0136500Y0136500D03*
X0146500Y0136500D03*
X0156500Y0136500D03*
X0166500Y0136500D03*
X0176500Y0136500D03*
X0186500Y0136500D03*
X0186500Y0196500D03*
X0176500Y0196500D03*
X0166500Y0196500D03*
X0156500Y0196500D03*
X0146500Y0196500D03*
X0136500Y0196500D03*
X0126500Y0196500D03*
X0116500Y0196500D03*
X0106500Y0196500D03*
X0096500Y0196500D03*
X0086500Y0196500D03*
X0076500Y0196500D03*
X0066500Y0196500D03*
X0056500Y0196500D03*
X0046500Y0196500D03*
D16*
X0046500Y0210000D02*
X0046500Y0216000D01*
X0056500Y0216000D02*
X0056500Y0210000D01*
X0066500Y0210000D02*
X0066500Y0216000D01*
X0076500Y0216000D02*
X0076500Y0210000D01*
X0086500Y0210000D02*
X0086500Y0216000D01*
X0096500Y0216000D02*
X0096500Y0210000D01*
X0106500Y0210000D02*
X0106500Y0216000D01*
X0116500Y0216000D02*
X0116500Y0210000D01*
X0219500Y0165500D02*
X0225500Y0165500D01*
X0225500Y0155500D02*
X0219500Y0155500D01*
X0219500Y0145500D02*
X0225500Y0145500D01*
D17*
X0151500Y0152760D03*
X0151500Y0160240D03*
X0131500Y0160240D03*
X0131500Y0152760D03*
X0111500Y0152760D03*
X0111500Y0160240D03*
X0111500Y0171260D03*
X0111500Y0178740D03*
X0131500Y0179240D03*
X0131500Y0171760D03*
D18*
X0092000Y0076366D03*
X0082000Y0076366D03*
X0072000Y0076366D03*
X0062000Y0076366D03*
X0184500Y0076366D03*
X0194500Y0076366D03*
X0204500Y0076366D03*
X0214500Y0076366D03*
D19*
X0214264Y0048098D03*
X0184736Y0048098D03*
X0091764Y0048098D03*
X0062236Y0048098D03*
D20*
X0175000Y0163004D03*
X0175000Y0184500D03*
D21*
X0094000Y0178600D03*
X0089000Y0178600D03*
X0084000Y0178600D03*
X0079000Y0178600D03*
X0074000Y0178600D03*
X0069000Y0178600D03*
X0064000Y0178600D03*
X0059000Y0178600D03*
X0059000Y0154400D03*
X0064000Y0154400D03*
X0069000Y0154400D03*
X0074000Y0154400D03*
X0079000Y0154400D03*
X0084000Y0154400D03*
X0089000Y0154400D03*
X0094000Y0154400D03*
D22*
X0087976Y0090594D03*
X0104524Y0090094D03*
X0122476Y0090094D03*
X0152524Y0090594D03*
X0170476Y0090594D03*
X0187524Y0090594D03*
X0205476Y0090594D03*
X0223024Y0091094D03*
X0240976Y0091094D03*
X0070024Y0090594D03*
X0056976Y0090094D03*
X0039024Y0090094D03*
D23*
X0048000Y0114252D03*
X0079000Y0114752D03*
X0113500Y0114252D03*
X0161500Y0114752D03*
X0196500Y0114752D03*
X0232000Y0115252D03*
D24*
X0140437Y0066500D03*
X0132563Y0066500D03*
X0222063Y0196500D03*
X0229937Y0196500D03*
D25*
X0239189Y0219138D03*
X0212811Y0219138D03*
X0149689Y0043862D03*
X0123311Y0043862D03*
D26*
X0162260Y0049000D03*
X0169740Y0049000D03*
X0169740Y0065000D03*
X0162260Y0065000D03*
X0140240Y0096500D03*
X0132760Y0096500D03*
X0132760Y0106500D03*
X0140240Y0106500D03*
X0140240Y0116500D03*
X0132760Y0116500D03*
X0047240Y0077000D03*
X0039760Y0077000D03*
X0040240Y0151500D03*
X0032760Y0151500D03*
X0033260Y0165500D03*
X0040740Y0165500D03*
X0040740Y0179000D03*
X0033260Y0179000D03*
X0227760Y0071500D03*
X0235240Y0071500D03*
D27*
X0240460Y0076720D01*
X0240460Y0087069D01*
X0240976Y0091094D01*
X0231500Y0086500D02*
X0231500Y0114332D01*
X0230945Y0114887D01*
X0233500Y0115252D01*
X0232000Y0115252D02*
X0230945Y0114887D01*
X0216500Y0121000D02*
X0216500Y0091000D01*
X0221500Y0086500D01*
X0221500Y0090118D01*
X0223024Y0091094D01*
X0226500Y0071500D02*
X0227760Y0071500D01*
X0227760Y0071260D01*
X0221000Y0064500D01*
X0197500Y0064500D01*
X0194500Y0067500D01*
X0194500Y0076366D01*
X0186500Y0091500D02*
X0186550Y0091650D01*
X0187000Y0093000D01*
X0186500Y0091500D02*
X0180500Y0097500D01*
X0180500Y0120500D01*
X0179250Y0121750D01*
X0177750Y0123250D01*
X0177500Y0123500D02*
X0172500Y0128500D01*
X0152500Y0128500D01*
X0146500Y0121500D01*
X0146500Y0112760D01*
X0140240Y0106500D01*
X0132760Y0106500D02*
X0132760Y0116500D01*
X0132760Y0123240D01*
X0126000Y0130000D01*
X0061763Y0130000D01*
X0061663Y0130100D01*
X0061639Y0130122D01*
X0042878Y0130122D01*
X0039500Y0133500D01*
X0039500Y0140500D01*
X0042500Y0143500D01*
X0074500Y0143500D01*
X0079500Y0148500D01*
X0079500Y0151500D01*
X0079000Y0152000D01*
X0079000Y0154400D01*
X0069500Y0154900D02*
X0069500Y0161000D01*
X0069500Y0154900D02*
X0069000Y0154400D01*
X0059000Y0154000D02*
X0042740Y0154000D01*
X0040240Y0151500D01*
X0040500Y0151240D01*
X0040500Y0146500D01*
X0036000Y0142000D01*
X0030000Y0142000D01*
X0025000Y0145240D02*
X0025000Y0101618D01*
X0039024Y0090094D01*
X0039760Y0077000D02*
X0032500Y0077000D01*
X0047240Y0077000D02*
X0056500Y0086260D01*
X0056500Y0089000D01*
X0056500Y0089571D01*
X0056976Y0090094D01*
X0056500Y0089000D02*
X0056500Y0086500D01*
X0055660Y0079871D02*
X0063000Y0084211D01*
X0063000Y0099752D01*
X0048000Y0114252D01*
X0035500Y0128000D02*
X0061000Y0128000D01*
X0075748Y0114752D01*
X0079000Y0114752D01*
X0076500Y0136500D02*
X0082500Y0142500D01*
X0090000Y0142500D01*
X0097500Y0151000D01*
X0097500Y0160500D01*
X0093500Y0165500D01*
X0040740Y0165500D01*
X0033260Y0165500D02*
X0033260Y0179000D01*
X0033500Y0179240D01*
X0033500Y0184000D01*
X0034500Y0185000D01*
X0057000Y0185000D01*
X0059000Y0183000D01*
X0059000Y0178600D01*
X0069000Y0178600D02*
X0069000Y0187500D01*
X0066000Y0190500D01*
X0035000Y0190500D01*
X0031500Y0194000D01*
X0031500Y0208500D01*
X0027000Y0215000D02*
X0027000Y0187260D01*
X0033130Y0181130D01*
X0033130Y0179130D01*
X0032760Y0177000D01*
X0033260Y0179000D02*
X0033130Y0179130D01*
X0040740Y0179000D02*
X0051740Y0168500D01*
X0095500Y0168500D01*
X0101000Y0162500D01*
X0101000Y0149000D01*
X0088500Y0136500D01*
X0086500Y0136500D01*
X0089000Y0147500D02*
X0089000Y0154400D01*
X0094000Y0154400D01*
X0104500Y0157000D02*
X0107240Y0160240D01*
X0111500Y0160240D01*
X0111500Y0159827D01*
X0111500Y0160240D02*
X0112500Y0160240D01*
X0111500Y0152760D02*
X0111500Y0152500D01*
X0120500Y0152500D01*
X0131500Y0152500D01*
X0131500Y0152760D01*
X0151500Y0152760D01*
X0152740Y0159000D02*
X0151500Y0160240D01*
X0151500Y0164807D01*
X0146500Y0169807D01*
X0140500Y0175500D02*
X0161500Y0175500D01*
X0173996Y0163004D01*
X0175000Y0163004D01*
X0164000Y0154500D02*
X0159500Y0159000D01*
X0152740Y0159000D01*
X0164000Y0154500D02*
X0164000Y0147000D01*
X0160000Y0143000D01*
X0111500Y0143000D01*
X0106500Y0138000D01*
X0106500Y0136500D01*
X0106500Y0139500D01*
X0104500Y0142000D01*
X0104500Y0157000D01*
X0101500Y0171500D02*
X0106740Y0178740D01*
X0111500Y0178740D01*
X0118000Y0173500D02*
X0115760Y0171260D01*
X0111500Y0171260D01*
X0118000Y0173500D02*
X0118000Y0184500D01*
X0120500Y0187000D01*
X0142693Y0187000D01*
X0146500Y0183193D01*
X0173693Y0183193D01*
X0175000Y0184500D01*
X0156500Y0189000D02*
X0156500Y0196500D01*
X0131500Y0179240D02*
X0123760Y0179240D01*
X0123000Y0179500D01*
X0131500Y0171760D02*
X0131500Y0160240D01*
X0136240Y0160240D01*
X0138500Y0162500D01*
X0138500Y0173500D01*
X0140500Y0175500D01*
X0116500Y0190500D02*
X0116500Y0196500D01*
X0116500Y0190500D02*
X0112500Y0186500D01*
X0101900Y0186500D01*
X0094000Y0178600D01*
X0089000Y0178600D02*
X0089000Y0184000D01*
X0094500Y0189500D01*
X0101000Y0189500D01*
X0106500Y0195000D01*
X0106500Y0196500D01*
X0118500Y0204500D02*
X0126500Y0196500D01*
X0118500Y0204500D02*
X0080500Y0204500D01*
X0076500Y0208500D01*
X0076500Y0213000D01*
X0086500Y0213000D02*
X0086500Y0219000D01*
X0082674Y0222826D01*
X0034826Y0222826D01*
X0027000Y0215000D01*
X0046500Y0213000D02*
X0046500Y0196500D01*
X0056500Y0196500D02*
X0056500Y0213000D01*
X0066500Y0213000D02*
X0066500Y0196500D01*
X0079000Y0184000D02*
X0081500Y0186500D01*
X0079000Y0184000D02*
X0079000Y0178600D01*
X0074000Y0178600D02*
X0074000Y0173500D01*
X0076000Y0171500D01*
X0101500Y0171500D01*
X0089000Y0178600D02*
X0089000Y0180500D01*
X0089000Y0180456D02*
X0089000Y0178600D01*
X0032760Y0151500D02*
X0025000Y0145240D01*
X0079000Y0090594D02*
X0079000Y0090500D01*
X0079311Y0090500D01*
X0079406Y0090594D01*
X0079500Y0090500D01*
X0092366Y0077366D02*
X0092000Y0076366D01*
X0096500Y0065000D02*
X0104500Y0073000D01*
X0104500Y0089008D01*
X0104038Y0089470D01*
X0104524Y0090094D01*
X0104038Y0089470D02*
X0102524Y0087524D01*
X0096500Y0065000D02*
X0064021Y0065000D01*
X0055660Y0071861D01*
X0055660Y0079871D01*
X0132760Y0091240D02*
X0141000Y0081500D01*
X0140500Y0089500D02*
X0140240Y0096500D01*
X0141500Y0095240D01*
X0132760Y0096500D02*
X0132760Y0091240D01*
X0159500Y0113000D02*
X0160500Y0114000D01*
X0161252Y0114752D01*
X0161500Y0114752D01*
X0161500Y0116500D01*
X0161000Y0113000D02*
X0159500Y0113000D01*
X0141500Y0117760D02*
X0141500Y0121500D01*
X0151500Y0131500D01*
X0206500Y0131500D01*
X0216500Y0121000D01*
X0196500Y0114752D02*
X0183252Y0126500D01*
X0182000Y0126500D01*
X0186500Y0136500D02*
X0187000Y0137000D01*
X0187000Y0141500D01*
X0191000Y0145500D01*
X0222500Y0145500D01*
X0222500Y0165500D02*
X0222250Y0165750D01*
X0222000Y0196500D02*
X0218500Y0196500D01*
X0212000Y0196500D01*
X0229937Y0196500D02*
X0230937Y0197500D01*
X0240000Y0197500D01*
X0141500Y0117760D02*
X0140240Y0116500D01*
X0172000Y0072500D02*
X0172000Y0067260D01*
X0169740Y0065000D01*
X0171500Y0063240D01*
X0170000Y0056000D02*
X0170000Y0051260D01*
X0169740Y0049000D01*
X0162260Y0049000D02*
X0162260Y0065000D01*
X0161260Y0064000D01*
D28*
X0170000Y0056000D03*
X0172000Y0072500D03*
X0153000Y0080500D03*
X0141000Y0081500D03*
X0140500Y0089500D03*
X0182000Y0126500D03*
X0231500Y0086500D03*
X0120500Y0152500D03*
X0089000Y0147500D03*
X0069500Y0161000D03*
X0081500Y0186500D03*
X0123000Y0179500D03*
X0156500Y0189000D03*
X0035500Y0128000D03*
X0030000Y0142000D03*
X0079000Y0090500D03*
X0032500Y0077000D03*
X0031500Y0208500D03*
D29*
X0079000Y0114752D02*
X0082248Y0114752D01*
X0094000Y0103000D01*
X0094000Y0078366D01*
X0092000Y0076366D01*
X0098500Y0072500D02*
X0098500Y0103000D01*
X0110032Y0114532D01*
X0111121Y0114532D01*
X0113500Y0114252D01*
X0111121Y0114532D02*
X0109252Y0114752D01*
X0087976Y0090594D02*
X0087976Y0087476D01*
X0084500Y0084000D01*
X0079634Y0084000D01*
X0072000Y0076366D01*
X0069366Y0069000D02*
X0095000Y0069000D01*
X0098500Y0072500D01*
X0122000Y0066500D02*
X0132563Y0066500D01*
X0140437Y0070437D02*
X0140435Y0070561D01*
X0140430Y0070684D01*
X0140420Y0070808D01*
X0140407Y0070931D01*
X0140390Y0071053D01*
X0140370Y0071176D01*
X0140346Y0071297D01*
X0140318Y0071417D01*
X0140287Y0071537D01*
X0140251Y0071656D01*
X0140213Y0071773D01*
X0140171Y0071890D01*
X0140125Y0072005D01*
X0140076Y0072118D01*
X0140024Y0072231D01*
X0139968Y0072341D01*
X0139909Y0072450D01*
X0139846Y0072557D01*
X0139781Y0072661D01*
X0139712Y0072764D01*
X0139640Y0072865D01*
X0139565Y0072964D01*
X0139487Y0073060D01*
X0139407Y0073154D01*
X0139323Y0073245D01*
X0139237Y0073334D01*
X0122476Y0090094D01*
X0140437Y0070437D02*
X0140437Y0066500D01*
X0151000Y0066500D01*
X0147000Y0073500D02*
X0140437Y0070437D01*
X0147000Y0073500D02*
X0162500Y0073500D01*
X0170476Y0084976D01*
X0170476Y0090594D01*
X0171500Y0089571D01*
X0177500Y0095500D02*
X0177500Y0083500D01*
X0184500Y0078000D01*
X0184500Y0076366D01*
X0194500Y0076366D02*
X0205476Y0087343D01*
X0205476Y0090594D01*
X0212500Y0098752D02*
X0212500Y0078366D01*
X0214500Y0076366D01*
X0212500Y0098752D02*
X0196500Y0114752D01*
X0177500Y0095500D02*
X0160500Y0114000D01*
X0152524Y0090594D02*
X0152524Y0086976D01*
X0153000Y0086500D01*
X0153000Y0080500D01*
X0079000Y0090500D02*
X0070118Y0090500D01*
X0070024Y0090594D01*
X0062000Y0076366D02*
X0069366Y0069000D01*
X0222063Y0165937D02*
X0222250Y0165750D01*
X0222063Y0165937D02*
X0222063Y0195500D01*
D30*
X0212000Y0196500D03*
X0240000Y0197500D03*
X0151000Y0066500D03*
X0122000Y0066500D03*
D31*
X0151000Y0066500D02*
X0160760Y0066500D01*
X0162260Y0065000D01*
D32*
X0187524Y0090594D02*
X0186550Y0091568D01*
X0186550Y0091650D01*
X0179250Y0121750D02*
X0177500Y0123500D01*
X0178100Y0122900D01*
X0218500Y0196500D02*
X0222063Y0196500D01*
X0222063Y0195500D01*
X0059000Y0154400D02*
X0059000Y0154000D01*
M02*
