%
M48
M72
T01C0.02362
T02C0.03150
T03C0.03937
T04C0.04000
T05C0.04921
T06C0.06890
T07C0.12600
%
T01
X32500Y77000
X79000Y90500
X35500Y128000
X30000Y142000
X69500Y161000
X89000Y147500
X120500Y152500
X123000Y179500
X156500Y189000
X81500Y186500
X31500Y208500
X182000Y126500
X140500Y89500
X141000Y81500
X153000Y80500
X172000Y72500
X170000Y56000
X231500Y86500
T02
X186500Y136500
X176500Y136500
X166500Y136500
X156500Y136500
X146500Y136500
X136500Y136500
X126500Y136500
X116500Y136500
X106500Y136500
X96500Y136500
X86500Y136500
X76500Y136500
X66500Y136500
X56500Y136500
X46500Y136500
X46500Y196500
X56500Y196500
X66500Y196500
X76500Y196500
X86500Y196500
X96500Y196500
X106500Y196500
X116500Y196500
X126500Y196500
X136500Y196500
X146500Y196500
X156500Y196500
X166500Y196500
X176500Y196500
X186500Y196500
T03
X212000Y196500
X240000Y197500
X151000Y66500
X122000Y66500
T04
X222500Y145500
X222500Y155500
X222500Y165500
X116500Y213000
X106500Y213000
X96500Y213000
X86500Y213000
X76500Y213000
X66500Y213000
X56500Y213000
X46500Y213000
T05
X62000Y76366
X72000Y76366
X82000Y76366
X92000Y76366
X184500Y76366
X194500Y76366
X204500Y76366
X214500Y76366
T06
X214264Y48098
X184736Y48098
X91764Y48098
X62236Y48098
T07
X33000Y48000
X236500Y48000
M30
