G75*
%MOIN*%
%OFA0B0*%
%FSLAX25Y25*%
%IPPOS*%
%LPD*%
%AMOC8*
5,1,8,0,0,1.08239X$1,22.5*
%
%ADD10C,0.00400*%
%ADD11C,0.00197*%
%ADD12C,0.00787*%
%ADD13C,0.00500*%
%ADD14C,0.00063*%
%ADD15C,0.00600*%
%ADD16C,0.01000*%
%ADD17C,0.00300*%
%ADD18C,0.00200*%
%ADD19C,0.00800*%
%ADD20R,0.03400X0.03000*%
%ADD21C,0.01000*%
D10*
X0072437Y0052826D02*
X0072948Y0052826D01*
X0073010Y0052828D01*
X0073071Y0052833D01*
X0073132Y0052843D01*
X0073193Y0052856D01*
X0073252Y0052872D01*
X0073310Y0052892D01*
X0073367Y0052916D01*
X0073423Y0052943D01*
X0073477Y0052973D01*
X0073529Y0053007D01*
X0073578Y0053043D01*
X0073626Y0053083D01*
X0073671Y0053125D01*
X0073713Y0053170D01*
X0073753Y0053218D01*
X0073789Y0053267D01*
X0073823Y0053319D01*
X0073853Y0053373D01*
X0073880Y0053429D01*
X0073904Y0053486D01*
X0073924Y0053544D01*
X0073940Y0053603D01*
X0073953Y0053664D01*
X0073963Y0053725D01*
X0073968Y0053786D01*
X0073970Y0053848D01*
X0073971Y0053848D02*
X0073971Y0057426D01*
X0076047Y0056404D02*
X0077324Y0057426D01*
X0077324Y0052826D01*
X0076047Y0052826D02*
X0078602Y0052826D01*
X0047204Y0082200D02*
X0045671Y0082200D01*
X0047204Y0082200D02*
X0047266Y0082202D01*
X0047327Y0082207D01*
X0047388Y0082217D01*
X0047449Y0082230D01*
X0047508Y0082246D01*
X0047566Y0082266D01*
X0047623Y0082290D01*
X0047679Y0082317D01*
X0047733Y0082347D01*
X0047785Y0082381D01*
X0047834Y0082417D01*
X0047882Y0082457D01*
X0047927Y0082499D01*
X0047969Y0082544D01*
X0048009Y0082592D01*
X0048045Y0082641D01*
X0048079Y0082693D01*
X0048109Y0082747D01*
X0048136Y0082803D01*
X0048160Y0082860D01*
X0048180Y0082918D01*
X0048196Y0082977D01*
X0048209Y0083038D01*
X0048219Y0083099D01*
X0048224Y0083160D01*
X0048226Y0083222D01*
X0048227Y0083222D02*
X0048227Y0083733D01*
X0048226Y0083733D02*
X0048224Y0083795D01*
X0048219Y0083856D01*
X0048209Y0083917D01*
X0048196Y0083978D01*
X0048180Y0084037D01*
X0048160Y0084095D01*
X0048136Y0084152D01*
X0048109Y0084208D01*
X0048079Y0084262D01*
X0048045Y0084314D01*
X0048009Y0084363D01*
X0047969Y0084411D01*
X0047927Y0084456D01*
X0047882Y0084498D01*
X0047834Y0084538D01*
X0047785Y0084574D01*
X0047733Y0084608D01*
X0047679Y0084638D01*
X0047623Y0084665D01*
X0047566Y0084689D01*
X0047508Y0084709D01*
X0047449Y0084725D01*
X0047388Y0084738D01*
X0047327Y0084748D01*
X0047266Y0084753D01*
X0047204Y0084755D01*
X0047204Y0084756D02*
X0045671Y0084756D01*
X0045671Y0086800D01*
X0048227Y0086800D01*
X0042478Y0086800D02*
X0041200Y0086800D01*
X0041200Y0082200D01*
X0041200Y0084244D02*
X0042478Y0084244D01*
X0042733Y0084244D02*
X0043756Y0082200D01*
X0042478Y0084244D02*
X0042548Y0084246D01*
X0042619Y0084252D01*
X0042688Y0084261D01*
X0042757Y0084275D01*
X0042826Y0084292D01*
X0042893Y0084313D01*
X0042959Y0084338D01*
X0043023Y0084366D01*
X0043086Y0084398D01*
X0043147Y0084433D01*
X0043206Y0084472D01*
X0043263Y0084513D01*
X0043317Y0084558D01*
X0043369Y0084606D01*
X0043418Y0084656D01*
X0043465Y0084710D01*
X0043508Y0084765D01*
X0043548Y0084823D01*
X0043585Y0084883D01*
X0043618Y0084945D01*
X0043648Y0085009D01*
X0043675Y0085074D01*
X0043698Y0085140D01*
X0043717Y0085208D01*
X0043732Y0085277D01*
X0043744Y0085346D01*
X0043752Y0085416D01*
X0043756Y0085487D01*
X0043756Y0085557D01*
X0043752Y0085628D01*
X0043744Y0085698D01*
X0043732Y0085767D01*
X0043717Y0085836D01*
X0043698Y0085904D01*
X0043675Y0085970D01*
X0043648Y0086035D01*
X0043618Y0086099D01*
X0043585Y0086161D01*
X0043548Y0086221D01*
X0043508Y0086279D01*
X0043465Y0086334D01*
X0043418Y0086388D01*
X0043369Y0086438D01*
X0043317Y0086486D01*
X0043263Y0086531D01*
X0043206Y0086572D01*
X0043147Y0086611D01*
X0043086Y0086646D01*
X0043023Y0086678D01*
X0042959Y0086706D01*
X0042893Y0086731D01*
X0042826Y0086752D01*
X0042757Y0086769D01*
X0042688Y0086783D01*
X0042619Y0086792D01*
X0042548Y0086798D01*
X0042478Y0086800D01*
X0032800Y0094625D02*
X0028200Y0094625D01*
X0032800Y0097181D01*
X0028200Y0097181D01*
X0028200Y0099492D02*
X0028200Y0100770D01*
X0028202Y0100840D01*
X0028208Y0100911D01*
X0028217Y0100980D01*
X0028231Y0101049D01*
X0028248Y0101118D01*
X0028269Y0101185D01*
X0028294Y0101251D01*
X0028322Y0101315D01*
X0028354Y0101378D01*
X0028389Y0101439D01*
X0028428Y0101498D01*
X0028469Y0101555D01*
X0028514Y0101609D01*
X0028562Y0101661D01*
X0028612Y0101710D01*
X0028666Y0101757D01*
X0028721Y0101800D01*
X0028779Y0101840D01*
X0028839Y0101877D01*
X0028901Y0101910D01*
X0028965Y0101940D01*
X0029030Y0101967D01*
X0029096Y0101990D01*
X0029164Y0102009D01*
X0029233Y0102024D01*
X0029302Y0102036D01*
X0029372Y0102044D01*
X0029443Y0102048D01*
X0029513Y0102048D01*
X0029584Y0102044D01*
X0029654Y0102036D01*
X0029723Y0102024D01*
X0029792Y0102009D01*
X0029860Y0101990D01*
X0029926Y0101967D01*
X0029991Y0101940D01*
X0030055Y0101910D01*
X0030117Y0101877D01*
X0030177Y0101840D01*
X0030235Y0101800D01*
X0030290Y0101757D01*
X0030344Y0101710D01*
X0030394Y0101661D01*
X0030442Y0101609D01*
X0030487Y0101555D01*
X0030528Y0101498D01*
X0030567Y0101439D01*
X0030602Y0101378D01*
X0030634Y0101315D01*
X0030662Y0101251D01*
X0030687Y0101185D01*
X0030708Y0101118D01*
X0030725Y0101049D01*
X0030739Y0100980D01*
X0030748Y0100911D01*
X0030754Y0100840D01*
X0030756Y0100770D01*
X0030756Y0099492D01*
X0032800Y0099492D02*
X0028200Y0099492D01*
X0028200Y0103925D02*
X0032800Y0106481D01*
X0028200Y0106481D01*
X0028200Y0103925D02*
X0032800Y0103925D01*
X0032800Y0108575D02*
X0032800Y0111131D01*
X0032800Y0108575D02*
X0030244Y0110747D01*
X0028200Y0109981D02*
X0028202Y0109907D01*
X0028207Y0109833D01*
X0028217Y0109759D01*
X0028230Y0109686D01*
X0028246Y0109613D01*
X0028267Y0109542D01*
X0028291Y0109472D01*
X0028318Y0109403D01*
X0028349Y0109335D01*
X0028383Y0109269D01*
X0028420Y0109205D01*
X0028461Y0109143D01*
X0028505Y0109082D01*
X0028551Y0109025D01*
X0028601Y0108969D01*
X0028653Y0108916D01*
X0028708Y0108866D01*
X0028765Y0108819D01*
X0028825Y0108775D01*
X0028887Y0108733D01*
X0028950Y0108695D01*
X0029016Y0108660D01*
X0029083Y0108629D01*
X0029152Y0108601D01*
X0029222Y0108576D01*
X0030244Y0110748D02*
X0030197Y0110795D01*
X0030147Y0110839D01*
X0030095Y0110881D01*
X0030041Y0110920D01*
X0029985Y0110955D01*
X0029927Y0110988D01*
X0029867Y0111018D01*
X0029806Y0111044D01*
X0029743Y0111067D01*
X0029679Y0111086D01*
X0029615Y0111102D01*
X0029549Y0111115D01*
X0029483Y0111124D01*
X0029417Y0111129D01*
X0029350Y0111131D01*
X0029283Y0111129D01*
X0029216Y0111123D01*
X0029150Y0111114D01*
X0029085Y0111100D01*
X0029020Y0111083D01*
X0028957Y0111062D01*
X0028895Y0111037D01*
X0028834Y0111009D01*
X0028775Y0110977D01*
X0028718Y0110942D01*
X0028663Y0110903D01*
X0028611Y0110862D01*
X0028561Y0110817D01*
X0028514Y0110770D01*
X0028469Y0110720D01*
X0028428Y0110668D01*
X0028389Y0110613D01*
X0028354Y0110556D01*
X0028322Y0110497D01*
X0028294Y0110436D01*
X0028269Y0110374D01*
X0028248Y0110311D01*
X0028231Y0110246D01*
X0028217Y0110181D01*
X0028208Y0110115D01*
X0028202Y0110048D01*
X0028200Y0109981D01*
X0059200Y0110353D02*
X0060222Y0109075D01*
X0059200Y0110353D02*
X0063800Y0110353D01*
X0063800Y0109075D02*
X0063800Y0111631D01*
X0063800Y0106981D02*
X0059200Y0106981D01*
X0059200Y0104425D02*
X0063800Y0106981D01*
X0063800Y0104425D02*
X0059200Y0104425D01*
X0059200Y0101270D02*
X0059200Y0099992D01*
X0063800Y0099992D01*
X0061756Y0099992D02*
X0061756Y0101270D01*
X0061754Y0101340D01*
X0061748Y0101411D01*
X0061739Y0101480D01*
X0061725Y0101549D01*
X0061708Y0101618D01*
X0061687Y0101685D01*
X0061662Y0101751D01*
X0061634Y0101815D01*
X0061602Y0101878D01*
X0061567Y0101939D01*
X0061528Y0101998D01*
X0061487Y0102055D01*
X0061442Y0102109D01*
X0061394Y0102161D01*
X0061344Y0102210D01*
X0061290Y0102257D01*
X0061235Y0102300D01*
X0061177Y0102340D01*
X0061117Y0102377D01*
X0061055Y0102410D01*
X0060991Y0102440D01*
X0060926Y0102467D01*
X0060860Y0102490D01*
X0060792Y0102509D01*
X0060723Y0102524D01*
X0060654Y0102536D01*
X0060584Y0102544D01*
X0060513Y0102548D01*
X0060443Y0102548D01*
X0060372Y0102544D01*
X0060302Y0102536D01*
X0060233Y0102524D01*
X0060164Y0102509D01*
X0060096Y0102490D01*
X0060030Y0102467D01*
X0059965Y0102440D01*
X0059901Y0102410D01*
X0059839Y0102377D01*
X0059779Y0102340D01*
X0059721Y0102300D01*
X0059666Y0102257D01*
X0059612Y0102210D01*
X0059562Y0102161D01*
X0059514Y0102109D01*
X0059469Y0102055D01*
X0059428Y0101998D01*
X0059389Y0101939D01*
X0059354Y0101878D01*
X0059322Y0101815D01*
X0059294Y0101751D01*
X0059269Y0101685D01*
X0059248Y0101618D01*
X0059231Y0101549D01*
X0059217Y0101480D01*
X0059208Y0101411D01*
X0059202Y0101340D01*
X0059200Y0101270D01*
X0059200Y0097681D02*
X0063800Y0097681D01*
X0059200Y0095125D01*
X0063800Y0095125D01*
X0093700Y0094625D02*
X0093700Y0095903D01*
X0093702Y0095973D01*
X0093708Y0096044D01*
X0093717Y0096113D01*
X0093731Y0096182D01*
X0093748Y0096251D01*
X0093769Y0096318D01*
X0093794Y0096384D01*
X0093822Y0096448D01*
X0093854Y0096511D01*
X0093889Y0096572D01*
X0093928Y0096631D01*
X0093969Y0096688D01*
X0094014Y0096742D01*
X0094062Y0096794D01*
X0094112Y0096843D01*
X0094166Y0096890D01*
X0094221Y0096933D01*
X0094279Y0096973D01*
X0094339Y0097010D01*
X0094401Y0097043D01*
X0094465Y0097073D01*
X0094530Y0097100D01*
X0094596Y0097123D01*
X0094664Y0097142D01*
X0094733Y0097157D01*
X0094802Y0097169D01*
X0094872Y0097177D01*
X0094943Y0097181D01*
X0095013Y0097181D01*
X0095084Y0097177D01*
X0095154Y0097169D01*
X0095223Y0097157D01*
X0095292Y0097142D01*
X0095360Y0097123D01*
X0095426Y0097100D01*
X0095491Y0097073D01*
X0095555Y0097043D01*
X0095617Y0097010D01*
X0095677Y0096973D01*
X0095735Y0096933D01*
X0095790Y0096890D01*
X0095844Y0096843D01*
X0095894Y0096794D01*
X0095942Y0096742D01*
X0095987Y0096688D01*
X0096028Y0096631D01*
X0096067Y0096572D01*
X0096102Y0096511D01*
X0096134Y0096448D01*
X0096162Y0096384D01*
X0096187Y0096318D01*
X0096208Y0096251D01*
X0096225Y0096182D01*
X0096239Y0096113D01*
X0096248Y0096044D01*
X0096254Y0095973D01*
X0096256Y0095903D01*
X0096256Y0094625D01*
X0098300Y0094625D02*
X0093700Y0094625D01*
X0093700Y0099059D02*
X0098300Y0101614D01*
X0093700Y0101614D01*
X0093700Y0103925D02*
X0093700Y0105203D01*
X0093702Y0105273D01*
X0093708Y0105344D01*
X0093717Y0105413D01*
X0093731Y0105482D01*
X0093748Y0105551D01*
X0093769Y0105618D01*
X0093794Y0105684D01*
X0093822Y0105748D01*
X0093854Y0105811D01*
X0093889Y0105872D01*
X0093928Y0105931D01*
X0093969Y0105988D01*
X0094014Y0106042D01*
X0094062Y0106094D01*
X0094112Y0106143D01*
X0094166Y0106190D01*
X0094221Y0106233D01*
X0094279Y0106273D01*
X0094339Y0106310D01*
X0094401Y0106343D01*
X0094465Y0106373D01*
X0094530Y0106400D01*
X0094596Y0106423D01*
X0094664Y0106442D01*
X0094733Y0106457D01*
X0094802Y0106469D01*
X0094872Y0106477D01*
X0094943Y0106481D01*
X0095013Y0106481D01*
X0095084Y0106477D01*
X0095154Y0106469D01*
X0095223Y0106457D01*
X0095292Y0106442D01*
X0095360Y0106423D01*
X0095426Y0106400D01*
X0095491Y0106373D01*
X0095555Y0106343D01*
X0095617Y0106310D01*
X0095677Y0106273D01*
X0095735Y0106233D01*
X0095790Y0106190D01*
X0095844Y0106143D01*
X0095894Y0106094D01*
X0095942Y0106042D01*
X0095987Y0105988D01*
X0096028Y0105931D01*
X0096067Y0105872D01*
X0096102Y0105811D01*
X0096134Y0105748D01*
X0096162Y0105684D01*
X0096187Y0105618D01*
X0096208Y0105551D01*
X0096225Y0105482D01*
X0096239Y0105413D01*
X0096248Y0105344D01*
X0096254Y0105273D01*
X0096256Y0105203D01*
X0096256Y0103925D01*
X0098300Y0103925D02*
X0093700Y0103925D01*
X0094722Y0108208D02*
X0093700Y0109486D01*
X0098300Y0109486D01*
X0098300Y0108208D02*
X0098300Y0110764D01*
X0098300Y0099059D02*
X0093700Y0099059D01*
X0134200Y0101700D02*
X0134200Y0106300D01*
X0135478Y0106300D01*
X0135548Y0106298D01*
X0135619Y0106292D01*
X0135688Y0106283D01*
X0135757Y0106269D01*
X0135826Y0106252D01*
X0135893Y0106231D01*
X0135959Y0106206D01*
X0136023Y0106178D01*
X0136086Y0106146D01*
X0136147Y0106111D01*
X0136206Y0106072D01*
X0136263Y0106031D01*
X0136317Y0105986D01*
X0136369Y0105938D01*
X0136418Y0105888D01*
X0136465Y0105834D01*
X0136508Y0105779D01*
X0136548Y0105721D01*
X0136585Y0105661D01*
X0136618Y0105599D01*
X0136648Y0105535D01*
X0136675Y0105470D01*
X0136698Y0105404D01*
X0136717Y0105336D01*
X0136732Y0105267D01*
X0136744Y0105198D01*
X0136752Y0105128D01*
X0136756Y0105057D01*
X0136756Y0104987D01*
X0136752Y0104916D01*
X0136744Y0104846D01*
X0136732Y0104777D01*
X0136717Y0104708D01*
X0136698Y0104640D01*
X0136675Y0104574D01*
X0136648Y0104509D01*
X0136618Y0104445D01*
X0136585Y0104383D01*
X0136548Y0104323D01*
X0136508Y0104265D01*
X0136465Y0104210D01*
X0136418Y0104156D01*
X0136369Y0104106D01*
X0136317Y0104058D01*
X0136263Y0104013D01*
X0136206Y0103972D01*
X0136147Y0103933D01*
X0136086Y0103898D01*
X0136023Y0103866D01*
X0135959Y0103838D01*
X0135893Y0103813D01*
X0135826Y0103792D01*
X0135757Y0103775D01*
X0135688Y0103761D01*
X0135619Y0103752D01*
X0135548Y0103746D01*
X0135478Y0103744D01*
X0134200Y0103744D01*
X0135733Y0103744D02*
X0136756Y0101700D01*
X0138671Y0102722D02*
X0141227Y0102722D01*
X0141700Y0102114D02*
X0146300Y0102114D01*
X0141700Y0099559D01*
X0146300Y0099559D01*
X0144256Y0096403D02*
X0144256Y0095125D01*
X0144256Y0096403D02*
X0144254Y0096473D01*
X0144248Y0096544D01*
X0144239Y0096613D01*
X0144225Y0096682D01*
X0144208Y0096751D01*
X0144187Y0096818D01*
X0144162Y0096884D01*
X0144134Y0096948D01*
X0144102Y0097011D01*
X0144067Y0097072D01*
X0144028Y0097131D01*
X0143987Y0097188D01*
X0143942Y0097242D01*
X0143894Y0097294D01*
X0143844Y0097343D01*
X0143790Y0097390D01*
X0143735Y0097433D01*
X0143677Y0097473D01*
X0143617Y0097510D01*
X0143555Y0097543D01*
X0143491Y0097573D01*
X0143426Y0097600D01*
X0143360Y0097623D01*
X0143292Y0097642D01*
X0143223Y0097657D01*
X0143154Y0097669D01*
X0143084Y0097677D01*
X0143013Y0097681D01*
X0142943Y0097681D01*
X0142872Y0097677D01*
X0142802Y0097669D01*
X0142733Y0097657D01*
X0142664Y0097642D01*
X0142596Y0097623D01*
X0142530Y0097600D01*
X0142465Y0097573D01*
X0142401Y0097543D01*
X0142339Y0097510D01*
X0142279Y0097473D01*
X0142221Y0097433D01*
X0142166Y0097390D01*
X0142112Y0097343D01*
X0142062Y0097294D01*
X0142014Y0097242D01*
X0141969Y0097188D01*
X0141928Y0097131D01*
X0141889Y0097072D01*
X0141854Y0097011D01*
X0141822Y0096948D01*
X0141794Y0096884D01*
X0141769Y0096818D01*
X0141748Y0096751D01*
X0141731Y0096682D01*
X0141717Y0096613D01*
X0141708Y0096544D01*
X0141702Y0096473D01*
X0141700Y0096403D01*
X0141700Y0095125D01*
X0146300Y0095125D01*
X0140460Y0101700D02*
X0140460Y0103744D01*
X0141700Y0104425D02*
X0141700Y0105703D01*
X0141702Y0105773D01*
X0141708Y0105844D01*
X0141717Y0105913D01*
X0141731Y0105982D01*
X0141748Y0106051D01*
X0141769Y0106118D01*
X0141794Y0106184D01*
X0141822Y0106248D01*
X0141854Y0106311D01*
X0141889Y0106372D01*
X0141928Y0106431D01*
X0141969Y0106488D01*
X0142014Y0106542D01*
X0142062Y0106594D01*
X0142112Y0106643D01*
X0142166Y0106690D01*
X0142221Y0106733D01*
X0142279Y0106773D01*
X0142339Y0106810D01*
X0142401Y0106843D01*
X0142465Y0106873D01*
X0142530Y0106900D01*
X0142596Y0106923D01*
X0142664Y0106942D01*
X0142733Y0106957D01*
X0142802Y0106969D01*
X0142872Y0106977D01*
X0142943Y0106981D01*
X0143013Y0106981D01*
X0143084Y0106977D01*
X0143154Y0106969D01*
X0143223Y0106957D01*
X0143292Y0106942D01*
X0143360Y0106923D01*
X0143426Y0106900D01*
X0143491Y0106873D01*
X0143555Y0106843D01*
X0143617Y0106810D01*
X0143677Y0106773D01*
X0143735Y0106733D01*
X0143790Y0106690D01*
X0143844Y0106643D01*
X0143894Y0106594D01*
X0143942Y0106542D01*
X0143987Y0106488D01*
X0144028Y0106431D01*
X0144067Y0106372D01*
X0144102Y0106311D01*
X0144134Y0106248D01*
X0144162Y0106184D01*
X0144187Y0106118D01*
X0144208Y0106051D01*
X0144225Y0105982D01*
X0144239Y0105913D01*
X0144248Y0105844D01*
X0144254Y0105773D01*
X0144256Y0105703D01*
X0144256Y0104425D01*
X0146300Y0104425D02*
X0141700Y0104425D01*
X0139693Y0106300D02*
X0138671Y0102722D01*
X0142850Y0111264D02*
X0142917Y0111262D01*
X0142983Y0111257D01*
X0143049Y0111248D01*
X0143115Y0111235D01*
X0143179Y0111219D01*
X0143243Y0111200D01*
X0143306Y0111177D01*
X0143367Y0111151D01*
X0143427Y0111121D01*
X0143485Y0111088D01*
X0143541Y0111053D01*
X0143595Y0111014D01*
X0143647Y0110972D01*
X0143697Y0110928D01*
X0143744Y0110881D01*
X0146300Y0108708D01*
X0146300Y0111264D01*
X0142722Y0108709D02*
X0142652Y0108734D01*
X0142583Y0108762D01*
X0142516Y0108793D01*
X0142450Y0108828D01*
X0142387Y0108866D01*
X0142325Y0108908D01*
X0142265Y0108952D01*
X0142208Y0108999D01*
X0142153Y0109049D01*
X0142101Y0109102D01*
X0142051Y0109158D01*
X0142005Y0109215D01*
X0141961Y0109276D01*
X0141920Y0109338D01*
X0141883Y0109402D01*
X0141849Y0109468D01*
X0141818Y0109536D01*
X0141791Y0109605D01*
X0141767Y0109675D01*
X0141746Y0109746D01*
X0141730Y0109819D01*
X0141717Y0109892D01*
X0141707Y0109966D01*
X0141702Y0110040D01*
X0141700Y0110114D01*
X0141702Y0110181D01*
X0141708Y0110248D01*
X0141717Y0110314D01*
X0141731Y0110379D01*
X0141748Y0110444D01*
X0141769Y0110507D01*
X0141794Y0110569D01*
X0141822Y0110630D01*
X0141854Y0110689D01*
X0141889Y0110746D01*
X0141928Y0110801D01*
X0141969Y0110853D01*
X0142014Y0110903D01*
X0142061Y0110950D01*
X0142111Y0110995D01*
X0142163Y0111036D01*
X0142218Y0111075D01*
X0142275Y0111110D01*
X0142334Y0111142D01*
X0142395Y0111170D01*
X0142457Y0111195D01*
X0142520Y0111216D01*
X0142585Y0111233D01*
X0142650Y0111247D01*
X0142716Y0111256D01*
X0142783Y0111262D01*
X0142850Y0111264D01*
X0141227Y0112978D02*
X0141225Y0112908D01*
X0141219Y0112837D01*
X0141210Y0112768D01*
X0141196Y0112699D01*
X0141179Y0112630D01*
X0141158Y0112563D01*
X0141133Y0112497D01*
X0141105Y0112433D01*
X0141073Y0112370D01*
X0141038Y0112309D01*
X0140999Y0112250D01*
X0140958Y0112193D01*
X0140913Y0112139D01*
X0140865Y0112087D01*
X0140815Y0112038D01*
X0140761Y0111991D01*
X0140706Y0111948D01*
X0140648Y0111908D01*
X0140588Y0111871D01*
X0140526Y0111838D01*
X0140462Y0111808D01*
X0140397Y0111781D01*
X0140331Y0111758D01*
X0140263Y0111739D01*
X0140194Y0111724D01*
X0140125Y0111712D01*
X0140055Y0111704D01*
X0139984Y0111700D01*
X0139914Y0111700D01*
X0139843Y0111704D01*
X0139773Y0111712D01*
X0139704Y0111724D01*
X0139635Y0111739D01*
X0139567Y0111758D01*
X0139501Y0111781D01*
X0139436Y0111808D01*
X0139372Y0111838D01*
X0139310Y0111871D01*
X0139250Y0111908D01*
X0139192Y0111948D01*
X0139137Y0111991D01*
X0139083Y0112038D01*
X0139033Y0112087D01*
X0138985Y0112139D01*
X0138940Y0112193D01*
X0138899Y0112250D01*
X0138860Y0112309D01*
X0138825Y0112370D01*
X0138793Y0112433D01*
X0138765Y0112497D01*
X0138740Y0112563D01*
X0138719Y0112630D01*
X0138702Y0112699D01*
X0138688Y0112768D01*
X0138679Y0112837D01*
X0138673Y0112908D01*
X0138671Y0112978D01*
X0138673Y0113048D01*
X0138679Y0113119D01*
X0138688Y0113188D01*
X0138702Y0113257D01*
X0138719Y0113326D01*
X0138740Y0113393D01*
X0138765Y0113459D01*
X0138793Y0113523D01*
X0138825Y0113586D01*
X0138860Y0113647D01*
X0138899Y0113706D01*
X0138940Y0113763D01*
X0138985Y0113817D01*
X0139033Y0113869D01*
X0139083Y0113918D01*
X0139137Y0113965D01*
X0139192Y0114008D01*
X0139250Y0114048D01*
X0139310Y0114085D01*
X0139372Y0114118D01*
X0139436Y0114148D01*
X0139501Y0114175D01*
X0139567Y0114198D01*
X0139635Y0114217D01*
X0139704Y0114232D01*
X0139773Y0114244D01*
X0139843Y0114252D01*
X0139914Y0114256D01*
X0139984Y0114256D01*
X0140055Y0114252D01*
X0140125Y0114244D01*
X0140194Y0114232D01*
X0140263Y0114217D01*
X0140331Y0114198D01*
X0140397Y0114175D01*
X0140462Y0114148D01*
X0140526Y0114118D01*
X0140588Y0114085D01*
X0140648Y0114048D01*
X0140706Y0114008D01*
X0140761Y0113965D01*
X0140815Y0113918D01*
X0140865Y0113869D01*
X0140913Y0113817D01*
X0140958Y0113763D01*
X0140999Y0113706D01*
X0141038Y0113647D01*
X0141073Y0113586D01*
X0141105Y0113523D01*
X0141133Y0113459D01*
X0141158Y0113393D01*
X0141179Y0113326D01*
X0141196Y0113257D01*
X0141210Y0113188D01*
X0141219Y0113119D01*
X0141225Y0113048D01*
X0141227Y0112978D01*
X0140971Y0115278D02*
X0140969Y0115215D01*
X0140963Y0115152D01*
X0140954Y0115090D01*
X0140940Y0115029D01*
X0140923Y0114968D01*
X0140902Y0114909D01*
X0140877Y0114851D01*
X0140849Y0114794D01*
X0140818Y0114740D01*
X0140783Y0114688D01*
X0140745Y0114637D01*
X0140704Y0114589D01*
X0140660Y0114544D01*
X0140614Y0114502D01*
X0140565Y0114462D01*
X0140514Y0114426D01*
X0140460Y0114393D01*
X0140405Y0114363D01*
X0140347Y0114337D01*
X0140289Y0114314D01*
X0140229Y0114295D01*
X0140168Y0114280D01*
X0140106Y0114268D01*
X0140043Y0114260D01*
X0139980Y0114256D01*
X0139918Y0114256D01*
X0139855Y0114260D01*
X0139792Y0114268D01*
X0139730Y0114280D01*
X0139669Y0114295D01*
X0139609Y0114314D01*
X0139551Y0114337D01*
X0139493Y0114363D01*
X0139438Y0114393D01*
X0139384Y0114426D01*
X0139333Y0114462D01*
X0139284Y0114502D01*
X0139238Y0114544D01*
X0139194Y0114589D01*
X0139153Y0114637D01*
X0139115Y0114688D01*
X0139080Y0114740D01*
X0139049Y0114794D01*
X0139021Y0114851D01*
X0138996Y0114909D01*
X0138975Y0114968D01*
X0138958Y0115029D01*
X0138944Y0115090D01*
X0138935Y0115152D01*
X0138929Y0115215D01*
X0138927Y0115278D01*
X0138929Y0115341D01*
X0138935Y0115404D01*
X0138944Y0115466D01*
X0138958Y0115527D01*
X0138975Y0115588D01*
X0138996Y0115647D01*
X0139021Y0115705D01*
X0139049Y0115762D01*
X0139080Y0115816D01*
X0139115Y0115868D01*
X0139153Y0115919D01*
X0139194Y0115967D01*
X0139238Y0116012D01*
X0139284Y0116054D01*
X0139333Y0116094D01*
X0139384Y0116130D01*
X0139438Y0116163D01*
X0139493Y0116193D01*
X0139551Y0116219D01*
X0139609Y0116242D01*
X0139669Y0116261D01*
X0139730Y0116276D01*
X0139792Y0116288D01*
X0139855Y0116296D01*
X0139918Y0116300D01*
X0139980Y0116300D01*
X0140043Y0116296D01*
X0140106Y0116288D01*
X0140168Y0116276D01*
X0140229Y0116261D01*
X0140289Y0116242D01*
X0140347Y0116219D01*
X0140405Y0116193D01*
X0140460Y0116163D01*
X0140514Y0116130D01*
X0140565Y0116094D01*
X0140614Y0116054D01*
X0140660Y0116012D01*
X0140704Y0115967D01*
X0140745Y0115919D01*
X0140783Y0115868D01*
X0140818Y0115816D01*
X0140849Y0115762D01*
X0140877Y0115705D01*
X0140902Y0115647D01*
X0140923Y0115588D01*
X0140940Y0115527D01*
X0140954Y0115466D01*
X0140963Y0115404D01*
X0140969Y0115341D01*
X0140971Y0115278D01*
X0135733Y0113744D02*
X0136756Y0111700D01*
X0135478Y0113744D02*
X0134200Y0113744D01*
X0135478Y0113744D02*
X0135548Y0113746D01*
X0135619Y0113752D01*
X0135688Y0113761D01*
X0135757Y0113775D01*
X0135826Y0113792D01*
X0135893Y0113813D01*
X0135959Y0113838D01*
X0136023Y0113866D01*
X0136086Y0113898D01*
X0136147Y0113933D01*
X0136206Y0113972D01*
X0136263Y0114013D01*
X0136317Y0114058D01*
X0136369Y0114106D01*
X0136418Y0114156D01*
X0136465Y0114210D01*
X0136508Y0114265D01*
X0136548Y0114323D01*
X0136585Y0114383D01*
X0136618Y0114445D01*
X0136648Y0114509D01*
X0136675Y0114574D01*
X0136698Y0114640D01*
X0136717Y0114708D01*
X0136732Y0114777D01*
X0136744Y0114846D01*
X0136752Y0114916D01*
X0136756Y0114987D01*
X0136756Y0115057D01*
X0136752Y0115128D01*
X0136744Y0115198D01*
X0136732Y0115267D01*
X0136717Y0115336D01*
X0136698Y0115404D01*
X0136675Y0115470D01*
X0136648Y0115535D01*
X0136618Y0115599D01*
X0136585Y0115661D01*
X0136548Y0115721D01*
X0136508Y0115779D01*
X0136465Y0115834D01*
X0136418Y0115888D01*
X0136369Y0115938D01*
X0136317Y0115986D01*
X0136263Y0116031D01*
X0136206Y0116072D01*
X0136147Y0116111D01*
X0136086Y0116146D01*
X0136023Y0116178D01*
X0135959Y0116206D01*
X0135893Y0116231D01*
X0135826Y0116252D01*
X0135757Y0116269D01*
X0135688Y0116283D01*
X0135619Y0116292D01*
X0135548Y0116298D01*
X0135478Y0116300D01*
X0134200Y0116300D01*
X0134200Y0111700D01*
X0134200Y0121700D02*
X0134200Y0126300D01*
X0135478Y0126300D01*
X0135548Y0126298D01*
X0135619Y0126292D01*
X0135688Y0126283D01*
X0135757Y0126269D01*
X0135826Y0126252D01*
X0135893Y0126231D01*
X0135959Y0126206D01*
X0136023Y0126178D01*
X0136086Y0126146D01*
X0136147Y0126111D01*
X0136206Y0126072D01*
X0136263Y0126031D01*
X0136317Y0125986D01*
X0136369Y0125938D01*
X0136418Y0125888D01*
X0136465Y0125834D01*
X0136508Y0125779D01*
X0136548Y0125721D01*
X0136585Y0125661D01*
X0136618Y0125599D01*
X0136648Y0125535D01*
X0136675Y0125470D01*
X0136698Y0125404D01*
X0136717Y0125336D01*
X0136732Y0125267D01*
X0136744Y0125198D01*
X0136752Y0125128D01*
X0136756Y0125057D01*
X0136756Y0124987D01*
X0136752Y0124916D01*
X0136744Y0124846D01*
X0136732Y0124777D01*
X0136717Y0124708D01*
X0136698Y0124640D01*
X0136675Y0124574D01*
X0136648Y0124509D01*
X0136618Y0124445D01*
X0136585Y0124383D01*
X0136548Y0124323D01*
X0136508Y0124265D01*
X0136465Y0124210D01*
X0136418Y0124156D01*
X0136369Y0124106D01*
X0136317Y0124058D01*
X0136263Y0124013D01*
X0136206Y0123972D01*
X0136147Y0123933D01*
X0136086Y0123898D01*
X0136023Y0123866D01*
X0135959Y0123838D01*
X0135893Y0123813D01*
X0135826Y0123792D01*
X0135757Y0123775D01*
X0135688Y0123761D01*
X0135619Y0123752D01*
X0135548Y0123746D01*
X0135478Y0123744D01*
X0134200Y0123744D01*
X0135733Y0123744D02*
X0136756Y0121700D01*
X0138671Y0121700D02*
X0141227Y0121700D01*
X0139949Y0121700D02*
X0139949Y0126300D01*
X0138671Y0125278D01*
X0145727Y0124000D02*
X0145725Y0123885D01*
X0145720Y0123771D01*
X0145711Y0123657D01*
X0145699Y0123543D01*
X0145684Y0123429D01*
X0145665Y0123316D01*
X0145642Y0123204D01*
X0145617Y0123092D01*
X0145587Y0122981D01*
X0145555Y0122871D01*
X0145519Y0122762D01*
X0145480Y0122654D01*
X0145438Y0122548D01*
X0145392Y0122443D01*
X0145344Y0122339D01*
X0145323Y0122284D01*
X0145299Y0122231D01*
X0145272Y0122179D01*
X0145241Y0122129D01*
X0145208Y0122081D01*
X0145171Y0122035D01*
X0145132Y0121991D01*
X0145090Y0121950D01*
X0145046Y0121912D01*
X0144999Y0121876D01*
X0144950Y0121844D01*
X0144899Y0121814D01*
X0144847Y0121788D01*
X0144793Y0121765D01*
X0144738Y0121745D01*
X0144681Y0121729D01*
X0144624Y0121716D01*
X0144566Y0121707D01*
X0144508Y0121702D01*
X0144449Y0121700D01*
X0144390Y0121702D01*
X0144332Y0121707D01*
X0144274Y0121716D01*
X0144217Y0121729D01*
X0144160Y0121745D01*
X0144105Y0121765D01*
X0144051Y0121788D01*
X0143999Y0121814D01*
X0143948Y0121844D01*
X0143899Y0121876D01*
X0143852Y0121912D01*
X0143808Y0121950D01*
X0143766Y0121991D01*
X0143727Y0122035D01*
X0143690Y0122081D01*
X0143657Y0122129D01*
X0143626Y0122179D01*
X0143599Y0122231D01*
X0143575Y0122284D01*
X0143554Y0122339D01*
X0143427Y0122722D02*
X0145471Y0125278D01*
X0145344Y0125661D02*
X0145323Y0125716D01*
X0145299Y0125769D01*
X0145272Y0125821D01*
X0145241Y0125871D01*
X0145208Y0125919D01*
X0145171Y0125965D01*
X0145132Y0126009D01*
X0145090Y0126050D01*
X0145046Y0126088D01*
X0144999Y0126124D01*
X0144950Y0126156D01*
X0144899Y0126186D01*
X0144847Y0126212D01*
X0144793Y0126235D01*
X0144738Y0126255D01*
X0144681Y0126271D01*
X0144624Y0126284D01*
X0144566Y0126293D01*
X0144508Y0126298D01*
X0144449Y0126300D01*
X0144390Y0126298D01*
X0144332Y0126293D01*
X0144274Y0126284D01*
X0144217Y0126271D01*
X0144160Y0126255D01*
X0144105Y0126235D01*
X0144051Y0126212D01*
X0143999Y0126186D01*
X0143948Y0126156D01*
X0143899Y0126124D01*
X0143852Y0126088D01*
X0143808Y0126050D01*
X0143766Y0126009D01*
X0143727Y0125965D01*
X0143690Y0125919D01*
X0143657Y0125871D01*
X0143626Y0125821D01*
X0143599Y0125769D01*
X0143575Y0125716D01*
X0143554Y0125661D01*
X0145344Y0125661D02*
X0145392Y0125557D01*
X0145438Y0125452D01*
X0145480Y0125346D01*
X0145519Y0125238D01*
X0145555Y0125129D01*
X0145587Y0125019D01*
X0145617Y0124908D01*
X0145642Y0124796D01*
X0145665Y0124684D01*
X0145684Y0124571D01*
X0145699Y0124457D01*
X0145711Y0124343D01*
X0145720Y0124229D01*
X0145725Y0124115D01*
X0145727Y0124000D01*
X0143171Y0124000D02*
X0143173Y0124115D01*
X0143178Y0124229D01*
X0143187Y0124343D01*
X0143199Y0124457D01*
X0143214Y0124571D01*
X0143233Y0124684D01*
X0143256Y0124796D01*
X0143281Y0124908D01*
X0143311Y0125019D01*
X0143343Y0125129D01*
X0143379Y0125238D01*
X0143418Y0125346D01*
X0143460Y0125452D01*
X0143506Y0125557D01*
X0143554Y0125661D01*
X0143171Y0124000D02*
X0143173Y0123885D01*
X0143178Y0123771D01*
X0143187Y0123657D01*
X0143199Y0123543D01*
X0143214Y0123429D01*
X0143233Y0123316D01*
X0143256Y0123204D01*
X0143281Y0123092D01*
X0143311Y0122981D01*
X0143343Y0122871D01*
X0143379Y0122762D01*
X0143418Y0122654D01*
X0143460Y0122548D01*
X0143506Y0122443D01*
X0143554Y0122339D01*
X0176700Y0110608D02*
X0176700Y0109075D01*
X0176700Y0110608D02*
X0176702Y0110671D01*
X0176708Y0110734D01*
X0176717Y0110796D01*
X0176731Y0110857D01*
X0176748Y0110918D01*
X0176769Y0110977D01*
X0176794Y0111035D01*
X0176822Y0111092D01*
X0176853Y0111146D01*
X0176888Y0111198D01*
X0176926Y0111249D01*
X0176967Y0111297D01*
X0177011Y0111342D01*
X0177057Y0111384D01*
X0177106Y0111424D01*
X0177157Y0111460D01*
X0177211Y0111493D01*
X0177266Y0111523D01*
X0177324Y0111549D01*
X0177382Y0111572D01*
X0177442Y0111591D01*
X0177503Y0111606D01*
X0177565Y0111618D01*
X0177628Y0111626D01*
X0177691Y0111630D01*
X0177753Y0111630D01*
X0177816Y0111626D01*
X0177879Y0111618D01*
X0177941Y0111606D01*
X0178002Y0111591D01*
X0178062Y0111572D01*
X0178120Y0111549D01*
X0178178Y0111523D01*
X0178233Y0111493D01*
X0178287Y0111460D01*
X0178338Y0111424D01*
X0178387Y0111384D01*
X0178433Y0111342D01*
X0178477Y0111297D01*
X0178518Y0111249D01*
X0178556Y0111198D01*
X0178591Y0111146D01*
X0178622Y0111092D01*
X0178650Y0111035D01*
X0178675Y0110977D01*
X0178696Y0110918D01*
X0178713Y0110857D01*
X0178727Y0110796D01*
X0178736Y0110734D01*
X0178742Y0110671D01*
X0178744Y0110608D01*
X0178744Y0109586D01*
X0178744Y0110353D02*
X0178746Y0110423D01*
X0178752Y0110494D01*
X0178761Y0110563D01*
X0178775Y0110632D01*
X0178792Y0110701D01*
X0178813Y0110768D01*
X0178838Y0110834D01*
X0178866Y0110898D01*
X0178898Y0110961D01*
X0178933Y0111022D01*
X0178972Y0111081D01*
X0179013Y0111138D01*
X0179058Y0111192D01*
X0179106Y0111244D01*
X0179156Y0111293D01*
X0179210Y0111340D01*
X0179265Y0111383D01*
X0179323Y0111423D01*
X0179383Y0111460D01*
X0179445Y0111493D01*
X0179509Y0111523D01*
X0179574Y0111550D01*
X0179640Y0111573D01*
X0179708Y0111592D01*
X0179777Y0111607D01*
X0179846Y0111619D01*
X0179916Y0111627D01*
X0179987Y0111631D01*
X0180057Y0111631D01*
X0180128Y0111627D01*
X0180198Y0111619D01*
X0180267Y0111607D01*
X0180336Y0111592D01*
X0180404Y0111573D01*
X0180470Y0111550D01*
X0180535Y0111523D01*
X0180599Y0111493D01*
X0180661Y0111460D01*
X0180721Y0111423D01*
X0180779Y0111383D01*
X0180834Y0111340D01*
X0180888Y0111293D01*
X0180938Y0111244D01*
X0180986Y0111192D01*
X0181031Y0111138D01*
X0181072Y0111081D01*
X0181111Y0111022D01*
X0181146Y0110961D01*
X0181178Y0110898D01*
X0181206Y0110834D01*
X0181231Y0110768D01*
X0181252Y0110701D01*
X0181269Y0110632D01*
X0181283Y0110563D01*
X0181292Y0110494D01*
X0181298Y0110423D01*
X0181300Y0110353D01*
X0181300Y0109075D01*
X0181300Y0106981D02*
X0176700Y0106981D01*
X0176700Y0104425D02*
X0181300Y0106981D01*
X0181300Y0104425D02*
X0176700Y0104425D01*
X0176700Y0101270D02*
X0176700Y0099992D01*
X0181300Y0099992D01*
X0179256Y0099992D02*
X0179256Y0101270D01*
X0179254Y0101340D01*
X0179248Y0101411D01*
X0179239Y0101480D01*
X0179225Y0101549D01*
X0179208Y0101618D01*
X0179187Y0101685D01*
X0179162Y0101751D01*
X0179134Y0101815D01*
X0179102Y0101878D01*
X0179067Y0101939D01*
X0179028Y0101998D01*
X0178987Y0102055D01*
X0178942Y0102109D01*
X0178894Y0102161D01*
X0178844Y0102210D01*
X0178790Y0102257D01*
X0178735Y0102300D01*
X0178677Y0102340D01*
X0178617Y0102377D01*
X0178555Y0102410D01*
X0178491Y0102440D01*
X0178426Y0102467D01*
X0178360Y0102490D01*
X0178292Y0102509D01*
X0178223Y0102524D01*
X0178154Y0102536D01*
X0178084Y0102544D01*
X0178013Y0102548D01*
X0177943Y0102548D01*
X0177872Y0102544D01*
X0177802Y0102536D01*
X0177733Y0102524D01*
X0177664Y0102509D01*
X0177596Y0102490D01*
X0177530Y0102467D01*
X0177465Y0102440D01*
X0177401Y0102410D01*
X0177339Y0102377D01*
X0177279Y0102340D01*
X0177221Y0102300D01*
X0177166Y0102257D01*
X0177112Y0102210D01*
X0177062Y0102161D01*
X0177014Y0102109D01*
X0176969Y0102055D01*
X0176928Y0101998D01*
X0176889Y0101939D01*
X0176854Y0101878D01*
X0176822Y0101815D01*
X0176794Y0101751D01*
X0176769Y0101685D01*
X0176748Y0101618D01*
X0176731Y0101549D01*
X0176717Y0101480D01*
X0176708Y0101411D01*
X0176702Y0101340D01*
X0176700Y0101270D01*
X0176700Y0097681D02*
X0181300Y0097681D01*
X0176700Y0095125D01*
X0181300Y0095125D01*
X0212200Y0095625D02*
X0216800Y0098181D01*
X0212200Y0098181D01*
X0212200Y0100492D02*
X0212200Y0101770D01*
X0212202Y0101840D01*
X0212208Y0101911D01*
X0212217Y0101980D01*
X0212231Y0102049D01*
X0212248Y0102118D01*
X0212269Y0102185D01*
X0212294Y0102251D01*
X0212322Y0102315D01*
X0212354Y0102378D01*
X0212389Y0102439D01*
X0212428Y0102498D01*
X0212469Y0102555D01*
X0212514Y0102609D01*
X0212562Y0102661D01*
X0212612Y0102710D01*
X0212666Y0102757D01*
X0212721Y0102800D01*
X0212779Y0102840D01*
X0212839Y0102877D01*
X0212901Y0102910D01*
X0212965Y0102940D01*
X0213030Y0102967D01*
X0213096Y0102990D01*
X0213164Y0103009D01*
X0213233Y0103024D01*
X0213302Y0103036D01*
X0213372Y0103044D01*
X0213443Y0103048D01*
X0213513Y0103048D01*
X0213584Y0103044D01*
X0213654Y0103036D01*
X0213723Y0103024D01*
X0213792Y0103009D01*
X0213860Y0102990D01*
X0213926Y0102967D01*
X0213991Y0102940D01*
X0214055Y0102910D01*
X0214117Y0102877D01*
X0214177Y0102840D01*
X0214235Y0102800D01*
X0214290Y0102757D01*
X0214344Y0102710D01*
X0214394Y0102661D01*
X0214442Y0102609D01*
X0214487Y0102555D01*
X0214528Y0102498D01*
X0214567Y0102439D01*
X0214602Y0102378D01*
X0214634Y0102315D01*
X0214662Y0102251D01*
X0214687Y0102185D01*
X0214708Y0102118D01*
X0214725Y0102049D01*
X0214739Y0101980D01*
X0214748Y0101911D01*
X0214754Y0101840D01*
X0214756Y0101770D01*
X0214756Y0100492D01*
X0216800Y0100492D02*
X0212200Y0100492D01*
X0212200Y0104925D02*
X0216800Y0107481D01*
X0212200Y0107481D01*
X0212200Y0104925D02*
X0216800Y0104925D01*
X0215778Y0109575D02*
X0212200Y0110597D01*
X0214756Y0111364D02*
X0216800Y0111364D01*
X0215778Y0112131D02*
X0215778Y0109575D01*
X0216800Y0095625D02*
X0212200Y0095625D01*
X0229200Y0081300D02*
X0230478Y0081300D01*
X0230548Y0081298D01*
X0230619Y0081292D01*
X0230688Y0081283D01*
X0230757Y0081269D01*
X0230826Y0081252D01*
X0230893Y0081231D01*
X0230959Y0081206D01*
X0231023Y0081178D01*
X0231086Y0081146D01*
X0231147Y0081111D01*
X0231206Y0081072D01*
X0231263Y0081031D01*
X0231317Y0080986D01*
X0231369Y0080938D01*
X0231418Y0080888D01*
X0231465Y0080834D01*
X0231508Y0080779D01*
X0231548Y0080721D01*
X0231585Y0080661D01*
X0231618Y0080599D01*
X0231648Y0080535D01*
X0231675Y0080470D01*
X0231698Y0080404D01*
X0231717Y0080336D01*
X0231732Y0080267D01*
X0231744Y0080198D01*
X0231752Y0080128D01*
X0231756Y0080057D01*
X0231756Y0079987D01*
X0231752Y0079916D01*
X0231744Y0079846D01*
X0231732Y0079777D01*
X0231717Y0079708D01*
X0231698Y0079640D01*
X0231675Y0079574D01*
X0231648Y0079509D01*
X0231618Y0079445D01*
X0231585Y0079383D01*
X0231548Y0079323D01*
X0231508Y0079265D01*
X0231465Y0079210D01*
X0231418Y0079156D01*
X0231369Y0079106D01*
X0231317Y0079058D01*
X0231263Y0079013D01*
X0231206Y0078972D01*
X0231147Y0078933D01*
X0231086Y0078898D01*
X0231023Y0078866D01*
X0230959Y0078838D01*
X0230893Y0078813D01*
X0230826Y0078792D01*
X0230757Y0078775D01*
X0230688Y0078761D01*
X0230619Y0078752D01*
X0230548Y0078746D01*
X0230478Y0078744D01*
X0229200Y0078744D01*
X0230733Y0078744D02*
X0231756Y0076700D01*
X0229200Y0076700D02*
X0229200Y0081300D01*
X0233671Y0080022D02*
X0233671Y0079767D01*
X0233673Y0079705D01*
X0233678Y0079644D01*
X0233688Y0079583D01*
X0233701Y0079522D01*
X0233717Y0079463D01*
X0233737Y0079405D01*
X0233761Y0079348D01*
X0233788Y0079292D01*
X0233818Y0079238D01*
X0233852Y0079186D01*
X0233888Y0079137D01*
X0233928Y0079089D01*
X0233970Y0079044D01*
X0234015Y0079002D01*
X0234063Y0078962D01*
X0234112Y0078926D01*
X0234164Y0078892D01*
X0234218Y0078862D01*
X0234274Y0078835D01*
X0234331Y0078811D01*
X0234389Y0078791D01*
X0234448Y0078775D01*
X0234509Y0078762D01*
X0234570Y0078752D01*
X0234631Y0078747D01*
X0234693Y0078745D01*
X0234693Y0078744D02*
X0236227Y0078744D01*
X0236227Y0080022D01*
X0236225Y0080092D01*
X0236219Y0080163D01*
X0236210Y0080232D01*
X0236196Y0080301D01*
X0236179Y0080370D01*
X0236158Y0080437D01*
X0236133Y0080503D01*
X0236105Y0080567D01*
X0236073Y0080630D01*
X0236038Y0080691D01*
X0235999Y0080750D01*
X0235958Y0080807D01*
X0235913Y0080861D01*
X0235865Y0080913D01*
X0235815Y0080962D01*
X0235761Y0081009D01*
X0235706Y0081052D01*
X0235648Y0081092D01*
X0235588Y0081129D01*
X0235526Y0081162D01*
X0235462Y0081192D01*
X0235397Y0081219D01*
X0235331Y0081242D01*
X0235263Y0081261D01*
X0235194Y0081276D01*
X0235125Y0081288D01*
X0235055Y0081296D01*
X0234984Y0081300D01*
X0234914Y0081300D01*
X0234843Y0081296D01*
X0234773Y0081288D01*
X0234704Y0081276D01*
X0234635Y0081261D01*
X0234567Y0081242D01*
X0234501Y0081219D01*
X0234436Y0081192D01*
X0234372Y0081162D01*
X0234310Y0081129D01*
X0234250Y0081092D01*
X0234192Y0081052D01*
X0234137Y0081009D01*
X0234083Y0080962D01*
X0234033Y0080913D01*
X0233985Y0080861D01*
X0233940Y0080807D01*
X0233899Y0080750D01*
X0233860Y0080691D01*
X0233825Y0080630D01*
X0233793Y0080567D01*
X0233765Y0080503D01*
X0233740Y0080437D01*
X0233719Y0080370D01*
X0233702Y0080301D01*
X0233688Y0080232D01*
X0233679Y0080163D01*
X0233673Y0080092D01*
X0233671Y0080022D01*
X0236226Y0078744D02*
X0236224Y0078655D01*
X0236218Y0078566D01*
X0236209Y0078477D01*
X0236195Y0078389D01*
X0236178Y0078302D01*
X0236156Y0078215D01*
X0236131Y0078129D01*
X0236103Y0078045D01*
X0236070Y0077962D01*
X0236034Y0077880D01*
X0235995Y0077800D01*
X0235952Y0077722D01*
X0235906Y0077646D01*
X0235856Y0077572D01*
X0235804Y0077500D01*
X0235748Y0077430D01*
X0235689Y0077363D01*
X0235627Y0077299D01*
X0235563Y0077237D01*
X0235496Y0077178D01*
X0235426Y0077122D01*
X0235354Y0077070D01*
X0235280Y0077020D01*
X0235204Y0076974D01*
X0235126Y0076931D01*
X0235046Y0076892D01*
X0234964Y0076856D01*
X0234881Y0076823D01*
X0234797Y0076795D01*
X0234711Y0076770D01*
X0234624Y0076748D01*
X0234537Y0076731D01*
X0234449Y0076717D01*
X0234360Y0076708D01*
X0234271Y0076702D01*
X0234182Y0076700D01*
X0200719Y0055382D02*
X0198547Y0052826D01*
X0201102Y0052826D01*
X0198547Y0056404D02*
X0198572Y0056474D01*
X0198600Y0056543D01*
X0198631Y0056610D01*
X0198666Y0056676D01*
X0198704Y0056739D01*
X0198746Y0056801D01*
X0198790Y0056861D01*
X0198837Y0056918D01*
X0198887Y0056973D01*
X0198940Y0057025D01*
X0198996Y0057075D01*
X0199054Y0057121D01*
X0199114Y0057165D01*
X0199176Y0057206D01*
X0199240Y0057243D01*
X0199306Y0057277D01*
X0199374Y0057308D01*
X0199443Y0057335D01*
X0199513Y0057359D01*
X0199584Y0057380D01*
X0199657Y0057396D01*
X0199730Y0057409D01*
X0199804Y0057419D01*
X0199878Y0057424D01*
X0199952Y0057426D01*
X0200019Y0057424D01*
X0200086Y0057418D01*
X0200152Y0057409D01*
X0200217Y0057395D01*
X0200282Y0057378D01*
X0200345Y0057357D01*
X0200407Y0057332D01*
X0200468Y0057304D01*
X0200527Y0057272D01*
X0200584Y0057237D01*
X0200639Y0057198D01*
X0200691Y0057157D01*
X0200741Y0057112D01*
X0200788Y0057065D01*
X0200833Y0057015D01*
X0200874Y0056963D01*
X0200913Y0056908D01*
X0200948Y0056851D01*
X0200980Y0056792D01*
X0201008Y0056731D01*
X0201033Y0056669D01*
X0201054Y0056606D01*
X0201071Y0056541D01*
X0201085Y0056476D01*
X0201094Y0056410D01*
X0201100Y0056343D01*
X0201102Y0056276D01*
X0201100Y0056209D01*
X0201095Y0056143D01*
X0201086Y0056077D01*
X0201073Y0056011D01*
X0201057Y0055947D01*
X0201038Y0055883D01*
X0201015Y0055820D01*
X0200989Y0055759D01*
X0200959Y0055699D01*
X0200926Y0055641D01*
X0200891Y0055585D01*
X0200852Y0055531D01*
X0200810Y0055479D01*
X0200766Y0055429D01*
X0200719Y0055382D01*
X0196471Y0053848D02*
X0196471Y0057426D01*
X0196470Y0053848D02*
X0196468Y0053786D01*
X0196463Y0053725D01*
X0196453Y0053664D01*
X0196440Y0053603D01*
X0196424Y0053544D01*
X0196404Y0053486D01*
X0196380Y0053429D01*
X0196353Y0053373D01*
X0196323Y0053319D01*
X0196289Y0053267D01*
X0196253Y0053218D01*
X0196213Y0053170D01*
X0196171Y0053125D01*
X0196126Y0053083D01*
X0196078Y0053043D01*
X0196029Y0053007D01*
X0195977Y0052973D01*
X0195923Y0052943D01*
X0195867Y0052916D01*
X0195810Y0052892D01*
X0195752Y0052872D01*
X0195693Y0052856D01*
X0195632Y0052843D01*
X0195571Y0052833D01*
X0195510Y0052828D01*
X0195448Y0052826D01*
X0194937Y0052826D01*
X0168300Y0055200D02*
X0165744Y0055200D01*
X0167917Y0057756D01*
X0167150Y0059800D02*
X0167076Y0059798D01*
X0167002Y0059793D01*
X0166928Y0059783D01*
X0166855Y0059770D01*
X0166782Y0059754D01*
X0166711Y0059733D01*
X0166641Y0059709D01*
X0166572Y0059682D01*
X0166504Y0059651D01*
X0166438Y0059617D01*
X0166374Y0059580D01*
X0166312Y0059539D01*
X0166252Y0059495D01*
X0166194Y0059449D01*
X0166138Y0059399D01*
X0166085Y0059347D01*
X0166035Y0059292D01*
X0165988Y0059235D01*
X0165944Y0059175D01*
X0165902Y0059113D01*
X0165864Y0059050D01*
X0165829Y0058984D01*
X0165798Y0058917D01*
X0165770Y0058848D01*
X0165745Y0058778D01*
X0167917Y0057756D02*
X0167964Y0057803D01*
X0168008Y0057853D01*
X0168050Y0057905D01*
X0168089Y0057959D01*
X0168124Y0058015D01*
X0168157Y0058073D01*
X0168187Y0058133D01*
X0168213Y0058194D01*
X0168236Y0058257D01*
X0168255Y0058321D01*
X0168271Y0058385D01*
X0168284Y0058451D01*
X0168293Y0058517D01*
X0168298Y0058583D01*
X0168300Y0058650D01*
X0168298Y0058717D01*
X0168292Y0058784D01*
X0168283Y0058850D01*
X0168269Y0058915D01*
X0168252Y0058980D01*
X0168231Y0059043D01*
X0168206Y0059105D01*
X0168178Y0059166D01*
X0168146Y0059225D01*
X0168111Y0059282D01*
X0168072Y0059337D01*
X0168031Y0059389D01*
X0167986Y0059439D01*
X0167939Y0059486D01*
X0167889Y0059531D01*
X0167837Y0059572D01*
X0167782Y0059611D01*
X0167725Y0059646D01*
X0167666Y0059678D01*
X0167605Y0059706D01*
X0167543Y0059731D01*
X0167480Y0059752D01*
X0167415Y0059769D01*
X0167350Y0059783D01*
X0167284Y0059792D01*
X0167217Y0059798D01*
X0167150Y0059800D01*
X0162522Y0059800D02*
X0162522Y0055200D01*
X0161244Y0055200D02*
X0163800Y0055200D01*
X0161244Y0058778D02*
X0162522Y0059800D01*
X0158051Y0059800D02*
X0156773Y0059800D01*
X0156773Y0055200D01*
X0156773Y0057244D02*
X0158051Y0057244D01*
X0158307Y0057244D02*
X0159329Y0055200D01*
X0158051Y0057244D02*
X0158121Y0057246D01*
X0158192Y0057252D01*
X0158261Y0057261D01*
X0158330Y0057275D01*
X0158399Y0057292D01*
X0158466Y0057313D01*
X0158532Y0057338D01*
X0158596Y0057366D01*
X0158659Y0057398D01*
X0158720Y0057433D01*
X0158779Y0057472D01*
X0158836Y0057513D01*
X0158890Y0057558D01*
X0158942Y0057606D01*
X0158991Y0057656D01*
X0159038Y0057710D01*
X0159081Y0057765D01*
X0159121Y0057823D01*
X0159158Y0057883D01*
X0159191Y0057945D01*
X0159221Y0058009D01*
X0159248Y0058074D01*
X0159271Y0058140D01*
X0159290Y0058208D01*
X0159305Y0058277D01*
X0159317Y0058346D01*
X0159325Y0058416D01*
X0159329Y0058487D01*
X0159329Y0058557D01*
X0159325Y0058628D01*
X0159317Y0058698D01*
X0159305Y0058767D01*
X0159290Y0058836D01*
X0159271Y0058904D01*
X0159248Y0058970D01*
X0159221Y0059035D01*
X0159191Y0059099D01*
X0159158Y0059161D01*
X0159121Y0059221D01*
X0159081Y0059279D01*
X0159038Y0059334D01*
X0158991Y0059388D01*
X0158942Y0059438D01*
X0158890Y0059486D01*
X0158836Y0059531D01*
X0158779Y0059572D01*
X0158720Y0059611D01*
X0158659Y0059646D01*
X0158596Y0059678D01*
X0158532Y0059706D01*
X0158466Y0059731D01*
X0158399Y0059752D01*
X0158330Y0059769D01*
X0158261Y0059783D01*
X0158192Y0059792D01*
X0158121Y0059798D01*
X0158051Y0059800D01*
X0158660Y0043800D02*
X0157382Y0043800D01*
X0157382Y0039200D01*
X0157382Y0041244D02*
X0158660Y0041244D01*
X0158730Y0041246D01*
X0158801Y0041252D01*
X0158870Y0041261D01*
X0158939Y0041275D01*
X0159008Y0041292D01*
X0159075Y0041313D01*
X0159141Y0041338D01*
X0159205Y0041366D01*
X0159268Y0041398D01*
X0159329Y0041433D01*
X0159388Y0041472D01*
X0159445Y0041513D01*
X0159499Y0041558D01*
X0159551Y0041606D01*
X0159600Y0041656D01*
X0159647Y0041710D01*
X0159690Y0041765D01*
X0159730Y0041823D01*
X0159767Y0041883D01*
X0159800Y0041945D01*
X0159830Y0042009D01*
X0159857Y0042074D01*
X0159880Y0042140D01*
X0159899Y0042208D01*
X0159914Y0042277D01*
X0159926Y0042346D01*
X0159934Y0042416D01*
X0159938Y0042487D01*
X0159938Y0042557D01*
X0159934Y0042628D01*
X0159926Y0042698D01*
X0159914Y0042767D01*
X0159899Y0042836D01*
X0159880Y0042904D01*
X0159857Y0042970D01*
X0159830Y0043035D01*
X0159800Y0043099D01*
X0159767Y0043161D01*
X0159730Y0043221D01*
X0159690Y0043279D01*
X0159647Y0043334D01*
X0159600Y0043388D01*
X0159551Y0043438D01*
X0159499Y0043486D01*
X0159445Y0043531D01*
X0159388Y0043572D01*
X0159329Y0043611D01*
X0159268Y0043646D01*
X0159205Y0043678D01*
X0159141Y0043706D01*
X0159075Y0043731D01*
X0159008Y0043752D01*
X0158939Y0043769D01*
X0158870Y0043783D01*
X0158801Y0043792D01*
X0158730Y0043798D01*
X0158660Y0043800D01*
X0161824Y0043800D02*
X0163869Y0043800D01*
X0165744Y0043800D02*
X0167022Y0043800D01*
X0165744Y0043800D02*
X0165744Y0039200D01*
X0163869Y0039200D02*
X0161824Y0039200D01*
X0161824Y0043800D01*
X0161824Y0041756D02*
X0163358Y0041756D01*
X0165744Y0041244D02*
X0167022Y0041244D01*
X0167278Y0041244D02*
X0168300Y0039200D01*
X0167022Y0041244D02*
X0167092Y0041246D01*
X0167163Y0041252D01*
X0167232Y0041261D01*
X0167301Y0041275D01*
X0167370Y0041292D01*
X0167437Y0041313D01*
X0167503Y0041338D01*
X0167567Y0041366D01*
X0167630Y0041398D01*
X0167691Y0041433D01*
X0167750Y0041472D01*
X0167807Y0041513D01*
X0167861Y0041558D01*
X0167913Y0041606D01*
X0167962Y0041656D01*
X0168009Y0041710D01*
X0168052Y0041765D01*
X0168092Y0041823D01*
X0168129Y0041883D01*
X0168162Y0041945D01*
X0168192Y0042009D01*
X0168219Y0042074D01*
X0168242Y0042140D01*
X0168261Y0042208D01*
X0168276Y0042277D01*
X0168288Y0042346D01*
X0168296Y0042416D01*
X0168300Y0042487D01*
X0168300Y0042557D01*
X0168296Y0042628D01*
X0168288Y0042698D01*
X0168276Y0042767D01*
X0168261Y0042836D01*
X0168242Y0042904D01*
X0168219Y0042970D01*
X0168192Y0043035D01*
X0168162Y0043099D01*
X0168129Y0043161D01*
X0168092Y0043221D01*
X0168052Y0043279D01*
X0168009Y0043334D01*
X0167962Y0043388D01*
X0167913Y0043438D01*
X0167861Y0043486D01*
X0167807Y0043531D01*
X0167750Y0043572D01*
X0167691Y0043611D01*
X0167630Y0043646D01*
X0167567Y0043678D01*
X0167503Y0043706D01*
X0167437Y0043731D01*
X0167370Y0043752D01*
X0167301Y0043769D01*
X0167232Y0043783D01*
X0167163Y0043792D01*
X0167092Y0043798D01*
X0167022Y0043800D01*
X0155027Y0043800D02*
X0155027Y0039200D01*
X0153493Y0041244D02*
X0155027Y0043800D01*
X0153493Y0041244D02*
X0151960Y0043800D01*
X0151960Y0039200D01*
X0149671Y0040478D02*
X0149671Y0043800D01*
X0147115Y0043800D02*
X0147115Y0040478D01*
X0147117Y0040408D01*
X0147123Y0040337D01*
X0147132Y0040268D01*
X0147146Y0040199D01*
X0147163Y0040130D01*
X0147184Y0040063D01*
X0147209Y0039997D01*
X0147237Y0039933D01*
X0147269Y0039870D01*
X0147304Y0039809D01*
X0147343Y0039750D01*
X0147384Y0039693D01*
X0147429Y0039639D01*
X0147477Y0039587D01*
X0147527Y0039538D01*
X0147581Y0039491D01*
X0147636Y0039448D01*
X0147694Y0039408D01*
X0147754Y0039371D01*
X0147816Y0039338D01*
X0147880Y0039308D01*
X0147945Y0039281D01*
X0148011Y0039258D01*
X0148079Y0039239D01*
X0148148Y0039224D01*
X0148217Y0039212D01*
X0148287Y0039204D01*
X0148358Y0039200D01*
X0148428Y0039200D01*
X0148499Y0039204D01*
X0148569Y0039212D01*
X0148638Y0039224D01*
X0148707Y0039239D01*
X0148775Y0039258D01*
X0148841Y0039281D01*
X0148906Y0039308D01*
X0148970Y0039338D01*
X0149032Y0039371D01*
X0149092Y0039408D01*
X0149150Y0039448D01*
X0149205Y0039491D01*
X0149259Y0039538D01*
X0149309Y0039587D01*
X0149357Y0039639D01*
X0149402Y0039693D01*
X0149443Y0039750D01*
X0149482Y0039809D01*
X0149517Y0039870D01*
X0149549Y0039933D01*
X0149577Y0039997D01*
X0149602Y0040063D01*
X0149623Y0040130D01*
X0149640Y0040199D01*
X0149654Y0040268D01*
X0149663Y0040337D01*
X0149669Y0040408D01*
X0149671Y0040478D01*
X0144889Y0040222D02*
X0144889Y0043800D01*
X0144889Y0040222D02*
X0144887Y0040160D01*
X0144882Y0040099D01*
X0144872Y0040038D01*
X0144859Y0039977D01*
X0144843Y0039918D01*
X0144823Y0039860D01*
X0144799Y0039803D01*
X0144772Y0039747D01*
X0144742Y0039693D01*
X0144708Y0039641D01*
X0144672Y0039592D01*
X0144632Y0039544D01*
X0144590Y0039499D01*
X0144545Y0039457D01*
X0144497Y0039417D01*
X0144448Y0039381D01*
X0144396Y0039347D01*
X0144342Y0039317D01*
X0144286Y0039290D01*
X0144229Y0039266D01*
X0144171Y0039246D01*
X0144112Y0039230D01*
X0144051Y0039217D01*
X0143990Y0039207D01*
X0143929Y0039202D01*
X0143867Y0039200D01*
X0143356Y0039200D01*
X0147209Y0033724D02*
X0148491Y0033724D01*
X0147209Y0033724D02*
X0147209Y0029109D01*
X0147209Y0031160D02*
X0148491Y0031160D01*
X0148562Y0031162D01*
X0148632Y0031168D01*
X0148702Y0031177D01*
X0148771Y0031191D01*
X0148840Y0031208D01*
X0148907Y0031229D01*
X0148973Y0031254D01*
X0149038Y0031283D01*
X0149101Y0031315D01*
X0149162Y0031350D01*
X0149221Y0031388D01*
X0149278Y0031430D01*
X0149333Y0031475D01*
X0149385Y0031523D01*
X0149434Y0031574D01*
X0149481Y0031627D01*
X0149524Y0031683D01*
X0149564Y0031741D01*
X0149601Y0031801D01*
X0149635Y0031863D01*
X0149665Y0031927D01*
X0149692Y0031992D01*
X0149715Y0032059D01*
X0149734Y0032127D01*
X0149749Y0032196D01*
X0149761Y0032266D01*
X0149769Y0032336D01*
X0149773Y0032407D01*
X0149773Y0032477D01*
X0149769Y0032548D01*
X0149761Y0032618D01*
X0149749Y0032688D01*
X0149734Y0032757D01*
X0149715Y0032825D01*
X0149692Y0032892D01*
X0149665Y0032957D01*
X0149635Y0033021D01*
X0149601Y0033083D01*
X0149564Y0033143D01*
X0149524Y0033201D01*
X0149481Y0033257D01*
X0149434Y0033310D01*
X0149385Y0033361D01*
X0149333Y0033409D01*
X0149278Y0033454D01*
X0149221Y0033496D01*
X0149162Y0033534D01*
X0149101Y0033569D01*
X0149038Y0033601D01*
X0148973Y0033630D01*
X0148907Y0033655D01*
X0148840Y0033676D01*
X0148771Y0033693D01*
X0148702Y0033707D01*
X0148632Y0033716D01*
X0148562Y0033722D01*
X0148491Y0033724D01*
X0151505Y0032698D02*
X0152787Y0033724D01*
X0152787Y0029109D01*
X0151505Y0029109D02*
X0154069Y0029109D01*
X0034329Y0141700D02*
X0033307Y0143744D01*
X0033051Y0143744D02*
X0031773Y0143744D01*
X0033051Y0143744D02*
X0033121Y0143746D01*
X0033192Y0143752D01*
X0033261Y0143761D01*
X0033330Y0143775D01*
X0033399Y0143792D01*
X0033466Y0143813D01*
X0033532Y0143838D01*
X0033596Y0143866D01*
X0033659Y0143898D01*
X0033720Y0143933D01*
X0033779Y0143972D01*
X0033836Y0144013D01*
X0033890Y0144058D01*
X0033942Y0144106D01*
X0033991Y0144156D01*
X0034038Y0144210D01*
X0034081Y0144265D01*
X0034121Y0144323D01*
X0034158Y0144383D01*
X0034191Y0144445D01*
X0034221Y0144509D01*
X0034248Y0144574D01*
X0034271Y0144640D01*
X0034290Y0144708D01*
X0034305Y0144777D01*
X0034317Y0144846D01*
X0034325Y0144916D01*
X0034329Y0144987D01*
X0034329Y0145057D01*
X0034325Y0145128D01*
X0034317Y0145198D01*
X0034305Y0145267D01*
X0034290Y0145336D01*
X0034271Y0145404D01*
X0034248Y0145470D01*
X0034221Y0145535D01*
X0034191Y0145599D01*
X0034158Y0145661D01*
X0034121Y0145721D01*
X0034081Y0145779D01*
X0034038Y0145834D01*
X0033991Y0145888D01*
X0033942Y0145938D01*
X0033890Y0145986D01*
X0033836Y0146031D01*
X0033779Y0146072D01*
X0033720Y0146111D01*
X0033659Y0146146D01*
X0033596Y0146178D01*
X0033532Y0146206D01*
X0033466Y0146231D01*
X0033399Y0146252D01*
X0033330Y0146269D01*
X0033261Y0146283D01*
X0033192Y0146292D01*
X0033121Y0146298D01*
X0033051Y0146300D01*
X0031773Y0146300D01*
X0031773Y0141700D01*
X0036244Y0142978D02*
X0036244Y0144256D01*
X0037778Y0144256D01*
X0036245Y0144256D02*
X0036247Y0144345D01*
X0036253Y0144434D01*
X0036262Y0144523D01*
X0036276Y0144611D01*
X0036293Y0144698D01*
X0036315Y0144785D01*
X0036340Y0144871D01*
X0036368Y0144955D01*
X0036401Y0145038D01*
X0036437Y0145120D01*
X0036476Y0145200D01*
X0036519Y0145278D01*
X0036565Y0145354D01*
X0036615Y0145428D01*
X0036667Y0145500D01*
X0036723Y0145570D01*
X0036782Y0145637D01*
X0036844Y0145701D01*
X0036908Y0145763D01*
X0036975Y0145822D01*
X0037045Y0145878D01*
X0037117Y0145930D01*
X0037191Y0145980D01*
X0037267Y0146026D01*
X0037345Y0146069D01*
X0037425Y0146108D01*
X0037507Y0146144D01*
X0037590Y0146177D01*
X0037674Y0146205D01*
X0037760Y0146230D01*
X0037847Y0146252D01*
X0037934Y0146269D01*
X0038022Y0146283D01*
X0038111Y0146292D01*
X0038200Y0146298D01*
X0038289Y0146300D01*
X0038800Y0143233D02*
X0038800Y0142978D01*
X0038800Y0143233D02*
X0038798Y0143295D01*
X0038793Y0143356D01*
X0038783Y0143417D01*
X0038770Y0143478D01*
X0038754Y0143537D01*
X0038734Y0143595D01*
X0038710Y0143652D01*
X0038683Y0143708D01*
X0038653Y0143762D01*
X0038619Y0143814D01*
X0038583Y0143863D01*
X0038543Y0143911D01*
X0038501Y0143956D01*
X0038456Y0143998D01*
X0038408Y0144038D01*
X0038359Y0144074D01*
X0038307Y0144108D01*
X0038253Y0144138D01*
X0038197Y0144165D01*
X0038140Y0144189D01*
X0038082Y0144209D01*
X0038023Y0144225D01*
X0037962Y0144238D01*
X0037901Y0144248D01*
X0037840Y0144253D01*
X0037778Y0144255D01*
X0038800Y0142978D02*
X0038798Y0142908D01*
X0038792Y0142837D01*
X0038783Y0142768D01*
X0038769Y0142699D01*
X0038752Y0142630D01*
X0038731Y0142563D01*
X0038706Y0142497D01*
X0038678Y0142433D01*
X0038646Y0142370D01*
X0038611Y0142309D01*
X0038572Y0142250D01*
X0038531Y0142193D01*
X0038486Y0142139D01*
X0038438Y0142087D01*
X0038388Y0142038D01*
X0038334Y0141991D01*
X0038279Y0141948D01*
X0038221Y0141908D01*
X0038161Y0141871D01*
X0038099Y0141838D01*
X0038035Y0141808D01*
X0037970Y0141781D01*
X0037904Y0141758D01*
X0037836Y0141739D01*
X0037767Y0141724D01*
X0037698Y0141712D01*
X0037628Y0141704D01*
X0037557Y0141700D01*
X0037487Y0141700D01*
X0037416Y0141704D01*
X0037346Y0141712D01*
X0037277Y0141724D01*
X0037208Y0141739D01*
X0037140Y0141758D01*
X0037074Y0141781D01*
X0037009Y0141808D01*
X0036945Y0141838D01*
X0036883Y0141871D01*
X0036823Y0141908D01*
X0036765Y0141948D01*
X0036710Y0141991D01*
X0036656Y0142038D01*
X0036606Y0142087D01*
X0036558Y0142139D01*
X0036513Y0142193D01*
X0036472Y0142250D01*
X0036433Y0142309D01*
X0036398Y0142370D01*
X0036366Y0142433D01*
X0036338Y0142497D01*
X0036313Y0142563D01*
X0036292Y0142630D01*
X0036275Y0142699D01*
X0036261Y0142768D01*
X0036252Y0142837D01*
X0036246Y0142908D01*
X0036244Y0142978D01*
X0056700Y0166700D02*
X0058233Y0171300D01*
X0059767Y0166700D01*
X0059383Y0167850D02*
X0057083Y0167850D01*
X0061635Y0168744D02*
X0062912Y0168744D01*
X0063168Y0168744D02*
X0064190Y0166700D01*
X0066256Y0166700D02*
X0067533Y0166700D01*
X0066256Y0166700D02*
X0066256Y0171300D01*
X0067533Y0171300D01*
X0067602Y0171298D01*
X0067671Y0171293D01*
X0067740Y0171283D01*
X0067808Y0171270D01*
X0067875Y0171253D01*
X0067941Y0171233D01*
X0068006Y0171209D01*
X0068070Y0171182D01*
X0068132Y0171151D01*
X0068192Y0171117D01*
X0068250Y0171080D01*
X0068306Y0171039D01*
X0068360Y0170996D01*
X0068412Y0170950D01*
X0068461Y0170901D01*
X0068507Y0170849D01*
X0068550Y0170795D01*
X0068591Y0170739D01*
X0068628Y0170681D01*
X0068662Y0170621D01*
X0068693Y0170559D01*
X0068720Y0170495D01*
X0068744Y0170430D01*
X0068764Y0170364D01*
X0068781Y0170297D01*
X0068794Y0170229D01*
X0068804Y0170160D01*
X0068809Y0170091D01*
X0068811Y0170022D01*
X0068811Y0167978D01*
X0068809Y0167909D01*
X0068804Y0167840D01*
X0068794Y0167771D01*
X0068781Y0167703D01*
X0068764Y0167636D01*
X0068744Y0167570D01*
X0068720Y0167505D01*
X0068693Y0167441D01*
X0068662Y0167379D01*
X0068628Y0167319D01*
X0068591Y0167261D01*
X0068550Y0167205D01*
X0068507Y0167151D01*
X0068461Y0167099D01*
X0068412Y0167050D01*
X0068360Y0167004D01*
X0068306Y0166961D01*
X0068250Y0166920D01*
X0068192Y0166883D01*
X0068132Y0166849D01*
X0068070Y0166818D01*
X0068006Y0166791D01*
X0067941Y0166767D01*
X0067875Y0166747D01*
X0067808Y0166730D01*
X0067740Y0166717D01*
X0067671Y0166707D01*
X0067602Y0166702D01*
X0067533Y0166700D01*
X0071056Y0167978D02*
X0071056Y0171300D01*
X0073611Y0171300D02*
X0073611Y0167978D01*
X0073609Y0167908D01*
X0073603Y0167837D01*
X0073594Y0167768D01*
X0073580Y0167699D01*
X0073563Y0167630D01*
X0073542Y0167563D01*
X0073517Y0167497D01*
X0073489Y0167433D01*
X0073457Y0167370D01*
X0073422Y0167309D01*
X0073383Y0167250D01*
X0073342Y0167193D01*
X0073297Y0167139D01*
X0073249Y0167087D01*
X0073199Y0167038D01*
X0073145Y0166991D01*
X0073090Y0166948D01*
X0073032Y0166908D01*
X0072972Y0166871D01*
X0072910Y0166838D01*
X0072846Y0166808D01*
X0072781Y0166781D01*
X0072715Y0166758D01*
X0072647Y0166739D01*
X0072578Y0166724D01*
X0072509Y0166712D01*
X0072439Y0166704D01*
X0072368Y0166700D01*
X0072298Y0166700D01*
X0072227Y0166704D01*
X0072157Y0166712D01*
X0072088Y0166724D01*
X0072019Y0166739D01*
X0071951Y0166758D01*
X0071885Y0166781D01*
X0071820Y0166808D01*
X0071756Y0166838D01*
X0071694Y0166871D01*
X0071634Y0166908D01*
X0071576Y0166948D01*
X0071521Y0166991D01*
X0071467Y0167038D01*
X0071417Y0167087D01*
X0071369Y0167139D01*
X0071324Y0167193D01*
X0071283Y0167250D01*
X0071244Y0167309D01*
X0071209Y0167370D01*
X0071177Y0167433D01*
X0071149Y0167497D01*
X0071124Y0167563D01*
X0071103Y0167630D01*
X0071086Y0167699D01*
X0071072Y0167768D01*
X0071063Y0167837D01*
X0071057Y0167908D01*
X0071055Y0167978D01*
X0075572Y0166700D02*
X0076594Y0166700D01*
X0076083Y0166700D02*
X0076083Y0171300D01*
X0075572Y0171300D02*
X0076594Y0171300D01*
X0078556Y0171300D02*
X0081111Y0166700D01*
X0081111Y0171300D01*
X0083205Y0170022D02*
X0083205Y0167978D01*
X0083207Y0167908D01*
X0083213Y0167837D01*
X0083222Y0167768D01*
X0083236Y0167699D01*
X0083253Y0167630D01*
X0083274Y0167563D01*
X0083299Y0167497D01*
X0083327Y0167433D01*
X0083359Y0167370D01*
X0083394Y0167309D01*
X0083433Y0167250D01*
X0083474Y0167193D01*
X0083519Y0167139D01*
X0083567Y0167087D01*
X0083617Y0167038D01*
X0083671Y0166991D01*
X0083726Y0166948D01*
X0083784Y0166908D01*
X0083844Y0166871D01*
X0083906Y0166838D01*
X0083970Y0166808D01*
X0084035Y0166781D01*
X0084101Y0166758D01*
X0084169Y0166739D01*
X0084238Y0166724D01*
X0084307Y0166712D01*
X0084377Y0166704D01*
X0084448Y0166700D01*
X0084518Y0166700D01*
X0084589Y0166704D01*
X0084659Y0166712D01*
X0084728Y0166724D01*
X0084797Y0166739D01*
X0084865Y0166758D01*
X0084931Y0166781D01*
X0084996Y0166808D01*
X0085060Y0166838D01*
X0085122Y0166871D01*
X0085182Y0166908D01*
X0085240Y0166948D01*
X0085295Y0166991D01*
X0085349Y0167038D01*
X0085399Y0167087D01*
X0085447Y0167139D01*
X0085492Y0167193D01*
X0085533Y0167250D01*
X0085572Y0167309D01*
X0085607Y0167370D01*
X0085639Y0167433D01*
X0085667Y0167497D01*
X0085692Y0167563D01*
X0085713Y0167630D01*
X0085730Y0167699D01*
X0085744Y0167768D01*
X0085753Y0167837D01*
X0085759Y0167908D01*
X0085761Y0167978D01*
X0085761Y0170022D01*
X0085759Y0170092D01*
X0085753Y0170163D01*
X0085744Y0170232D01*
X0085730Y0170301D01*
X0085713Y0170370D01*
X0085692Y0170437D01*
X0085667Y0170503D01*
X0085639Y0170567D01*
X0085607Y0170630D01*
X0085572Y0170691D01*
X0085533Y0170750D01*
X0085492Y0170807D01*
X0085447Y0170861D01*
X0085399Y0170913D01*
X0085349Y0170962D01*
X0085295Y0171009D01*
X0085240Y0171052D01*
X0085182Y0171092D01*
X0085122Y0171129D01*
X0085060Y0171162D01*
X0084996Y0171192D01*
X0084931Y0171219D01*
X0084865Y0171242D01*
X0084797Y0171261D01*
X0084728Y0171276D01*
X0084659Y0171288D01*
X0084589Y0171296D01*
X0084518Y0171300D01*
X0084448Y0171300D01*
X0084377Y0171296D01*
X0084307Y0171288D01*
X0084238Y0171276D01*
X0084169Y0171261D01*
X0084101Y0171242D01*
X0084035Y0171219D01*
X0083970Y0171192D01*
X0083906Y0171162D01*
X0083844Y0171129D01*
X0083784Y0171092D01*
X0083726Y0171052D01*
X0083671Y0171009D01*
X0083617Y0170962D01*
X0083567Y0170913D01*
X0083519Y0170861D01*
X0083474Y0170807D01*
X0083433Y0170750D01*
X0083394Y0170691D01*
X0083359Y0170630D01*
X0083327Y0170567D01*
X0083299Y0170503D01*
X0083274Y0170437D01*
X0083253Y0170370D01*
X0083236Y0170301D01*
X0083222Y0170232D01*
X0083213Y0170163D01*
X0083207Y0170092D01*
X0083205Y0170022D01*
X0078556Y0171300D02*
X0078556Y0166700D01*
X0087511Y0166189D02*
X0089555Y0166189D01*
X0091455Y0166700D02*
X0091455Y0171300D01*
X0094011Y0166700D01*
X0094011Y0171300D01*
X0097383Y0171300D02*
X0098917Y0166700D01*
X0098533Y0167850D02*
X0096233Y0167850D01*
X0095850Y0166700D02*
X0097383Y0171300D01*
X0100755Y0171300D02*
X0103311Y0166700D01*
X0103311Y0171300D01*
X0102722Y0170200D02*
X0102660Y0170202D01*
X0102599Y0170207D01*
X0102538Y0170217D01*
X0102477Y0170230D01*
X0102418Y0170246D01*
X0102360Y0170266D01*
X0102303Y0170290D01*
X0102247Y0170317D01*
X0102193Y0170347D01*
X0102141Y0170381D01*
X0102092Y0170417D01*
X0102044Y0170457D01*
X0101999Y0170499D01*
X0101957Y0170544D01*
X0101918Y0170592D01*
X0101881Y0170641D01*
X0101847Y0170693D01*
X0101817Y0170747D01*
X0101790Y0170803D01*
X0101766Y0170860D01*
X0101746Y0170918D01*
X0101730Y0170977D01*
X0101717Y0171038D01*
X0101707Y0171099D01*
X0101702Y0171160D01*
X0101700Y0171222D01*
X0101700Y0172244D01*
X0100755Y0171300D02*
X0100755Y0166700D01*
X0102722Y0170200D02*
X0105278Y0170200D01*
X0105405Y0170022D02*
X0105405Y0167978D01*
X0105407Y0167908D01*
X0105413Y0167837D01*
X0105422Y0167768D01*
X0105436Y0167699D01*
X0105453Y0167630D01*
X0105474Y0167563D01*
X0105499Y0167497D01*
X0105527Y0167433D01*
X0105559Y0167370D01*
X0105594Y0167309D01*
X0105633Y0167250D01*
X0105674Y0167193D01*
X0105719Y0167139D01*
X0105767Y0167087D01*
X0105817Y0167038D01*
X0105871Y0166991D01*
X0105926Y0166948D01*
X0105984Y0166908D01*
X0106044Y0166871D01*
X0106106Y0166838D01*
X0106170Y0166808D01*
X0106235Y0166781D01*
X0106301Y0166758D01*
X0106369Y0166739D01*
X0106438Y0166724D01*
X0106507Y0166712D01*
X0106577Y0166704D01*
X0106648Y0166700D01*
X0106718Y0166700D01*
X0106789Y0166704D01*
X0106859Y0166712D01*
X0106928Y0166724D01*
X0106997Y0166739D01*
X0107065Y0166758D01*
X0107131Y0166781D01*
X0107196Y0166808D01*
X0107260Y0166838D01*
X0107322Y0166871D01*
X0107382Y0166908D01*
X0107440Y0166948D01*
X0107495Y0166991D01*
X0107549Y0167038D01*
X0107599Y0167087D01*
X0107647Y0167139D01*
X0107692Y0167193D01*
X0107733Y0167250D01*
X0107772Y0167309D01*
X0107807Y0167370D01*
X0107839Y0167433D01*
X0107867Y0167497D01*
X0107892Y0167563D01*
X0107913Y0167630D01*
X0107930Y0167699D01*
X0107944Y0167768D01*
X0107953Y0167837D01*
X0107959Y0167908D01*
X0107961Y0167978D01*
X0107961Y0170022D01*
X0107959Y0170092D01*
X0107953Y0170163D01*
X0107944Y0170232D01*
X0107930Y0170301D01*
X0107913Y0170370D01*
X0107892Y0170437D01*
X0107867Y0170503D01*
X0107839Y0170567D01*
X0107807Y0170630D01*
X0107772Y0170691D01*
X0107733Y0170750D01*
X0107692Y0170807D01*
X0107647Y0170861D01*
X0107599Y0170913D01*
X0107549Y0170962D01*
X0107495Y0171009D01*
X0107440Y0171052D01*
X0107382Y0171092D01*
X0107322Y0171129D01*
X0107260Y0171162D01*
X0107196Y0171192D01*
X0107131Y0171219D01*
X0107065Y0171242D01*
X0106997Y0171261D01*
X0106928Y0171276D01*
X0106859Y0171288D01*
X0106789Y0171296D01*
X0106718Y0171300D01*
X0106648Y0171300D01*
X0106577Y0171296D01*
X0106507Y0171288D01*
X0106438Y0171276D01*
X0106369Y0171261D01*
X0106301Y0171242D01*
X0106235Y0171219D01*
X0106170Y0171192D01*
X0106106Y0171162D01*
X0106044Y0171129D01*
X0105984Y0171092D01*
X0105926Y0171052D01*
X0105871Y0171009D01*
X0105817Y0170962D01*
X0105767Y0170913D01*
X0105719Y0170861D01*
X0105674Y0170807D01*
X0105633Y0170750D01*
X0105594Y0170691D01*
X0105559Y0170630D01*
X0105527Y0170567D01*
X0105499Y0170503D01*
X0105474Y0170437D01*
X0105453Y0170370D01*
X0105436Y0170301D01*
X0105422Y0170232D01*
X0105413Y0170163D01*
X0105407Y0170092D01*
X0105405Y0170022D01*
X0105278Y0170200D02*
X0105340Y0170202D01*
X0105401Y0170207D01*
X0105462Y0170217D01*
X0105523Y0170230D01*
X0105582Y0170246D01*
X0105640Y0170266D01*
X0105697Y0170290D01*
X0105753Y0170317D01*
X0105807Y0170347D01*
X0105859Y0170381D01*
X0105908Y0170417D01*
X0105956Y0170457D01*
X0106001Y0170499D01*
X0106043Y0170544D01*
X0106083Y0170592D01*
X0106119Y0170641D01*
X0106153Y0170693D01*
X0106183Y0170747D01*
X0106210Y0170803D01*
X0106234Y0170860D01*
X0106254Y0170918D01*
X0106270Y0170977D01*
X0106283Y0171038D01*
X0106293Y0171099D01*
X0106298Y0171160D01*
X0106300Y0171222D01*
X0106300Y0172244D01*
X0106300Y0173963D02*
X0106300Y0176519D01*
X0106300Y0173963D02*
X0103744Y0176135D01*
X0101700Y0175369D02*
X0101702Y0175295D01*
X0101707Y0175221D01*
X0101717Y0175147D01*
X0101730Y0175074D01*
X0101746Y0175001D01*
X0101767Y0174930D01*
X0101791Y0174860D01*
X0101818Y0174791D01*
X0101849Y0174723D01*
X0101883Y0174657D01*
X0101920Y0174593D01*
X0101961Y0174531D01*
X0102005Y0174470D01*
X0102051Y0174413D01*
X0102101Y0174357D01*
X0102153Y0174304D01*
X0102208Y0174254D01*
X0102265Y0174207D01*
X0102325Y0174163D01*
X0102387Y0174121D01*
X0102450Y0174083D01*
X0102516Y0174048D01*
X0102583Y0174017D01*
X0102652Y0173989D01*
X0102722Y0173964D01*
X0103744Y0176135D02*
X0103697Y0176182D01*
X0103647Y0176226D01*
X0103595Y0176268D01*
X0103541Y0176307D01*
X0103485Y0176342D01*
X0103427Y0176375D01*
X0103367Y0176405D01*
X0103306Y0176431D01*
X0103243Y0176454D01*
X0103179Y0176473D01*
X0103115Y0176489D01*
X0103049Y0176502D01*
X0102983Y0176511D01*
X0102917Y0176516D01*
X0102850Y0176518D01*
X0102850Y0176519D02*
X0102783Y0176517D01*
X0102716Y0176511D01*
X0102650Y0176502D01*
X0102585Y0176488D01*
X0102520Y0176471D01*
X0102457Y0176450D01*
X0102395Y0176425D01*
X0102334Y0176397D01*
X0102275Y0176365D01*
X0102218Y0176330D01*
X0102163Y0176291D01*
X0102111Y0176250D01*
X0102061Y0176205D01*
X0102014Y0176158D01*
X0101969Y0176108D01*
X0101928Y0176056D01*
X0101889Y0176001D01*
X0101854Y0175944D01*
X0101822Y0175885D01*
X0101794Y0175824D01*
X0101769Y0175762D01*
X0101748Y0175699D01*
X0101731Y0175634D01*
X0101717Y0175569D01*
X0101708Y0175503D01*
X0101702Y0175436D01*
X0101700Y0175369D01*
X0109905Y0170278D02*
X0111183Y0171300D01*
X0111183Y0166700D01*
X0109905Y0166700D02*
X0112461Y0166700D01*
X0116700Y0160022D02*
X0121300Y0160022D01*
X0121300Y0158744D02*
X0121300Y0161300D01*
X0121300Y0157026D02*
X0121300Y0156004D01*
X0121298Y0155942D01*
X0121293Y0155881D01*
X0121283Y0155820D01*
X0121270Y0155759D01*
X0121254Y0155700D01*
X0121234Y0155642D01*
X0121210Y0155585D01*
X0121183Y0155529D01*
X0121153Y0155475D01*
X0121119Y0155423D01*
X0121083Y0155374D01*
X0121043Y0155326D01*
X0121001Y0155281D01*
X0120956Y0155239D01*
X0120908Y0155199D01*
X0120859Y0155163D01*
X0120807Y0155129D01*
X0120753Y0155099D01*
X0120697Y0155072D01*
X0120640Y0155048D01*
X0120582Y0155028D01*
X0120523Y0155012D01*
X0120462Y0154999D01*
X0120401Y0154989D01*
X0120340Y0154984D01*
X0120278Y0154982D01*
X0120278Y0154981D02*
X0117722Y0154981D01*
X0117722Y0154982D02*
X0117660Y0154984D01*
X0117599Y0154989D01*
X0117538Y0154999D01*
X0117477Y0155012D01*
X0117418Y0155028D01*
X0117360Y0155048D01*
X0117303Y0155072D01*
X0117247Y0155099D01*
X0117193Y0155129D01*
X0117141Y0155163D01*
X0117092Y0155199D01*
X0117044Y0155239D01*
X0116999Y0155281D01*
X0116957Y0155326D01*
X0116918Y0155374D01*
X0116881Y0155423D01*
X0116847Y0155475D01*
X0116817Y0155529D01*
X0116790Y0155585D01*
X0116766Y0155642D01*
X0116746Y0155700D01*
X0116730Y0155759D01*
X0116717Y0155820D01*
X0116707Y0155881D01*
X0116702Y0155942D01*
X0116700Y0156004D01*
X0116700Y0157026D01*
X0117722Y0158744D02*
X0116700Y0160022D01*
X0121700Y0173200D02*
X0121700Y0174478D01*
X0121702Y0174548D01*
X0121708Y0174619D01*
X0121717Y0174688D01*
X0121731Y0174757D01*
X0121748Y0174826D01*
X0121769Y0174893D01*
X0121794Y0174959D01*
X0121822Y0175023D01*
X0121854Y0175086D01*
X0121889Y0175147D01*
X0121928Y0175206D01*
X0121969Y0175263D01*
X0122014Y0175317D01*
X0122062Y0175369D01*
X0122112Y0175418D01*
X0122166Y0175465D01*
X0122221Y0175508D01*
X0122279Y0175548D01*
X0122339Y0175585D01*
X0122401Y0175618D01*
X0122465Y0175648D01*
X0122530Y0175675D01*
X0122596Y0175698D01*
X0122664Y0175717D01*
X0122733Y0175732D01*
X0122802Y0175744D01*
X0122872Y0175752D01*
X0122943Y0175756D01*
X0123013Y0175756D01*
X0123084Y0175752D01*
X0123154Y0175744D01*
X0123223Y0175732D01*
X0123292Y0175717D01*
X0123360Y0175698D01*
X0123426Y0175675D01*
X0123491Y0175648D01*
X0123555Y0175618D01*
X0123617Y0175585D01*
X0123677Y0175548D01*
X0123735Y0175508D01*
X0123790Y0175465D01*
X0123844Y0175418D01*
X0123894Y0175369D01*
X0123942Y0175317D01*
X0123987Y0175263D01*
X0124028Y0175206D01*
X0124067Y0175147D01*
X0124102Y0175086D01*
X0124134Y0175023D01*
X0124162Y0174959D01*
X0124187Y0174893D01*
X0124208Y0174826D01*
X0124225Y0174757D01*
X0124239Y0174688D01*
X0124248Y0174619D01*
X0124254Y0174548D01*
X0124256Y0174478D01*
X0124256Y0173200D01*
X0124256Y0174733D02*
X0126300Y0175756D01*
X0126300Y0177671D02*
X0126300Y0180227D01*
X0126300Y0178949D02*
X0121700Y0178949D01*
X0122722Y0177671D01*
X0121700Y0173200D02*
X0126300Y0173200D01*
X0144200Y0174144D02*
X0147778Y0173122D01*
X0147778Y0175678D01*
X0146756Y0174911D02*
X0148800Y0174911D01*
X0148800Y0177622D02*
X0148800Y0180178D01*
X0148800Y0178900D02*
X0144200Y0178900D01*
X0145222Y0177622D01*
X0147778Y0182122D02*
X0147778Y0184678D01*
X0146756Y0183911D02*
X0148800Y0183911D01*
X0147778Y0182122D02*
X0144200Y0183144D01*
X0145222Y0186878D02*
X0145285Y0186880D01*
X0145348Y0186886D01*
X0145410Y0186895D01*
X0145471Y0186909D01*
X0145532Y0186926D01*
X0145591Y0186947D01*
X0145649Y0186972D01*
X0145706Y0187000D01*
X0145760Y0187031D01*
X0145812Y0187066D01*
X0145863Y0187104D01*
X0145911Y0187145D01*
X0145956Y0187189D01*
X0145998Y0187235D01*
X0146038Y0187284D01*
X0146074Y0187335D01*
X0146107Y0187389D01*
X0146137Y0187444D01*
X0146163Y0187502D01*
X0146186Y0187560D01*
X0146205Y0187620D01*
X0146220Y0187681D01*
X0146232Y0187743D01*
X0146240Y0187806D01*
X0146244Y0187869D01*
X0146244Y0187931D01*
X0146240Y0187994D01*
X0146232Y0188057D01*
X0146220Y0188119D01*
X0146205Y0188180D01*
X0146186Y0188240D01*
X0146163Y0188298D01*
X0146137Y0188356D01*
X0146107Y0188411D01*
X0146074Y0188465D01*
X0146038Y0188516D01*
X0145998Y0188565D01*
X0145956Y0188611D01*
X0145911Y0188655D01*
X0145863Y0188696D01*
X0145812Y0188734D01*
X0145760Y0188769D01*
X0145706Y0188800D01*
X0145649Y0188828D01*
X0145591Y0188853D01*
X0145532Y0188874D01*
X0145471Y0188891D01*
X0145410Y0188905D01*
X0145348Y0188914D01*
X0145285Y0188920D01*
X0145222Y0188922D01*
X0145159Y0188920D01*
X0145096Y0188914D01*
X0145034Y0188905D01*
X0144973Y0188891D01*
X0144912Y0188874D01*
X0144853Y0188853D01*
X0144795Y0188828D01*
X0144738Y0188800D01*
X0144684Y0188769D01*
X0144632Y0188734D01*
X0144581Y0188696D01*
X0144533Y0188655D01*
X0144488Y0188611D01*
X0144446Y0188565D01*
X0144406Y0188516D01*
X0144370Y0188465D01*
X0144337Y0188411D01*
X0144307Y0188356D01*
X0144281Y0188298D01*
X0144258Y0188240D01*
X0144239Y0188180D01*
X0144224Y0188119D01*
X0144212Y0188057D01*
X0144204Y0187994D01*
X0144200Y0187931D01*
X0144200Y0187869D01*
X0144204Y0187806D01*
X0144212Y0187743D01*
X0144224Y0187681D01*
X0144239Y0187620D01*
X0144258Y0187560D01*
X0144281Y0187502D01*
X0144307Y0187444D01*
X0144337Y0187389D01*
X0144370Y0187335D01*
X0144406Y0187284D01*
X0144446Y0187235D01*
X0144488Y0187189D01*
X0144533Y0187145D01*
X0144581Y0187104D01*
X0144632Y0187066D01*
X0144684Y0187031D01*
X0144738Y0187000D01*
X0144795Y0186972D01*
X0144853Y0186947D01*
X0144912Y0186926D01*
X0144973Y0186909D01*
X0145034Y0186895D01*
X0145096Y0186886D01*
X0145159Y0186880D01*
X0145222Y0186878D01*
X0147522Y0186622D02*
X0147592Y0186624D01*
X0147663Y0186630D01*
X0147732Y0186639D01*
X0147801Y0186653D01*
X0147870Y0186670D01*
X0147937Y0186691D01*
X0148003Y0186716D01*
X0148067Y0186744D01*
X0148130Y0186776D01*
X0148191Y0186811D01*
X0148250Y0186850D01*
X0148307Y0186891D01*
X0148361Y0186936D01*
X0148413Y0186984D01*
X0148462Y0187034D01*
X0148509Y0187088D01*
X0148552Y0187143D01*
X0148592Y0187201D01*
X0148629Y0187261D01*
X0148662Y0187323D01*
X0148692Y0187387D01*
X0148719Y0187452D01*
X0148742Y0187518D01*
X0148761Y0187586D01*
X0148776Y0187655D01*
X0148788Y0187724D01*
X0148796Y0187794D01*
X0148800Y0187865D01*
X0148800Y0187935D01*
X0148796Y0188006D01*
X0148788Y0188076D01*
X0148776Y0188145D01*
X0148761Y0188214D01*
X0148742Y0188282D01*
X0148719Y0188348D01*
X0148692Y0188413D01*
X0148662Y0188477D01*
X0148629Y0188539D01*
X0148592Y0188599D01*
X0148552Y0188657D01*
X0148509Y0188712D01*
X0148462Y0188766D01*
X0148413Y0188816D01*
X0148361Y0188864D01*
X0148307Y0188909D01*
X0148250Y0188950D01*
X0148191Y0188989D01*
X0148130Y0189024D01*
X0148067Y0189056D01*
X0148003Y0189084D01*
X0147937Y0189109D01*
X0147870Y0189130D01*
X0147801Y0189147D01*
X0147732Y0189161D01*
X0147663Y0189170D01*
X0147592Y0189176D01*
X0147522Y0189178D01*
X0147452Y0189176D01*
X0147381Y0189170D01*
X0147312Y0189161D01*
X0147243Y0189147D01*
X0147174Y0189130D01*
X0147107Y0189109D01*
X0147041Y0189084D01*
X0146977Y0189056D01*
X0146914Y0189024D01*
X0146853Y0188989D01*
X0146794Y0188950D01*
X0146737Y0188909D01*
X0146683Y0188864D01*
X0146631Y0188816D01*
X0146582Y0188766D01*
X0146535Y0188712D01*
X0146492Y0188657D01*
X0146452Y0188599D01*
X0146415Y0188539D01*
X0146382Y0188477D01*
X0146352Y0188413D01*
X0146325Y0188348D01*
X0146302Y0188282D01*
X0146283Y0188214D01*
X0146268Y0188145D01*
X0146256Y0188076D01*
X0146248Y0188006D01*
X0146244Y0187935D01*
X0146244Y0187865D01*
X0146248Y0187794D01*
X0146256Y0187724D01*
X0146268Y0187655D01*
X0146283Y0187586D01*
X0146302Y0187518D01*
X0146325Y0187452D01*
X0146352Y0187387D01*
X0146382Y0187323D01*
X0146415Y0187261D01*
X0146452Y0187201D01*
X0146492Y0187143D01*
X0146535Y0187088D01*
X0146582Y0187034D01*
X0146631Y0186984D01*
X0146683Y0186936D01*
X0146737Y0186891D01*
X0146794Y0186850D01*
X0146853Y0186811D01*
X0146914Y0186776D01*
X0146977Y0186744D01*
X0147041Y0186716D01*
X0147107Y0186691D01*
X0147174Y0186670D01*
X0147243Y0186653D01*
X0147312Y0186639D01*
X0147381Y0186630D01*
X0147452Y0186624D01*
X0147522Y0186622D01*
X0148800Y0171028D02*
X0144200Y0171028D01*
X0144200Y0168472D02*
X0148800Y0171028D01*
X0148800Y0168472D02*
X0144200Y0168472D01*
X0144200Y0165100D02*
X0148800Y0165100D01*
X0148800Y0163822D02*
X0148800Y0166378D01*
X0145222Y0163822D02*
X0144200Y0165100D01*
X0141300Y0158800D02*
X0141300Y0156244D01*
X0138744Y0158417D01*
X0136700Y0157650D02*
X0136702Y0157576D01*
X0136707Y0157502D01*
X0136717Y0157428D01*
X0136730Y0157355D01*
X0136746Y0157282D01*
X0136767Y0157211D01*
X0136791Y0157141D01*
X0136818Y0157072D01*
X0136849Y0157004D01*
X0136883Y0156938D01*
X0136920Y0156874D01*
X0136961Y0156812D01*
X0137005Y0156751D01*
X0137051Y0156694D01*
X0137101Y0156638D01*
X0137153Y0156585D01*
X0137208Y0156535D01*
X0137265Y0156488D01*
X0137325Y0156444D01*
X0137387Y0156402D01*
X0137450Y0156364D01*
X0137516Y0156329D01*
X0137583Y0156298D01*
X0137652Y0156270D01*
X0137722Y0156245D01*
X0138744Y0158417D02*
X0138697Y0158464D01*
X0138647Y0158508D01*
X0138595Y0158550D01*
X0138541Y0158589D01*
X0138485Y0158624D01*
X0138427Y0158657D01*
X0138367Y0158687D01*
X0138306Y0158713D01*
X0138243Y0158736D01*
X0138179Y0158755D01*
X0138115Y0158771D01*
X0138049Y0158784D01*
X0137983Y0158793D01*
X0137917Y0158798D01*
X0137850Y0158800D01*
X0137783Y0158798D01*
X0137716Y0158792D01*
X0137650Y0158783D01*
X0137585Y0158769D01*
X0137520Y0158752D01*
X0137457Y0158731D01*
X0137395Y0158706D01*
X0137334Y0158678D01*
X0137275Y0158646D01*
X0137218Y0158611D01*
X0137163Y0158572D01*
X0137111Y0158531D01*
X0137061Y0158486D01*
X0137014Y0158439D01*
X0136969Y0158389D01*
X0136928Y0158337D01*
X0136889Y0158282D01*
X0136854Y0158225D01*
X0136822Y0158166D01*
X0136794Y0158105D01*
X0136769Y0158043D01*
X0136748Y0157980D01*
X0136731Y0157915D01*
X0136717Y0157850D01*
X0136708Y0157784D01*
X0136702Y0157717D01*
X0136700Y0157650D01*
X0136700Y0153051D02*
X0136700Y0151773D01*
X0141300Y0151773D01*
X0139256Y0151773D02*
X0139256Y0153051D01*
X0139256Y0153307D02*
X0141300Y0154329D01*
X0139256Y0153051D02*
X0139254Y0153121D01*
X0139248Y0153192D01*
X0139239Y0153261D01*
X0139225Y0153330D01*
X0139208Y0153399D01*
X0139187Y0153466D01*
X0139162Y0153532D01*
X0139134Y0153596D01*
X0139102Y0153659D01*
X0139067Y0153720D01*
X0139028Y0153779D01*
X0138987Y0153836D01*
X0138942Y0153890D01*
X0138894Y0153942D01*
X0138844Y0153991D01*
X0138790Y0154038D01*
X0138735Y0154081D01*
X0138677Y0154121D01*
X0138617Y0154158D01*
X0138555Y0154191D01*
X0138491Y0154221D01*
X0138426Y0154248D01*
X0138360Y0154271D01*
X0138292Y0154290D01*
X0138223Y0154305D01*
X0138154Y0154317D01*
X0138084Y0154325D01*
X0138013Y0154329D01*
X0137943Y0154329D01*
X0137872Y0154325D01*
X0137802Y0154317D01*
X0137733Y0154305D01*
X0137664Y0154290D01*
X0137596Y0154271D01*
X0137530Y0154248D01*
X0137465Y0154221D01*
X0137401Y0154191D01*
X0137339Y0154158D01*
X0137279Y0154121D01*
X0137221Y0154081D01*
X0137166Y0154038D01*
X0137112Y0153991D01*
X0137062Y0153942D01*
X0137014Y0153890D01*
X0136969Y0153836D01*
X0136928Y0153779D01*
X0136889Y0153720D01*
X0136854Y0153659D01*
X0136822Y0153596D01*
X0136794Y0153532D01*
X0136769Y0153466D01*
X0136748Y0153399D01*
X0136731Y0153330D01*
X0136717Y0153261D01*
X0136708Y0153192D01*
X0136702Y0153121D01*
X0136700Y0153051D01*
X0156700Y0153051D02*
X0156700Y0151773D01*
X0161300Y0151773D01*
X0159256Y0151773D02*
X0159256Y0153051D01*
X0159256Y0153307D02*
X0161300Y0154329D01*
X0161300Y0156244D02*
X0161300Y0157522D01*
X0161298Y0157592D01*
X0161292Y0157663D01*
X0161283Y0157732D01*
X0161269Y0157801D01*
X0161252Y0157870D01*
X0161231Y0157937D01*
X0161206Y0158003D01*
X0161178Y0158067D01*
X0161146Y0158130D01*
X0161111Y0158191D01*
X0161072Y0158250D01*
X0161031Y0158307D01*
X0160986Y0158361D01*
X0160938Y0158413D01*
X0160888Y0158462D01*
X0160834Y0158509D01*
X0160779Y0158552D01*
X0160721Y0158592D01*
X0160661Y0158629D01*
X0160599Y0158662D01*
X0160535Y0158692D01*
X0160470Y0158719D01*
X0160404Y0158742D01*
X0160336Y0158761D01*
X0160267Y0158776D01*
X0160198Y0158788D01*
X0160128Y0158796D01*
X0160057Y0158800D01*
X0159987Y0158800D01*
X0159916Y0158796D01*
X0159846Y0158788D01*
X0159777Y0158776D01*
X0159708Y0158761D01*
X0159640Y0158742D01*
X0159574Y0158719D01*
X0159509Y0158692D01*
X0159445Y0158662D01*
X0159383Y0158629D01*
X0159323Y0158592D01*
X0159265Y0158552D01*
X0159210Y0158509D01*
X0159156Y0158462D01*
X0159106Y0158413D01*
X0159058Y0158361D01*
X0159013Y0158307D01*
X0158972Y0158250D01*
X0158933Y0158191D01*
X0158898Y0158130D01*
X0158866Y0158067D01*
X0158838Y0158003D01*
X0158813Y0157937D01*
X0158792Y0157870D01*
X0158775Y0157801D01*
X0158761Y0157732D01*
X0158752Y0157663D01*
X0158746Y0157592D01*
X0158744Y0157522D01*
X0158744Y0157778D02*
X0158744Y0156756D01*
X0158744Y0157778D02*
X0158742Y0157841D01*
X0158736Y0157904D01*
X0158727Y0157966D01*
X0158713Y0158027D01*
X0158696Y0158088D01*
X0158675Y0158147D01*
X0158650Y0158205D01*
X0158622Y0158262D01*
X0158591Y0158316D01*
X0158556Y0158368D01*
X0158518Y0158419D01*
X0158477Y0158467D01*
X0158433Y0158512D01*
X0158387Y0158554D01*
X0158338Y0158594D01*
X0158287Y0158630D01*
X0158233Y0158663D01*
X0158178Y0158693D01*
X0158120Y0158719D01*
X0158062Y0158742D01*
X0158002Y0158761D01*
X0157941Y0158776D01*
X0157879Y0158788D01*
X0157816Y0158796D01*
X0157753Y0158800D01*
X0157691Y0158800D01*
X0157628Y0158796D01*
X0157565Y0158788D01*
X0157503Y0158776D01*
X0157442Y0158761D01*
X0157382Y0158742D01*
X0157324Y0158719D01*
X0157266Y0158693D01*
X0157211Y0158663D01*
X0157157Y0158630D01*
X0157106Y0158594D01*
X0157057Y0158554D01*
X0157011Y0158512D01*
X0156967Y0158467D01*
X0156926Y0158419D01*
X0156888Y0158368D01*
X0156853Y0158316D01*
X0156822Y0158262D01*
X0156794Y0158205D01*
X0156769Y0158147D01*
X0156748Y0158088D01*
X0156731Y0158027D01*
X0156717Y0157966D01*
X0156708Y0157904D01*
X0156702Y0157841D01*
X0156700Y0157778D01*
X0156700Y0156244D01*
X0156700Y0153051D02*
X0156702Y0153121D01*
X0156708Y0153192D01*
X0156717Y0153261D01*
X0156731Y0153330D01*
X0156748Y0153399D01*
X0156769Y0153466D01*
X0156794Y0153532D01*
X0156822Y0153596D01*
X0156854Y0153659D01*
X0156889Y0153720D01*
X0156928Y0153779D01*
X0156969Y0153836D01*
X0157014Y0153890D01*
X0157062Y0153942D01*
X0157112Y0153991D01*
X0157166Y0154038D01*
X0157221Y0154081D01*
X0157279Y0154121D01*
X0157339Y0154158D01*
X0157401Y0154191D01*
X0157465Y0154221D01*
X0157530Y0154248D01*
X0157596Y0154271D01*
X0157664Y0154290D01*
X0157733Y0154305D01*
X0157802Y0154317D01*
X0157872Y0154325D01*
X0157943Y0154329D01*
X0158013Y0154329D01*
X0158084Y0154325D01*
X0158154Y0154317D01*
X0158223Y0154305D01*
X0158292Y0154290D01*
X0158360Y0154271D01*
X0158426Y0154248D01*
X0158491Y0154221D01*
X0158555Y0154191D01*
X0158617Y0154158D01*
X0158677Y0154121D01*
X0158735Y0154081D01*
X0158790Y0154038D01*
X0158844Y0153991D01*
X0158894Y0153942D01*
X0158942Y0153890D01*
X0158987Y0153836D01*
X0159028Y0153779D01*
X0159067Y0153720D01*
X0159102Y0153659D01*
X0159134Y0153596D01*
X0159162Y0153532D01*
X0159187Y0153466D01*
X0159208Y0153399D01*
X0159225Y0153330D01*
X0159239Y0153261D01*
X0159248Y0153192D01*
X0159254Y0153121D01*
X0159256Y0153051D01*
X0062912Y0168744D02*
X0062982Y0168746D01*
X0063053Y0168752D01*
X0063122Y0168761D01*
X0063191Y0168775D01*
X0063260Y0168792D01*
X0063327Y0168813D01*
X0063393Y0168838D01*
X0063457Y0168866D01*
X0063520Y0168898D01*
X0063581Y0168933D01*
X0063640Y0168972D01*
X0063697Y0169013D01*
X0063751Y0169058D01*
X0063803Y0169106D01*
X0063852Y0169156D01*
X0063899Y0169210D01*
X0063942Y0169265D01*
X0063982Y0169323D01*
X0064019Y0169383D01*
X0064052Y0169445D01*
X0064082Y0169509D01*
X0064109Y0169574D01*
X0064132Y0169640D01*
X0064151Y0169708D01*
X0064166Y0169777D01*
X0064178Y0169846D01*
X0064186Y0169916D01*
X0064190Y0169987D01*
X0064190Y0170057D01*
X0064186Y0170128D01*
X0064178Y0170198D01*
X0064166Y0170267D01*
X0064151Y0170336D01*
X0064132Y0170404D01*
X0064109Y0170470D01*
X0064082Y0170535D01*
X0064052Y0170599D01*
X0064019Y0170661D01*
X0063982Y0170721D01*
X0063942Y0170779D01*
X0063899Y0170834D01*
X0063852Y0170888D01*
X0063803Y0170938D01*
X0063751Y0170986D01*
X0063697Y0171031D01*
X0063640Y0171072D01*
X0063581Y0171111D01*
X0063520Y0171146D01*
X0063457Y0171178D01*
X0063393Y0171206D01*
X0063327Y0171231D01*
X0063260Y0171252D01*
X0063191Y0171269D01*
X0063122Y0171283D01*
X0063053Y0171292D01*
X0062982Y0171298D01*
X0062912Y0171300D01*
X0061635Y0171300D01*
X0061635Y0166700D01*
X0040449Y0170700D02*
X0041727Y0175300D01*
X0039171Y0175300D01*
X0039171Y0174789D01*
X0035978Y0175300D02*
X0034700Y0175300D01*
X0034700Y0170700D01*
X0034700Y0172744D02*
X0035978Y0172744D01*
X0036233Y0172744D02*
X0037256Y0170700D01*
X0035978Y0172744D02*
X0036048Y0172746D01*
X0036119Y0172752D01*
X0036188Y0172761D01*
X0036257Y0172775D01*
X0036326Y0172792D01*
X0036393Y0172813D01*
X0036459Y0172838D01*
X0036523Y0172866D01*
X0036586Y0172898D01*
X0036647Y0172933D01*
X0036706Y0172972D01*
X0036763Y0173013D01*
X0036817Y0173058D01*
X0036869Y0173106D01*
X0036918Y0173156D01*
X0036965Y0173210D01*
X0037008Y0173265D01*
X0037048Y0173323D01*
X0037085Y0173383D01*
X0037118Y0173445D01*
X0037148Y0173509D01*
X0037175Y0173574D01*
X0037198Y0173640D01*
X0037217Y0173708D01*
X0037232Y0173777D01*
X0037244Y0173846D01*
X0037252Y0173916D01*
X0037256Y0173987D01*
X0037256Y0174057D01*
X0037252Y0174128D01*
X0037244Y0174198D01*
X0037232Y0174267D01*
X0037217Y0174336D01*
X0037198Y0174404D01*
X0037175Y0174470D01*
X0037148Y0174535D01*
X0037118Y0174599D01*
X0037085Y0174661D01*
X0037048Y0174721D01*
X0037008Y0174779D01*
X0036965Y0174834D01*
X0036918Y0174888D01*
X0036869Y0174938D01*
X0036817Y0174986D01*
X0036763Y0175031D01*
X0036706Y0175072D01*
X0036647Y0175111D01*
X0036586Y0175146D01*
X0036523Y0175178D01*
X0036459Y0175206D01*
X0036393Y0175231D01*
X0036326Y0175252D01*
X0036257Y0175269D01*
X0036188Y0175283D01*
X0036119Y0175292D01*
X0036048Y0175298D01*
X0035978Y0175300D01*
X0037256Y0184200D02*
X0036233Y0186244D01*
X0035978Y0186244D02*
X0034700Y0186244D01*
X0035978Y0186244D02*
X0036048Y0186246D01*
X0036119Y0186252D01*
X0036188Y0186261D01*
X0036257Y0186275D01*
X0036326Y0186292D01*
X0036393Y0186313D01*
X0036459Y0186338D01*
X0036523Y0186366D01*
X0036586Y0186398D01*
X0036647Y0186433D01*
X0036706Y0186472D01*
X0036763Y0186513D01*
X0036817Y0186558D01*
X0036869Y0186606D01*
X0036918Y0186656D01*
X0036965Y0186710D01*
X0037008Y0186765D01*
X0037048Y0186823D01*
X0037085Y0186883D01*
X0037118Y0186945D01*
X0037148Y0187009D01*
X0037175Y0187074D01*
X0037198Y0187140D01*
X0037217Y0187208D01*
X0037232Y0187277D01*
X0037244Y0187346D01*
X0037252Y0187416D01*
X0037256Y0187487D01*
X0037256Y0187557D01*
X0037252Y0187628D01*
X0037244Y0187698D01*
X0037232Y0187767D01*
X0037217Y0187836D01*
X0037198Y0187904D01*
X0037175Y0187970D01*
X0037148Y0188035D01*
X0037118Y0188099D01*
X0037085Y0188161D01*
X0037048Y0188221D01*
X0037008Y0188279D01*
X0036965Y0188334D01*
X0036918Y0188388D01*
X0036869Y0188438D01*
X0036817Y0188486D01*
X0036763Y0188531D01*
X0036706Y0188572D01*
X0036647Y0188611D01*
X0036586Y0188646D01*
X0036523Y0188678D01*
X0036459Y0188706D01*
X0036393Y0188731D01*
X0036326Y0188752D01*
X0036257Y0188769D01*
X0036188Y0188783D01*
X0036119Y0188792D01*
X0036048Y0188798D01*
X0035978Y0188800D01*
X0034700Y0188800D01*
X0034700Y0184200D01*
X0039171Y0184200D02*
X0041727Y0184200D01*
X0040449Y0184200D02*
X0040449Y0188800D01*
X0039171Y0187778D01*
X0043671Y0187778D02*
X0044949Y0188800D01*
X0044949Y0184200D01*
X0043671Y0184200D02*
X0046227Y0184200D01*
X0208431Y0229276D02*
X0208431Y0233891D01*
X0209713Y0233891D01*
X0209784Y0233889D01*
X0209854Y0233883D01*
X0209924Y0233874D01*
X0209993Y0233860D01*
X0210062Y0233843D01*
X0210129Y0233822D01*
X0210195Y0233797D01*
X0210260Y0233768D01*
X0210323Y0233736D01*
X0210384Y0233701D01*
X0210443Y0233663D01*
X0210500Y0233621D01*
X0210555Y0233576D01*
X0210607Y0233528D01*
X0210656Y0233477D01*
X0210703Y0233424D01*
X0210746Y0233368D01*
X0210786Y0233310D01*
X0210823Y0233250D01*
X0210857Y0233188D01*
X0210887Y0233124D01*
X0210914Y0233059D01*
X0210937Y0232992D01*
X0210956Y0232924D01*
X0210971Y0232855D01*
X0210983Y0232785D01*
X0210991Y0232715D01*
X0210995Y0232644D01*
X0210995Y0232574D01*
X0210991Y0232503D01*
X0210983Y0232433D01*
X0210971Y0232363D01*
X0210956Y0232294D01*
X0210937Y0232226D01*
X0210914Y0232159D01*
X0210887Y0232094D01*
X0210857Y0232030D01*
X0210823Y0231968D01*
X0210786Y0231908D01*
X0210746Y0231850D01*
X0210703Y0231794D01*
X0210656Y0231741D01*
X0210607Y0231690D01*
X0210555Y0231642D01*
X0210500Y0231597D01*
X0210443Y0231555D01*
X0210384Y0231517D01*
X0210323Y0231482D01*
X0210260Y0231450D01*
X0210195Y0231421D01*
X0210129Y0231396D01*
X0210062Y0231375D01*
X0209993Y0231358D01*
X0209924Y0231344D01*
X0209854Y0231335D01*
X0209784Y0231329D01*
X0209713Y0231327D01*
X0208431Y0231327D01*
X0212727Y0229276D02*
X0215291Y0229276D01*
X0212727Y0229276D02*
X0214906Y0231840D01*
X0214137Y0233891D02*
X0214062Y0233889D01*
X0213988Y0233884D01*
X0213914Y0233874D01*
X0213841Y0233861D01*
X0213768Y0233844D01*
X0213696Y0233824D01*
X0213626Y0233800D01*
X0213557Y0233773D01*
X0213489Y0233742D01*
X0213423Y0233707D01*
X0213358Y0233670D01*
X0213296Y0233629D01*
X0213235Y0233585D01*
X0213177Y0233538D01*
X0213122Y0233489D01*
X0213069Y0233436D01*
X0213019Y0233381D01*
X0212971Y0233324D01*
X0212927Y0233264D01*
X0212885Y0233202D01*
X0212847Y0233138D01*
X0212812Y0233072D01*
X0212780Y0233005D01*
X0212752Y0232936D01*
X0212727Y0232866D01*
X0214907Y0231841D02*
X0214954Y0231888D01*
X0214998Y0231938D01*
X0215040Y0231990D01*
X0215079Y0232045D01*
X0215115Y0232101D01*
X0215148Y0232159D01*
X0215177Y0232219D01*
X0215204Y0232281D01*
X0215227Y0232344D01*
X0215246Y0232408D01*
X0215262Y0232473D01*
X0215275Y0232538D01*
X0215284Y0232604D01*
X0215289Y0232671D01*
X0215291Y0232738D01*
X0215289Y0232805D01*
X0215283Y0232872D01*
X0215273Y0232938D01*
X0215260Y0233004D01*
X0215243Y0233069D01*
X0215221Y0233133D01*
X0215197Y0233195D01*
X0215168Y0233256D01*
X0215136Y0233315D01*
X0215101Y0233372D01*
X0215063Y0233427D01*
X0215021Y0233480D01*
X0214976Y0233530D01*
X0214929Y0233577D01*
X0214879Y0233622D01*
X0214826Y0233664D01*
X0214771Y0233702D01*
X0214714Y0233737D01*
X0214655Y0233769D01*
X0214594Y0233798D01*
X0214532Y0233822D01*
X0214468Y0233844D01*
X0214403Y0233861D01*
X0214337Y0233874D01*
X0214271Y0233884D01*
X0214204Y0233890D01*
X0214137Y0233892D01*
D11*
X0153094Y0186539D02*
X0153094Y0166461D01*
X0139906Y0166461D01*
X0139906Y0186539D01*
X0153094Y0186539D01*
D12*
X0149551Y0181815D02*
X0149551Y0171185D01*
X0143449Y0167445D02*
X0143449Y0181815D01*
D13*
X0165157Y0188437D02*
X0184843Y0188437D01*
X0184843Y0158909D01*
X0165157Y0158909D01*
X0165157Y0188437D01*
X0196500Y0201500D02*
X0201500Y0201500D01*
X0201500Y0196500D01*
X0201500Y0181500D01*
X0201500Y0151500D01*
X0201500Y0136500D01*
X0201500Y0131500D01*
X0196500Y0131500D01*
X0036500Y0131500D01*
X0031500Y0131500D01*
X0031500Y0136500D01*
X0031500Y0176500D01*
X0051500Y0176500D01*
X0051500Y0156500D01*
X0026500Y0156500D01*
X0026500Y0176500D01*
X0031500Y0176500D01*
X0031500Y0201500D01*
X0196500Y0201500D01*
X0210449Y0195122D02*
X0210449Y0210870D01*
X0210449Y0195122D02*
X0218520Y0195122D01*
X0233480Y0195122D02*
X0241551Y0195122D01*
X0241551Y0210870D01*
X0234661Y0225043D02*
X0217339Y0225043D01*
X0234450Y0170550D02*
X0234450Y0168050D01*
X0234450Y0169300D02*
X0229950Y0169300D01*
X0230950Y0168050D01*
X0229950Y0165025D02*
X0229952Y0165094D01*
X0229958Y0165163D01*
X0229967Y0165231D01*
X0229980Y0165298D01*
X0229997Y0165365D01*
X0230018Y0165431D01*
X0230042Y0165495D01*
X0230070Y0165558D01*
X0230101Y0165620D01*
X0230135Y0165680D01*
X0230173Y0165737D01*
X0230214Y0165793D01*
X0230257Y0165846D01*
X0230304Y0165897D01*
X0230353Y0165945D01*
X0230405Y0165990D01*
X0230460Y0166032D01*
X0230516Y0166071D01*
X0230575Y0166108D01*
X0230636Y0166140D01*
X0230698Y0166170D01*
X0230762Y0166196D01*
X0230827Y0166218D01*
X0230893Y0166237D01*
X0230960Y0166252D01*
X0231028Y0166263D01*
X0231097Y0166271D01*
X0231166Y0166275D01*
X0231234Y0166275D01*
X0231303Y0166271D01*
X0231372Y0166263D01*
X0231440Y0166252D01*
X0231507Y0166237D01*
X0231573Y0166218D01*
X0231638Y0166196D01*
X0231702Y0166170D01*
X0231764Y0166140D01*
X0231825Y0166108D01*
X0231884Y0166071D01*
X0231940Y0166032D01*
X0231995Y0165990D01*
X0232047Y0165945D01*
X0232096Y0165897D01*
X0232143Y0165846D01*
X0232186Y0165793D01*
X0232227Y0165737D01*
X0232265Y0165680D01*
X0232299Y0165620D01*
X0232330Y0165558D01*
X0232358Y0165495D01*
X0232382Y0165431D01*
X0232403Y0165365D01*
X0232420Y0165298D01*
X0232433Y0165231D01*
X0232442Y0165163D01*
X0232448Y0165094D01*
X0232450Y0165025D01*
X0232450Y0163775D01*
X0234450Y0163775D02*
X0229950Y0163775D01*
X0229950Y0165025D01*
X0229950Y0161421D02*
X0233450Y0161421D01*
X0233510Y0161419D01*
X0233571Y0161414D01*
X0233630Y0161405D01*
X0233689Y0161392D01*
X0233748Y0161376D01*
X0233805Y0161356D01*
X0233860Y0161333D01*
X0233915Y0161306D01*
X0233967Y0161277D01*
X0234018Y0161244D01*
X0234067Y0161208D01*
X0234113Y0161170D01*
X0234157Y0161128D01*
X0234199Y0161084D01*
X0234237Y0161038D01*
X0234273Y0160989D01*
X0234306Y0160938D01*
X0234335Y0160886D01*
X0234362Y0160831D01*
X0234385Y0160776D01*
X0234405Y0160719D01*
X0234421Y0160660D01*
X0234434Y0160601D01*
X0234443Y0160542D01*
X0234448Y0160481D01*
X0234450Y0160421D01*
X0234450Y0159921D01*
X0121550Y0201050D02*
X0119550Y0201050D01*
X0119550Y0205550D01*
X0121550Y0205550D01*
X0121050Y0203550D02*
X0119550Y0203550D01*
X0117650Y0201050D02*
X0115650Y0201050D01*
X0115650Y0205550D01*
X0112465Y0205550D02*
X0111215Y0205550D01*
X0111215Y0201050D01*
X0112465Y0201050D01*
X0112534Y0201052D01*
X0112603Y0201058D01*
X0112671Y0201067D01*
X0112738Y0201080D01*
X0112805Y0201097D01*
X0112871Y0201118D01*
X0112935Y0201142D01*
X0112998Y0201170D01*
X0113060Y0201201D01*
X0113120Y0201235D01*
X0113177Y0201273D01*
X0113233Y0201314D01*
X0113286Y0201357D01*
X0113337Y0201404D01*
X0113385Y0201453D01*
X0113430Y0201505D01*
X0113472Y0201560D01*
X0113511Y0201616D01*
X0113548Y0201675D01*
X0113580Y0201736D01*
X0113610Y0201798D01*
X0113636Y0201862D01*
X0113658Y0201927D01*
X0113677Y0201993D01*
X0113692Y0202060D01*
X0113703Y0202128D01*
X0113711Y0202197D01*
X0113715Y0202266D01*
X0113715Y0202334D01*
X0113711Y0202403D01*
X0113703Y0202472D01*
X0113692Y0202540D01*
X0113677Y0202607D01*
X0113658Y0202673D01*
X0113636Y0202738D01*
X0113610Y0202802D01*
X0113580Y0202864D01*
X0113548Y0202925D01*
X0113511Y0202984D01*
X0113472Y0203040D01*
X0113430Y0203095D01*
X0113385Y0203147D01*
X0113337Y0203196D01*
X0113286Y0203243D01*
X0113233Y0203286D01*
X0113177Y0203327D01*
X0113120Y0203365D01*
X0113060Y0203399D01*
X0112998Y0203430D01*
X0112935Y0203458D01*
X0112871Y0203482D01*
X0112805Y0203503D01*
X0112738Y0203520D01*
X0112671Y0203533D01*
X0112603Y0203542D01*
X0112534Y0203548D01*
X0112465Y0203550D01*
X0111215Y0203550D01*
X0112465Y0203550D02*
X0112527Y0203552D01*
X0112588Y0203558D01*
X0112649Y0203567D01*
X0112709Y0203580D01*
X0112768Y0203597D01*
X0112826Y0203618D01*
X0112883Y0203642D01*
X0112938Y0203669D01*
X0112991Y0203700D01*
X0113043Y0203734D01*
X0113092Y0203771D01*
X0113139Y0203811D01*
X0113183Y0203854D01*
X0113224Y0203899D01*
X0113263Y0203947D01*
X0113299Y0203998D01*
X0113331Y0204050D01*
X0113360Y0204104D01*
X0113386Y0204160D01*
X0113408Y0204218D01*
X0113427Y0204276D01*
X0113442Y0204336D01*
X0113453Y0204397D01*
X0113461Y0204458D01*
X0113465Y0204519D01*
X0113465Y0204581D01*
X0113461Y0204642D01*
X0113453Y0204703D01*
X0113442Y0204764D01*
X0113427Y0204824D01*
X0113408Y0204882D01*
X0113386Y0204940D01*
X0113360Y0204996D01*
X0113331Y0205050D01*
X0113299Y0205102D01*
X0113263Y0205153D01*
X0113224Y0205201D01*
X0113183Y0205246D01*
X0113139Y0205289D01*
X0113092Y0205329D01*
X0113043Y0205366D01*
X0112991Y0205400D01*
X0112938Y0205431D01*
X0112883Y0205458D01*
X0112826Y0205482D01*
X0112768Y0205503D01*
X0112709Y0205520D01*
X0112649Y0205533D01*
X0112588Y0205542D01*
X0112527Y0205548D01*
X0112465Y0205550D01*
X0054750Y0175750D02*
X0054750Y0173250D01*
X0054750Y0174500D02*
X0050250Y0174500D01*
X0051250Y0173250D01*
X0050250Y0171500D02*
X0054750Y0168500D01*
X0053500Y0166600D02*
X0050250Y0166600D01*
X0050250Y0168500D02*
X0054750Y0171500D01*
X0053500Y0166600D02*
X0053569Y0166598D01*
X0053638Y0166592D01*
X0053706Y0166583D01*
X0053773Y0166570D01*
X0053840Y0166553D01*
X0053906Y0166532D01*
X0053970Y0166508D01*
X0054033Y0166480D01*
X0054095Y0166449D01*
X0054155Y0166415D01*
X0054212Y0166377D01*
X0054268Y0166336D01*
X0054321Y0166293D01*
X0054372Y0166246D01*
X0054420Y0166197D01*
X0054465Y0166145D01*
X0054507Y0166090D01*
X0054546Y0166034D01*
X0054583Y0165975D01*
X0054615Y0165914D01*
X0054645Y0165852D01*
X0054671Y0165788D01*
X0054693Y0165723D01*
X0054712Y0165657D01*
X0054727Y0165590D01*
X0054738Y0165522D01*
X0054746Y0165453D01*
X0054750Y0165384D01*
X0054750Y0165316D01*
X0054746Y0165247D01*
X0054738Y0165178D01*
X0054727Y0165110D01*
X0054712Y0165043D01*
X0054693Y0164977D01*
X0054671Y0164912D01*
X0054645Y0164848D01*
X0054615Y0164786D01*
X0054583Y0164725D01*
X0054546Y0164666D01*
X0054507Y0164610D01*
X0054465Y0164555D01*
X0054420Y0164503D01*
X0054372Y0164454D01*
X0054321Y0164407D01*
X0054268Y0164364D01*
X0054212Y0164323D01*
X0054155Y0164285D01*
X0054095Y0164251D01*
X0054033Y0164220D01*
X0053970Y0164192D01*
X0053906Y0164168D01*
X0053840Y0164147D01*
X0053773Y0164130D01*
X0053706Y0164117D01*
X0053638Y0164108D01*
X0053569Y0164102D01*
X0053500Y0164100D01*
X0050250Y0164100D01*
X0050250Y0161750D02*
X0054750Y0161750D01*
X0052750Y0160250D02*
X0050250Y0161750D01*
X0052750Y0160250D02*
X0050250Y0158750D01*
X0054750Y0158750D01*
X0120949Y0067878D02*
X0120949Y0052130D01*
X0127839Y0037957D02*
X0145161Y0037957D01*
X0152051Y0052130D02*
X0152051Y0067878D01*
X0143980Y0067878D01*
X0129020Y0067878D02*
X0120949Y0067878D01*
D14*
X0036500Y0191500D02*
X0036500Y0201500D01*
X0031500Y0196500D02*
X0041500Y0196500D01*
D15*
X0044000Y0208000D02*
X0041500Y0210500D01*
X0041500Y0215500D01*
X0044000Y0218000D01*
X0049000Y0218000D01*
X0051500Y0215500D01*
X0054000Y0218000D01*
X0059000Y0218000D01*
X0061500Y0215500D01*
X0064000Y0218000D01*
X0069000Y0218000D01*
X0071500Y0215500D01*
X0074000Y0218000D01*
X0079000Y0218000D01*
X0081500Y0215500D01*
X0084000Y0218000D01*
X0089000Y0218000D01*
X0091500Y0215500D01*
X0094000Y0218000D01*
X0099000Y0218000D01*
X0101500Y0215500D01*
X0104000Y0218000D01*
X0109000Y0218000D01*
X0111500Y0215500D01*
X0114000Y0218000D01*
X0119000Y0218000D01*
X0121500Y0215500D01*
X0121500Y0210500D01*
X0119000Y0208000D01*
X0114000Y0208000D01*
X0111500Y0210500D01*
X0109000Y0208000D01*
X0104000Y0208000D01*
X0101500Y0210500D01*
X0101500Y0215500D01*
X0101500Y0210500D02*
X0099000Y0208000D01*
X0094000Y0208000D01*
X0091500Y0210500D01*
X0089000Y0208000D01*
X0084000Y0208000D01*
X0081500Y0210500D01*
X0079000Y0208000D01*
X0074000Y0208000D01*
X0071500Y0210500D01*
X0071500Y0215500D01*
X0071500Y0210500D02*
X0069000Y0208000D01*
X0064000Y0208000D01*
X0061500Y0210500D01*
X0059000Y0208000D01*
X0054000Y0208000D01*
X0051500Y0210500D01*
X0049000Y0208000D01*
X0044000Y0208000D01*
X0051500Y0210500D02*
X0051500Y0215500D01*
X0061500Y0215500D02*
X0061500Y0210500D01*
X0081500Y0210500D02*
X0081500Y0215500D01*
X0091500Y0215500D02*
X0091500Y0210500D01*
X0111500Y0210500D02*
X0111500Y0215500D01*
X0095000Y0174200D02*
X0058000Y0174200D01*
X0057924Y0174198D01*
X0057848Y0174192D01*
X0057773Y0174183D01*
X0057698Y0174169D01*
X0057624Y0174152D01*
X0057551Y0174131D01*
X0057479Y0174107D01*
X0057408Y0174078D01*
X0057339Y0174047D01*
X0057272Y0174012D01*
X0057207Y0173973D01*
X0057143Y0173931D01*
X0057082Y0173886D01*
X0057023Y0173838D01*
X0056967Y0173787D01*
X0056913Y0173733D01*
X0056862Y0173677D01*
X0056814Y0173618D01*
X0056769Y0173557D01*
X0056727Y0173493D01*
X0056688Y0173428D01*
X0056653Y0173361D01*
X0056622Y0173292D01*
X0056593Y0173221D01*
X0056569Y0173149D01*
X0056548Y0173076D01*
X0056531Y0173002D01*
X0056517Y0172927D01*
X0056508Y0172852D01*
X0056502Y0172776D01*
X0056500Y0172700D01*
X0056500Y0168500D01*
X0056500Y0164500D01*
X0056500Y0160300D01*
X0056502Y0160224D01*
X0056508Y0160148D01*
X0056517Y0160073D01*
X0056531Y0159998D01*
X0056548Y0159924D01*
X0056569Y0159851D01*
X0056593Y0159779D01*
X0056622Y0159708D01*
X0056653Y0159639D01*
X0056688Y0159572D01*
X0056727Y0159507D01*
X0056769Y0159443D01*
X0056814Y0159382D01*
X0056862Y0159323D01*
X0056913Y0159267D01*
X0056967Y0159213D01*
X0057023Y0159162D01*
X0057082Y0159114D01*
X0057143Y0159069D01*
X0057207Y0159027D01*
X0057272Y0158988D01*
X0057339Y0158953D01*
X0057408Y0158922D01*
X0057479Y0158893D01*
X0057551Y0158869D01*
X0057624Y0158848D01*
X0057698Y0158831D01*
X0057773Y0158817D01*
X0057848Y0158808D01*
X0057924Y0158802D01*
X0058000Y0158800D01*
X0095000Y0158800D01*
X0095076Y0158802D01*
X0095152Y0158808D01*
X0095227Y0158817D01*
X0095302Y0158831D01*
X0095376Y0158848D01*
X0095449Y0158869D01*
X0095521Y0158893D01*
X0095592Y0158922D01*
X0095661Y0158953D01*
X0095728Y0158988D01*
X0095793Y0159027D01*
X0095857Y0159069D01*
X0095918Y0159114D01*
X0095977Y0159162D01*
X0096033Y0159213D01*
X0096087Y0159267D01*
X0096138Y0159323D01*
X0096186Y0159382D01*
X0096231Y0159443D01*
X0096273Y0159507D01*
X0096312Y0159572D01*
X0096347Y0159639D01*
X0096378Y0159708D01*
X0096407Y0159779D01*
X0096431Y0159851D01*
X0096452Y0159924D01*
X0096469Y0159998D01*
X0096483Y0160073D01*
X0096492Y0160148D01*
X0096498Y0160224D01*
X0096500Y0160300D01*
X0096500Y0172700D01*
X0096498Y0172776D01*
X0096492Y0172852D01*
X0096483Y0172927D01*
X0096469Y0173002D01*
X0096452Y0173076D01*
X0096431Y0173149D01*
X0096407Y0173221D01*
X0096378Y0173292D01*
X0096347Y0173361D01*
X0096312Y0173428D01*
X0096273Y0173493D01*
X0096231Y0173557D01*
X0096186Y0173618D01*
X0096138Y0173677D01*
X0096087Y0173733D01*
X0096033Y0173787D01*
X0095977Y0173838D01*
X0095918Y0173886D01*
X0095857Y0173931D01*
X0095793Y0173973D01*
X0095728Y0174012D01*
X0095661Y0174047D01*
X0095592Y0174078D01*
X0095521Y0174107D01*
X0095449Y0174131D01*
X0095376Y0174152D01*
X0095302Y0174169D01*
X0095227Y0174183D01*
X0095152Y0174192D01*
X0095076Y0174198D01*
X0095000Y0174200D01*
X0056500Y0168500D02*
X0056588Y0168498D01*
X0056677Y0168492D01*
X0056765Y0168482D01*
X0056852Y0168469D01*
X0056939Y0168451D01*
X0057025Y0168430D01*
X0057110Y0168405D01*
X0057193Y0168376D01*
X0057276Y0168343D01*
X0057356Y0168307D01*
X0057435Y0168268D01*
X0057513Y0168225D01*
X0057588Y0168178D01*
X0057661Y0168128D01*
X0057732Y0168075D01*
X0057801Y0168019D01*
X0057867Y0167960D01*
X0057930Y0167898D01*
X0057990Y0167834D01*
X0058048Y0167767D01*
X0058102Y0167697D01*
X0058154Y0167625D01*
X0058202Y0167551D01*
X0058247Y0167474D01*
X0058288Y0167396D01*
X0058326Y0167316D01*
X0058360Y0167235D01*
X0058391Y0167152D01*
X0058418Y0167067D01*
X0058441Y0166982D01*
X0058460Y0166896D01*
X0058476Y0166808D01*
X0058488Y0166721D01*
X0058496Y0166633D01*
X0058500Y0166544D01*
X0058500Y0166456D01*
X0058496Y0166367D01*
X0058488Y0166279D01*
X0058476Y0166192D01*
X0058460Y0166104D01*
X0058441Y0166018D01*
X0058418Y0165933D01*
X0058391Y0165848D01*
X0058360Y0165765D01*
X0058326Y0165684D01*
X0058288Y0165604D01*
X0058247Y0165526D01*
X0058202Y0165449D01*
X0058154Y0165375D01*
X0058102Y0165303D01*
X0058048Y0165233D01*
X0057990Y0165166D01*
X0057930Y0165102D01*
X0057867Y0165040D01*
X0057801Y0164981D01*
X0057732Y0164925D01*
X0057661Y0164872D01*
X0057588Y0164822D01*
X0057513Y0164775D01*
X0057435Y0164732D01*
X0057356Y0164693D01*
X0057276Y0164657D01*
X0057193Y0164624D01*
X0057110Y0164595D01*
X0057025Y0164570D01*
X0056939Y0164549D01*
X0056852Y0164531D01*
X0056765Y0164518D01*
X0056677Y0164508D01*
X0056588Y0164502D01*
X0056500Y0164500D01*
X0217500Y0163000D02*
X0217500Y0168000D01*
X0220000Y0170500D01*
X0225000Y0170500D01*
X0227500Y0168000D01*
X0227500Y0163000D01*
X0225000Y0160500D01*
X0227500Y0158000D01*
X0227500Y0153000D01*
X0225000Y0150500D01*
X0227500Y0148000D01*
X0227500Y0143000D01*
X0225000Y0140500D01*
X0220000Y0140500D01*
X0217500Y0143000D01*
X0217500Y0148000D01*
X0220000Y0150500D01*
X0217500Y0153000D01*
X0217500Y0158000D01*
X0220000Y0160500D01*
X0217500Y0163000D01*
X0220000Y0160500D02*
X0225000Y0160500D01*
X0225000Y0150500D02*
X0220000Y0150500D01*
D16*
X0098535Y0035500D02*
X0055465Y0035500D01*
X0055465Y0068807D01*
X0060976Y0068807D01*
X0060976Y0071173D01*
X0093024Y0071173D02*
X0093024Y0068807D01*
X0098535Y0068807D01*
X0098535Y0035500D01*
X0091390Y0082512D02*
X0091392Y0082556D01*
X0091398Y0082599D01*
X0091408Y0082642D01*
X0091421Y0082683D01*
X0091438Y0082724D01*
X0091459Y0082762D01*
X0091483Y0082799D01*
X0091511Y0082833D01*
X0091541Y0082865D01*
X0091574Y0082894D01*
X0091609Y0082919D01*
X0091647Y0082942D01*
X0091686Y0082961D01*
X0091727Y0082976D01*
X0091769Y0082988D01*
X0091812Y0082996D01*
X0091856Y0083000D01*
X0091900Y0083000D01*
X0091944Y0082996D01*
X0091987Y0082988D01*
X0092029Y0082976D01*
X0092070Y0082961D01*
X0092109Y0082942D01*
X0092147Y0082919D01*
X0092182Y0082894D01*
X0092215Y0082865D01*
X0092245Y0082833D01*
X0092273Y0082799D01*
X0092297Y0082762D01*
X0092318Y0082724D01*
X0092335Y0082683D01*
X0092348Y0082642D01*
X0092358Y0082599D01*
X0092364Y0082556D01*
X0092366Y0082512D01*
X0092364Y0082468D01*
X0092358Y0082425D01*
X0092348Y0082382D01*
X0092335Y0082341D01*
X0092318Y0082300D01*
X0092297Y0082262D01*
X0092273Y0082225D01*
X0092245Y0082191D01*
X0092215Y0082159D01*
X0092182Y0082130D01*
X0092147Y0082105D01*
X0092109Y0082082D01*
X0092070Y0082063D01*
X0092029Y0082048D01*
X0091987Y0082036D01*
X0091944Y0082028D01*
X0091900Y0082024D01*
X0091856Y0082024D01*
X0091812Y0082028D01*
X0091769Y0082036D01*
X0091727Y0082048D01*
X0091686Y0082063D01*
X0091647Y0082082D01*
X0091609Y0082105D01*
X0091574Y0082130D01*
X0091541Y0082159D01*
X0091511Y0082191D01*
X0091483Y0082225D01*
X0091459Y0082262D01*
X0091438Y0082300D01*
X0091421Y0082341D01*
X0091408Y0082382D01*
X0091398Y0082425D01*
X0091392Y0082468D01*
X0091390Y0082512D01*
X0177965Y0068807D02*
X0177965Y0035500D01*
X0221035Y0035500D01*
X0221035Y0068807D01*
X0215524Y0068807D01*
X0215524Y0071173D01*
X0213890Y0082512D02*
X0213892Y0082556D01*
X0213898Y0082599D01*
X0213908Y0082642D01*
X0213921Y0082683D01*
X0213938Y0082724D01*
X0213959Y0082762D01*
X0213983Y0082799D01*
X0214011Y0082833D01*
X0214041Y0082865D01*
X0214074Y0082894D01*
X0214109Y0082919D01*
X0214147Y0082942D01*
X0214186Y0082961D01*
X0214227Y0082976D01*
X0214269Y0082988D01*
X0214312Y0082996D01*
X0214356Y0083000D01*
X0214400Y0083000D01*
X0214444Y0082996D01*
X0214487Y0082988D01*
X0214529Y0082976D01*
X0214570Y0082961D01*
X0214609Y0082942D01*
X0214647Y0082919D01*
X0214682Y0082894D01*
X0214715Y0082865D01*
X0214745Y0082833D01*
X0214773Y0082799D01*
X0214797Y0082762D01*
X0214818Y0082724D01*
X0214835Y0082683D01*
X0214848Y0082642D01*
X0214858Y0082599D01*
X0214864Y0082556D01*
X0214866Y0082512D01*
X0214864Y0082468D01*
X0214858Y0082425D01*
X0214848Y0082382D01*
X0214835Y0082341D01*
X0214818Y0082300D01*
X0214797Y0082262D01*
X0214773Y0082225D01*
X0214745Y0082191D01*
X0214715Y0082159D01*
X0214682Y0082130D01*
X0214647Y0082105D01*
X0214609Y0082082D01*
X0214570Y0082063D01*
X0214529Y0082048D01*
X0214487Y0082036D01*
X0214444Y0082028D01*
X0214400Y0082024D01*
X0214356Y0082024D01*
X0214312Y0082028D01*
X0214269Y0082036D01*
X0214227Y0082048D01*
X0214186Y0082063D01*
X0214147Y0082082D01*
X0214109Y0082105D01*
X0214074Y0082130D01*
X0214041Y0082159D01*
X0214011Y0082191D01*
X0213983Y0082225D01*
X0213959Y0082262D01*
X0213938Y0082300D01*
X0213921Y0082341D01*
X0213908Y0082382D01*
X0213898Y0082425D01*
X0213892Y0082468D01*
X0213890Y0082512D01*
X0183476Y0071173D02*
X0183476Y0068807D01*
X0177965Y0068807D01*
D17*
X0181056Y0151742D02*
X0184756Y0151742D01*
X0184756Y0153387D01*
X0184756Y0154735D02*
X0184756Y0156791D01*
X0184756Y0155763D02*
X0181056Y0155763D01*
X0181878Y0154735D01*
D18*
X0096500Y0160200D02*
X0056500Y0160200D01*
D19*
X0066100Y0121206D02*
X0066098Y0096819D01*
X0091902Y0096819D01*
X0091900Y0121206D01*
X0100600Y0120706D02*
X0100598Y0096319D01*
X0126402Y0096319D01*
X0126400Y0120706D01*
X0148600Y0121206D02*
X0148598Y0096819D01*
X0174402Y0096819D01*
X0174400Y0121206D01*
X0183600Y0121206D02*
X0183598Y0096819D01*
X0209402Y0096819D01*
X0209400Y0121206D01*
X0219100Y0121706D02*
X0219098Y0097319D01*
X0244902Y0097319D01*
X0244900Y0121706D01*
X0060900Y0120706D02*
X0060902Y0096319D01*
X0035098Y0096319D01*
X0035100Y0120706D01*
D20*
X0048000Y0094419D03*
X0079000Y0094919D03*
X0113500Y0094419D03*
X0161500Y0094919D03*
X0196500Y0094919D03*
X0232000Y0095419D03*
D21*
X0129020Y0072799D03*
X0233480Y0190201D03*
M02*
