G75*
%MOIN*%
%OFA0B0*%
%FSLAX25Y25*%
%IPPOS*%
%LPD*%
%AMOC8*
5,1,8,0,0,1.08239X$1,22.5*
%
%ADD10R,0.02953X0.04724*%
%ADD11R,0.05906X0.05118*%
%ADD12R,0.14016X0.05512*%
%ADD13R,0.02600X0.08000*%
%ADD14R,0.06299X0.11811*%
%ADD15R,0.19000X0.16500*%
%ADD16R,0.03937X0.13780*%
%ADD17R,0.05906X0.13386*%
%ADD18R,0.05118X0.05906*%
D10*
X0146500Y0169807D03*
X0146500Y0183193D03*
D11*
X0131500Y0179240D03*
X0131500Y0171760D03*
X0131500Y0160240D03*
X0131500Y0152760D03*
X0151500Y0152760D03*
X0151500Y0160240D03*
X0111500Y0160240D03*
X0111500Y0152760D03*
X0111500Y0171260D03*
X0111500Y0178740D03*
D12*
X0175000Y0184500D03*
X0175000Y0163004D03*
D13*
X0094000Y0154400D03*
X0089000Y0154400D03*
X0084000Y0154400D03*
X0079000Y0154400D03*
X0074000Y0154400D03*
X0069000Y0154400D03*
X0064000Y0154400D03*
X0059000Y0154400D03*
X0059000Y0178600D03*
X0064000Y0178600D03*
X0069000Y0178600D03*
X0074000Y0178600D03*
X0079000Y0178600D03*
X0084000Y0178600D03*
X0089000Y0178600D03*
X0094000Y0178600D03*
D14*
X0087976Y0090594D03*
X0104524Y0090094D03*
X0122476Y0090094D03*
X0152524Y0090594D03*
X0170476Y0090594D03*
X0187524Y0090594D03*
X0205476Y0090594D03*
X0223024Y0091094D03*
X0240976Y0091094D03*
X0070024Y0090594D03*
X0056976Y0090094D03*
X0039024Y0090094D03*
D15*
X0048000Y0114252D03*
X0079000Y0114752D03*
X0113500Y0114252D03*
X0161500Y0114752D03*
X0196500Y0114752D03*
X0232000Y0115252D03*
D16*
X0140437Y0066500D03*
X0132563Y0066500D03*
X0222063Y0196500D03*
X0229937Y0196500D03*
D17*
X0239189Y0219138D03*
X0212811Y0219138D03*
X0149689Y0043862D03*
X0123311Y0043862D03*
D18*
X0039760Y0077000D03*
X0047240Y0077000D03*
X0132760Y0096500D03*
X0140240Y0096500D03*
X0140240Y0106500D03*
X0132760Y0106500D03*
X0132760Y0116500D03*
X0140240Y0116500D03*
X0162260Y0065000D03*
X0169740Y0065000D03*
X0169740Y0049000D03*
X0162260Y0049000D03*
X0227760Y0071500D03*
X0235240Y0071500D03*
X0040740Y0165500D03*
X0033260Y0165500D03*
X0033260Y0179000D03*
X0040740Y0179000D03*
X0040240Y0151500D03*
X0032760Y0151500D03*
M02*
